<?xml version="1.0" encoding="UTF-8"?>
<svg width="2000" height="3000"><g transform="translate(30, 30)"><line x1="100" y1="100" x2="2000" y2="100" stroke="black" stroke-width="2"/><g class="circles"><circle cx="100" cy="100" r="47.53945931439391" fill="#2C7AAF" stroke="#21073A" stroke-width="14.25"/><text x="100" y="200" style="writing-mode: tb; glyph-orientation-vertical:0" fill="black">Beauty and the Beast (Live-Action)</text><text x="96" y="105">14</text></g><g class="circles"><circle cx="300" cy="100" r="29.854106607209232" fill="#2C7AAF" stroke="#21073A" stroke-width="5.75"/><text x="300" y="200" style="writing-mode: tb; glyph-orientation-vertical:0" fill="black">Beauty and the Beast: The Enchanted Christmas</text><text x="296" y="105">5</text></g><g class="circles"><circle cx="500" cy="100" r="34.318312587888485" fill="#2C7AAF" stroke="#21073A" stroke-width="7.25"/><text x="500" y="200" style="writing-mode: tb; glyph-orientation-vertical:0" fill="black">Aladdin (Live-Action)</text><text x="496" y="105">8</text></g><g class="circles"><circle cx="700" cy="100" r="27.63953195770684" fill="#2C7AAF" stroke="#21073A" stroke-width="4.75"/><text x="700" y="200" style="writing-mode: tb; glyph-orientation-vertical:0" fill="black">Aladdin: The Return of Jafar</text><text x="696" y="105">5</text></g><g class="circles"><circle cx="900" cy="100" r="25.854414729132053" fill="#2C7AAF" stroke="#21073A" stroke-width="4"/><text x="900" y="200" style="writing-mode: tb; glyph-orientation-vertical:0" fill="black">Aladdin and the King of Thieves</text><text x="896" y="105">5</text></g><g class="circles"><circle cx="1100" cy="100" r="52.01570947860099" fill="#2C7AAF" stroke="#21073A" stroke-width="17.25"/><text x="1100" y="200" style="writing-mode: tb; glyph-orientation-vertical:0" fill="black">Aladdin (Broadway)</text><text x="1096" y="105">16</text></g><g class="circles"><circle cx="1300" cy="100" r="30.382538898732495" fill="#2C7AAF" stroke="#21073A" stroke-width="5.5"/><text x="1300" y="200" style="writing-mode: tb; glyph-orientation-vertical:0" fill="black">Aladdin</text><text x="1296" y="105">7</text></g><g class="circles"><circle cx="1500" cy="100" r="39.89422804014327" fill="#2C7AAF" stroke="#21073A" stroke-width="10.25"/><text x="1500" y="200" style="writing-mode: tb; glyph-orientation-vertical:0" fill="black">Beauty and the Beast</text><text x="1496" y="105">9</text></g><g class="circles"><circle cx="1700" cy="100" r="58.08687281605182" fill="#2C7AAF" stroke="#21073A" stroke-width="22"/><text x="1700" y="200" style="writing-mode: tb; glyph-orientation-vertical:0" fill="black">Beauty and the Beast (Broadway)</text><text x="1696" y="105">18</text></g><g class="circles"><circle cx="1900" cy="100" r="16.925687506432688" fill="#2C7AAF" stroke="#21073A" stroke-width="1.75"/><text x="1900" y="200" style="writing-mode: tb; glyph-orientation-vertical:0" fill="black">Disney Princess Enchanted Tales: Follow Your Dreams</text><text x="1896" y="105">2</text></g><g class="circles"><circle cx="2100" cy="100" r="13.81976597885342" fill="#2C7AAF" stroke="#21073A" stroke-width="1"/><text x="2100" y="200" style="writing-mode: tb; glyph-orientation-vertical:0" fill="black">Beauty and the Beast: Belle's Magical World</text><text x="2096" y="105">2</text></g><g class="circles"><circle cx="2300" cy="100" r="12.615662610100802" fill="#2C7AAF" stroke="#21073A" stroke-width="1"/><text x="2300" y="200" style="writing-mode: tb; glyph-orientation-vertical:0" fill="black"> Beauty and the Beast (Broadway) </text><text x="2296" y="105">1</text></g><g class="circles"><circle cx="2500" cy="100" r="12.615662610100802" fill="#2C7AAF" stroke="#21073A" stroke-width="1"/><text x="2500" y="200" style="writing-mode: tb; glyph-orientation-vertical:0" fill="black"> Beauty and the Beast (Broadway)</text><text x="2496" y="105">1</text></g></g></svg>