<?xml version="1.0" encoding="UTF-8"?>
<svg width="600" height="600" viewBox="(0,0, 1200, 700)"><g transform="translate(100, 550)"><line x1="100" x2="100" y1="0" y2="-500" stroke="green" stroke-width="1" stroke-dasharray="5"/><line x1="200" x2="200" y1="0" y2="-500" stroke="green" stroke-width="1" stroke-dasharray="5"/><line x1="300" x2="300" y1="0" y2="-500" stroke="green" stroke-width="1" stroke-dasharray="5"/><line x1="400" x2="400" y1="0" y2="-500" stroke="green" stroke-width="1" stroke-dasharray="5"/><g><line x1="0" x2="400" y1="0" y2="0" stroke="green" stroke-width="1" stroke-dasharray="5"/><text x="-40" y="5">0</text></g><g><line x1="0" x2="400" y1="-100" y2="-100" stroke="green" stroke-width="1" stroke-dasharray="5"/><text x="-40" y="-95">100</text></g><g><line x1="0" x2="400" y1="-200" y2="-200" stroke="green" stroke-width="1" stroke-dasharray="5"/><text x="-40" y="-195">200</text></g><g><line x1="0" x2="400" y1="-300" y2="-300" stroke="green" stroke-width="1" stroke-dasharray="5"/><text x="-40" y="-295">300</text></g><g><line x1="0" x2="400" y1="-400" y2="-400" stroke="green" stroke-width="1" stroke-dasharray="5"/><text x="-40" y="-395">400</text></g><g><line x1="0" x2="400" y1="-500" y2="-500" stroke="green" stroke-width="1" stroke-dasharray="5"/><text x="-40" y="-495">500</text></g><g id="year-1900"><text x="100" y="20" stroke="black">1900</text><circle x="100" y="20" r="10" stroke="black" fill="red"/><circle x="100" y="10" r="10" stroke="black" fill="blue"/><text x="100" y="10" stroke="black"/></g><g id="year-1904"><text x="200" y="20" stroke="black">1904</text><circle x="200" y="20" r="10" stroke="black" fill="red"/><circle x="200" y="10" r="10" stroke="black" fill="blue"/><text x="200" y="10" stroke="black"/></g><g id="year-1908"><text x="300" y="20" stroke="black">1908</text><circle x="300" y="20" r="10" stroke="black" fill="red"/><circle x="300" y="10" r="10" stroke="black" fill="blue"/><text x="300" y="10" stroke="black"/></g><g id="year-1912"><text x="400" y="20" stroke="black">1912</text><circle x="400" y="20" r="10" stroke="black" fill="red"/><circle x="400" y="10" r="10" stroke="black" fill="blue"/><text x="400" y="10" stroke="black"/></g></g></svg>