<?xml version="1.0" encoding="UTF-8"?>
<svg xmlns="http://www.w3.org/2000/svg" viewBox="0 0 2000 1000"><!--We will adjust our "viewport" by altering the width and height attribute values roughly to be larger 
      than the largest X and Y on the plot--><g transform="translate (100, 550)"><!--This g can take a transform="translate(x y)" attribute to shift the whole plot over and down as needed--><g>
                (: Actions Rectangle :)
                <rect x="65" width="25" y="-240" height="240" fill="#d997ff" stroke="#d997ff"/>
                (: Speakers Rectangle :)
                <rect x="90" width="25" y="-110" height="110" fill="#4cc0f3" stroke="#4cc0f3"/><text x="90" y="50" style="writing-mode: tb; glyph-orientation-vertical: 180; font-size: 18;">intro</text><text x="-20" y="-200" style="writing-mode: tb; glyph-orientation-vertical: 180; font-size: 28; text-anchor: middle;">Action/Speaker Count</text><text x="77.5" y="-245" style="font-size: 16; text-anchor: middle;">24</text><text x="102.5" y="-115" style="font-size: 16; text-anchor: middle;">11</text><text x="1000" y="-500" style="text-anchor: middle; font-family: Sans-Serif; font-size: 48;">Assassin's Creed</text><text x="1000" y="-450" style="text-anchor: middle; font-family: Sans-Serif; font-size: 28;">The Amount of Actions vs. The Amount of Speakers</text><line x1="0" y1="0" x2="1950" y2="0" style="stroke: black;" stroke-width="3"/><line x1="0" y1="0" x2="0" y2="-400" style="stroke: black;" stroke-width="3"/><rect x="1500" width="200" y="-400" height="150" fill="none" stroke="black"/><rect x="1530" width="30" y="-370" height="30" fill="#d997ff"/><rect x="1530" width="30" y="-300" height="30" fill="#4cc0f3"/><text x="1570" y="-346" style="font-size: 24;">Actions</text><text x="1570" y="-276" style="font-size: 24;">Speakers</text>11</g><g>
                (: Actions Rectangle :)
                <rect x="130" width="25" y="-150" height="150" fill="#d997ff" stroke="#d997ff"/>
                (: Speakers Rectangle :)
                <rect x="155" width="25" y="-120" height="120" fill="#4cc0f3" stroke="#4cc0f3"/><text x="155" y="50" style="writing-mode: tb; glyph-orientation-vertical: 180; font-size: 18;">Another Day, Another Drachma</text><text x="-20" y="-200" style="writing-mode: tb; glyph-orientation-vertical: 180; font-size: 28; text-anchor: middle;">Action/Speaker Count</text><text x="142.5" y="-155" style="font-size: 16; text-anchor: middle;">15</text><text x="167.5" y="-125" style="font-size: 16; text-anchor: middle;">12</text><text x="1000" y="-500" style="text-anchor: middle; font-family: Sans-Serif; font-size: 48;">Assassin's Creed</text><text x="1000" y="-450" style="text-anchor: middle; font-family: Sans-Serif; font-size: 28;">The Amount of Actions vs. The Amount of Speakers</text><line x1="0" y1="0" x2="1950" y2="0" style="stroke: black;" stroke-width="3"/><line x1="0" y1="0" x2="0" y2="-400" style="stroke: black;" stroke-width="3"/><rect x="1500" width="200" y="-400" height="150" fill="none" stroke="black"/><rect x="1530" width="30" y="-370" height="30" fill="#d997ff"/><rect x="1530" width="30" y="-300" height="30" fill="#4cc0f3"/><text x="1570" y="-346" style="font-size: 24;">Actions</text><text x="1570" y="-276" style="font-size: 24;">Speakers</text>12</g><g>
                (: Actions Rectangle :)
                <rect x="195" width="25" y="-330" height="330" fill="#d997ff" stroke="#d997ff"/>
                (: Speakers Rectangle :)
                <rect x="220" width="25" y="-140" height="140" fill="#4cc0f3" stroke="#4cc0f3"/><text x="220" y="50" style="writing-mode: tb; glyph-orientation-vertical: 180; font-size: 18;">A Debt to Pay</text><text x="-20" y="-200" style="writing-mode: tb; glyph-orientation-vertical: 180; font-size: 28; text-anchor: middle;">Action/Speaker Count</text><text x="207.5" y="-335" style="font-size: 16; text-anchor: middle;">33</text><text x="232.5" y="-145" style="font-size: 16; text-anchor: middle;">14</text><text x="1000" y="-500" style="text-anchor: middle; font-family: Sans-Serif; font-size: 48;">Assassin's Creed</text><text x="1000" y="-450" style="text-anchor: middle; font-family: Sans-Serif; font-size: 28;">The Amount of Actions vs. The Amount of Speakers</text><line x1="0" y1="0" x2="1950" y2="0" style="stroke: black;" stroke-width="3"/><line x1="0" y1="0" x2="0" y2="-400" style="stroke: black;" stroke-width="3"/><rect x="1500" width="200" y="-400" height="150" fill="none" stroke="black"/><rect x="1530" width="30" y="-370" height="30" fill="#d997ff"/><rect x="1530" width="30" y="-300" height="30" fill="#4cc0f3"/><text x="1570" y="-346" style="font-size: 24;">Actions</text><text x="1570" y="-276" style="font-size: 24;">Speakers</text>14</g><g>
                (: Actions Rectangle :)
                <rect x="260" width="25" y="-290" height="290" fill="#d997ff" stroke="#d997ff"/>
                (: Speakers Rectangle :)
                <rect x="285" width="25" y="-160" height="160" fill="#4cc0f3" stroke="#4cc0f3"/><text x="285" y="50" style="writing-mode: tb; glyph-orientation-vertical: 180; font-size: 18;">The Wolf Hunt</text><text x="-20" y="-200" style="writing-mode: tb; glyph-orientation-vertical: 180; font-size: 28; text-anchor: middle;">Action/Speaker Count</text><text x="272.5" y="-295" style="font-size: 16; text-anchor: middle;">29</text><text x="297.5" y="-165" style="font-size: 16; text-anchor: middle;">16</text><text x="1000" y="-500" style="text-anchor: middle; font-family: Sans-Serif; font-size: 48;">Assassin's Creed</text><text x="1000" y="-450" style="text-anchor: middle; font-family: Sans-Serif; font-size: 28;">The Amount of Actions vs. The Amount of Speakers</text><line x1="0" y1="0" x2="1950" y2="0" style="stroke: black;" stroke-width="3"/><line x1="0" y1="0" x2="0" y2="-400" style="stroke: black;" stroke-width="3"/><rect x="1500" width="200" y="-400" height="150" fill="none" stroke="black"/><rect x="1530" width="30" y="-370" height="30" fill="#d997ff"/><rect x="1530" width="30" y="-300" height="30" fill="#4cc0f3"/><text x="1570" y="-346" style="font-size: 24;">Actions</text><text x="1570" y="-276" style="font-size: 24;">Speakers</text>16</g><g>
                (: Actions Rectangle :)
                <rect x="325" width="25" y="-30" height="30" fill="#d997ff" stroke="#d997ff"/>
                (: Speakers Rectangle :)
                <rect x="350" width="25" y="-30" height="30" fill="#4cc0f3" stroke="#4cc0f3"/><text x="350" y="50" style="writing-mode: tb; glyph-orientation-vertical: 180; font-size: 18;">The Wolf and Snake</text><text x="-20" y="-200" style="writing-mode: tb; glyph-orientation-vertical: 180; font-size: 28; text-anchor: middle;">Action/Speaker Count</text><text x="337.5" y="-35" style="font-size: 16; text-anchor: middle;">3</text><text x="362.5" y="-35" style="font-size: 16; text-anchor: middle;">3</text><text x="1000" y="-500" style="text-anchor: middle; font-family: Sans-Serif; font-size: 48;">Assassin's Creed</text><text x="1000" y="-450" style="text-anchor: middle; font-family: Sans-Serif; font-size: 28;">The Amount of Actions vs. The Amount of Speakers</text><line x1="0" y1="0" x2="1950" y2="0" style="stroke: black;" stroke-width="3"/><line x1="0" y1="0" x2="0" y2="-400" style="stroke: black;" stroke-width="3"/><rect x="1500" width="200" y="-400" height="150" fill="none" stroke="black"/><rect x="1530" width="30" y="-370" height="30" fill="#d997ff"/><rect x="1530" width="30" y="-300" height="30" fill="#4cc0f3"/><text x="1570" y="-346" style="font-size: 24;">Actions</text><text x="1570" y="-276" style="font-size: 24;">Speakers</text>3</g><g>
                (: Actions Rectangle :)
                <rect x="390" width="25" y="-90" height="90" fill="#d997ff" stroke="#d997ff"/>
                (: Speakers Rectangle :)
                <rect x="415" width="25" y="-60" height="60" fill="#4cc0f3" stroke="#4cc0f3"/><text x="415" y="50" style="writing-mode: tb; glyph-orientation-vertical: 180; font-size: 18;">Of Visions and Visionaries</text><text x="-20" y="-200" style="writing-mode: tb; glyph-orientation-vertical: 180; font-size: 28; text-anchor: middle;">Action/Speaker Count</text><text x="402.5" y="-95" style="font-size: 16; text-anchor: middle;">9</text><text x="427.5" y="-65" style="font-size: 16; text-anchor: middle;">6</text><text x="1000" y="-500" style="text-anchor: middle; font-family: Sans-Serif; font-size: 48;">Assassin's Creed</text><text x="1000" y="-450" style="text-anchor: middle; font-family: Sans-Serif; font-size: 28;">The Amount of Actions vs. The Amount of Speakers</text><line x1="0" y1="0" x2="1950" y2="0" style="stroke: black;" stroke-width="3"/><line x1="0" y1="0" x2="0" y2="-400" style="stroke: black;" stroke-width="3"/><rect x="1500" width="200" y="-400" height="150" fill="none" stroke="black"/><rect x="1530" width="30" y="-370" height="30" fill="#d997ff"/><rect x="1530" width="30" y="-300" height="30" fill="#4cc0f3"/><text x="1570" y="-346" style="font-size: 24;">Actions</text><text x="1570" y="-276" style="font-size: 24;">Speakers</text>6</g><g>
                (: Actions Rectangle :)
                <rect x="455" width="25" y="-180" height="180" fill="#d997ff" stroke="#d997ff"/>
                (: Speakers Rectangle :)
                <rect x="480" width="25" y="-60" height="60" fill="#4cc0f3" stroke="#4cc0f3"/><text x="480" y="50" style="writing-mode: tb; glyph-orientation-vertical: 180; font-size: 18;">Beware the Snakes</text><text x="-20" y="-200" style="writing-mode: tb; glyph-orientation-vertical: 180; font-size: 28; text-anchor: middle;">Action/Speaker Count</text><text x="467.5" y="-185" style="font-size: 16; text-anchor: middle;">18</text><text x="492.5" y="-65" style="font-size: 16; text-anchor: middle;">6</text><text x="1000" y="-500" style="text-anchor: middle; font-family: Sans-Serif; font-size: 48;">Assassin's Creed</text><text x="1000" y="-450" style="text-anchor: middle; font-family: Sans-Serif; font-size: 28;">The Amount of Actions vs. The Amount of Speakers</text><line x1="0" y1="0" x2="1950" y2="0" style="stroke: black;" stroke-width="3"/><line x1="0" y1="0" x2="0" y2="-400" style="stroke: black;" stroke-width="3"/><rect x="1500" width="200" y="-400" height="150" fill="none" stroke="black"/><rect x="1530" width="30" y="-370" height="30" fill="#d997ff"/><rect x="1530" width="30" y="-300" height="30" fill="#4cc0f3"/><text x="1570" y="-346" style="font-size: 24;">Actions</text><text x="1570" y="-276" style="font-size: 24;">Speakers</text>6</g><g>
                (: Actions Rectangle :)
                <rect x="520" width="25" y="-120" height="120" fill="#d997ff" stroke="#d997ff"/>
                (: Speakers Rectangle :)
                <rect x="545" width="25" y="-120" height="120" fill="#4cc0f3" stroke="#4cc0f3"/><text x="545" y="50" style="writing-mode: tb; glyph-orientation-vertical: 180; font-size: 18;">An Old Enemy and a New Ally</text><text x="-20" y="-200" style="writing-mode: tb; glyph-orientation-vertical: 180; font-size: 28; text-anchor: middle;">Action/Speaker Count</text><text x="532.5" y="-125" style="font-size: 16; text-anchor: middle;">12</text><text x="557.5" y="-125" style="font-size: 16; text-anchor: middle;">12</text><text x="1000" y="-500" style="text-anchor: middle; font-family: Sans-Serif; font-size: 48;">Assassin's Creed</text><text x="1000" y="-450" style="text-anchor: middle; font-family: Sans-Serif; font-size: 28;">The Amount of Actions vs. The Amount of Speakers</text><line x1="0" y1="0" x2="1950" y2="0" style="stroke: black;" stroke-width="3"/><line x1="0" y1="0" x2="0" y2="-400" style="stroke: black;" stroke-width="3"/><rect x="1500" width="200" y="-400" height="150" fill="none" stroke="black"/><rect x="1530" width="30" y="-370" height="30" fill="#d997ff"/><rect x="1530" width="30" y="-300" height="30" fill="#4cc0f3"/><text x="1570" y="-346" style="font-size: 24;">Actions</text><text x="1570" y="-276" style="font-size: 24;">Speakers</text>12</g><g>
                (: Actions Rectangle :)
                <rect x="585" width="25" y="-340" height="340" fill="#d997ff" stroke="#d997ff"/>
                (: Speakers Rectangle :)
                <rect x="610" width="25" y="-230" height="230" fill="#4cc0f3" stroke="#4cc0f3"/><text x="610" y="50" style="writing-mode: tb; glyph-orientation-vertical: 180; font-size: 18;">The Road to the Symposium</text><text x="-20" y="-200" style="writing-mode: tb; glyph-orientation-vertical: 180; font-size: 28; text-anchor: middle;">Action/Speaker Count</text><text x="597.5" y="-345" style="font-size: 16; text-anchor: middle;">34</text><text x="622.5" y="-235" style="font-size: 16; text-anchor: middle;">23</text><text x="1000" y="-500" style="text-anchor: middle; font-family: Sans-Serif; font-size: 48;">Assassin's Creed</text><text x="1000" y="-450" style="text-anchor: middle; font-family: Sans-Serif; font-size: 28;">The Amount of Actions vs. The Amount of Speakers</text><line x1="0" y1="0" x2="1950" y2="0" style="stroke: black;" stroke-width="3"/><line x1="0" y1="0" x2="0" y2="-400" style="stroke: black;" stroke-width="3"/><rect x="1500" width="200" y="-400" height="150" fill="none" stroke="black"/><rect x="1530" width="30" y="-370" height="30" fill="#d997ff"/><rect x="1530" width="30" y="-300" height="30" fill="#4cc0f3"/><text x="1570" y="-346" style="font-size: 24;">Actions</text><text x="1570" y="-276" style="font-size: 24;">Speakers</text>23</g><g>
                (: Actions Rectangle :)
                <rect x="650" width="25" y="-280" height="280" fill="#d997ff" stroke="#d997ff"/>
                (: Speakers Rectangle :)
                <rect x="675" width="25" y="-110" height="110" fill="#4cc0f3" stroke="#4cc0f3"/><text x="675" y="50" style="writing-mode: tb; glyph-orientation-vertical: 180; font-size: 18;">Land of the Lawless</text><text x="-20" y="-200" style="writing-mode: tb; glyph-orientation-vertical: 180; font-size: 28; text-anchor: middle;">Action/Speaker Count</text><text x="662.5" y="-285" style="font-size: 16; text-anchor: middle;">28</text><text x="687.5" y="-115" style="font-size: 16; text-anchor: middle;">11</text><text x="1000" y="-500" style="text-anchor: middle; font-family: Sans-Serif; font-size: 48;">Assassin's Creed</text><text x="1000" y="-450" style="text-anchor: middle; font-family: Sans-Serif; font-size: 28;">The Amount of Actions vs. The Amount of Speakers</text><line x1="0" y1="0" x2="1950" y2="0" style="stroke: black;" stroke-width="3"/><line x1="0" y1="0" x2="0" y2="-400" style="stroke: black;" stroke-width="3"/><rect x="1500" width="200" y="-400" height="150" fill="none" stroke="black"/><rect x="1530" width="30" y="-370" height="30" fill="#d997ff"/><rect x="1530" width="30" y="-300" height="30" fill="#4cc0f3"/><text x="1570" y="-346" style="font-size: 24;">Actions</text><text x="1570" y="-276" style="font-size: 24;">Speakers</text>11</g><g>
                (: Actions Rectangle :)
                <rect x="715" width="25" y="-320" height="320" fill="#d997ff" stroke="#d997ff"/>
                (: Speakers Rectangle :)
                <rect x="740" width="25" y="-160" height="160" fill="#4cc0f3" stroke="#4cc0f3"/><text x="740" y="50" style="writing-mode: tb; glyph-orientation-vertical: 180; font-size: 18;">A Prescription for Discovery</text><text x="-20" y="-200" style="writing-mode: tb; glyph-orientation-vertical: 180; font-size: 28; text-anchor: middle;">Action/Speaker Count</text><text x="727.5" y="-325" style="font-size: 16; text-anchor: middle;">32</text><text x="752.5" y="-165" style="font-size: 16; text-anchor: middle;">16</text><text x="1000" y="-500" style="text-anchor: middle; font-family: Sans-Serif; font-size: 48;">Assassin's Creed</text><text x="1000" y="-450" style="text-anchor: middle; font-family: Sans-Serif; font-size: 28;">The Amount of Actions vs. The Amount of Speakers</text><line x1="0" y1="0" x2="1950" y2="0" style="stroke: black;" stroke-width="3"/><line x1="0" y1="0" x2="0" y2="-400" style="stroke: black;" stroke-width="3"/><rect x="1500" width="200" y="-400" height="150" fill="none" stroke="black"/><rect x="1530" width="30" y="-370" height="30" fill="#d997ff"/><rect x="1530" width="30" y="-300" height="30" fill="#4cc0f3"/><text x="1570" y="-346" style="font-size: 24;">Actions</text><text x="1570" y="-276" style="font-size: 24;">Speakers</text>16</g><g>
                (: Actions Rectangle :)
                <rect x="780" width="25" y="-50" height="50" fill="#d997ff" stroke="#d997ff"/>
                (: Speakers Rectangle :)
                <rect x="805" width="25" y="-50" height="50" fill="#4cc0f3" stroke="#4cc0f3"/><text x="805" y="50" style="writing-mode: tb; glyph-orientation-vertical: 180; font-size: 18;">Pirate Hospitality</text><text x="-20" y="-200" style="writing-mode: tb; glyph-orientation-vertical: 180; font-size: 28; text-anchor: middle;">Action/Speaker Count</text><text x="792.5" y="-55" style="font-size: 16; text-anchor: middle;">5</text><text x="817.5" y="-55" style="font-size: 16; text-anchor: middle;">5</text><text x="1000" y="-500" style="text-anchor: middle; font-family: Sans-Serif; font-size: 48;">Assassin's Creed</text><text x="1000" y="-450" style="text-anchor: middle; font-family: Sans-Serif; font-size: 28;">The Amount of Actions vs. The Amount of Speakers</text><line x1="0" y1="0" x2="1950" y2="0" style="stroke: black;" stroke-width="3"/><line x1="0" y1="0" x2="0" y2="-400" style="stroke: black;" stroke-width="3"/><rect x="1500" width="200" y="-400" height="150" fill="none" stroke="black"/><rect x="1530" width="30" y="-370" height="30" fill="#d997ff"/><rect x="1530" width="30" y="-300" height="30" fill="#4cc0f3"/><text x="1570" y="-346" style="font-size: 24;">Actions</text><text x="1570" y="-276" style="font-size: 24;">Speakers</text>5</g><g>
                (: Actions Rectangle :)
                <rect x="845" width="25" y="-180" height="180" fill="#d997ff" stroke="#d997ff"/>
                (: Speakers Rectangle :)
                <rect x="870" width="25" y="-100" height="100" fill="#4cc0f3" stroke="#4cc0f3"/><text x="870" y="50" style="writing-mode: tb; glyph-orientation-vertical: 180; font-size: 18;">Rising from the Ashes</text><text x="-20" y="-200" style="writing-mode: tb; glyph-orientation-vertical: 180; font-size: 28; text-anchor: middle;">Action/Speaker Count</text><text x="857.5" y="-185" style="font-size: 16; text-anchor: middle;">18</text><text x="882.5" y="-105" style="font-size: 16; text-anchor: middle;">10</text><text x="1000" y="-500" style="text-anchor: middle; font-family: Sans-Serif; font-size: 48;">Assassin's Creed</text><text x="1000" y="-450" style="text-anchor: middle; font-family: Sans-Serif; font-size: 28;">The Amount of Actions vs. The Amount of Speakers</text><line x1="0" y1="0" x2="1950" y2="0" style="stroke: black;" stroke-width="3"/><line x1="0" y1="0" x2="0" y2="-400" style="stroke: black;" stroke-width="3"/><rect x="1500" width="200" y="-400" height="150" fill="none" stroke="black"/><rect x="1530" width="30" y="-370" height="30" fill="#d997ff"/><rect x="1530" width="30" y="-300" height="30" fill="#4cc0f3"/><text x="1570" y="-346" style="font-size: 24;">Actions</text><text x="1570" y="-276" style="font-size: 24;">Speakers</text>10</g><g>
                (: Actions Rectangle :)
                <rect x="910" width="25" y="-40" height="40" fill="#d997ff" stroke="#d997ff"/>
                (: Speakers Rectangle :)
                <rect x="935" width="25" y="-50" height="50" fill="#4cc0f3" stroke="#4cc0f3"/><text x="935" y="50" style="writing-mode: tb; glyph-orientation-vertical: 180; font-size: 18;">The Reunion</text><text x="-20" y="-200" style="writing-mode: tb; glyph-orientation-vertical: 180; font-size: 28; text-anchor: middle;">Action/Speaker Count</text><text x="922.5" y="-45" style="font-size: 16; text-anchor: middle;">4</text><text x="947.5" y="-55" style="font-size: 16; text-anchor: middle;">5</text><text x="1000" y="-500" style="text-anchor: middle; font-family: Sans-Serif; font-size: 48;">Assassin's Creed</text><text x="1000" y="-450" style="text-anchor: middle; font-family: Sans-Serif; font-size: 28;">The Amount of Actions vs. The Amount of Speakers</text><line x1="0" y1="0" x2="1950" y2="0" style="stroke: black;" stroke-width="3"/><line x1="0" y1="0" x2="0" y2="-400" style="stroke: black;" stroke-width="3"/><rect x="1500" width="200" y="-400" height="150" fill="none" stroke="black"/><rect x="1530" width="30" y="-370" height="30" fill="#d997ff"/><rect x="1530" width="30" y="-300" height="30" fill="#4cc0f3"/><text x="1570" y="-346" style="font-size: 24;">Actions</text><text x="1570" y="-276" style="font-size: 24;">Speakers</text>5</g><g>
                (: Actions Rectangle :)
                <rect x="975" width="25" y="-220" height="220" fill="#d997ff" stroke="#d997ff"/>
                (: Speakers Rectangle :)
                <rect x="1000" width="25" y="-130" height="130" fill="#4cc0f3" stroke="#4cc0f3"/><text x="1000" y="50" style="writing-mode: tb; glyph-orientation-vertical: 180; font-size: 18;">Paradise Lost</text><text x="-20" y="-200" style="writing-mode: tb; glyph-orientation-vertical: 180; font-size: 28; text-anchor: middle;">Action/Speaker Count</text><text x="987.5" y="-225" style="font-size: 16; text-anchor: middle;">22</text><text x="1012.5" y="-135" style="font-size: 16; text-anchor: middle;">13</text><text x="1000" y="-500" style="text-anchor: middle; font-family: Sans-Serif; font-size: 48;">Assassin's Creed</text><text x="1000" y="-450" style="text-anchor: middle; font-family: Sans-Serif; font-size: 28;">The Amount of Actions vs. The Amount of Speakers</text><line x1="0" y1="0" x2="1950" y2="0" style="stroke: black;" stroke-width="3"/><line x1="0" y1="0" x2="0" y2="-400" style="stroke: black;" stroke-width="3"/><rect x="1500" width="200" y="-400" height="150" fill="none" stroke="black"/><rect x="1530" width="30" y="-370" height="30" fill="#d997ff"/><rect x="1530" width="30" y="-300" height="30" fill="#4cc0f3"/><text x="1570" y="-346" style="font-size: 24;">Actions</text><text x="1570" y="-276" style="font-size: 24;">Speakers</text>13</g><g>
                (: Actions Rectangle :)
                <rect x="1040" width="25" y="-60" height="60" fill="#d997ff" stroke="#d997ff"/>
                (: Speakers Rectangle :)
                <rect x="1065" width="25" y="-50" height="50" fill="#4cc0f3" stroke="#4cc0f3"/><text x="1065" y="50" style="writing-mode: tb; glyph-orientation-vertical: 180; font-size: 18;">The Last Riddle</text><text x="-20" y="-200" style="writing-mode: tb; glyph-orientation-vertical: 180; font-size: 28; text-anchor: middle;">Action/Speaker Count</text><text x="1052.5" y="-65" style="font-size: 16; text-anchor: middle;">6</text><text x="1077.5" y="-55" style="font-size: 16; text-anchor: middle;">5</text><text x="1000" y="-500" style="text-anchor: middle; font-family: Sans-Serif; font-size: 48;">Assassin's Creed</text><text x="1000" y="-450" style="text-anchor: middle; font-family: Sans-Serif; font-size: 28;">The Amount of Actions vs. The Amount of Speakers</text><line x1="0" y1="0" x2="1950" y2="0" style="stroke: black;" stroke-width="3"/><line x1="0" y1="0" x2="0" y2="-400" style="stroke: black;" stroke-width="3"/><rect x="1500" width="200" y="-400" height="150" fill="none" stroke="black"/><rect x="1530" width="30" y="-370" height="30" fill="#d997ff"/><rect x="1530" width="30" y="-300" height="30" fill="#4cc0f3"/><text x="1570" y="-346" style="font-size: 24;">Actions</text><text x="1570" y="-276" style="font-size: 24;">Speakers</text>5</g><g>
                (: Actions Rectangle :)
                <rect x="1105" width="25" y="-400" height="400" fill="#d997ff" stroke="#d997ff"/>
                (: Speakers Rectangle :)
                <rect x="1130" width="25" y="-120" height="120" fill="#4cc0f3" stroke="#4cc0f3"/><text x="1130" y="50" style="writing-mode: tb; glyph-orientation-vertical: 180; font-size: 18;">A Place of Twists and Turns</text><text x="-20" y="-200" style="writing-mode: tb; glyph-orientation-vertical: 180; font-size: 28; text-anchor: middle;">Action/Speaker Count</text><text x="1117.5" y="-405" style="font-size: 16; text-anchor: middle;">40</text><text x="1142.5" y="-125" style="font-size: 16; text-anchor: middle;">12</text><text x="1000" y="-500" style="text-anchor: middle; font-family: Sans-Serif; font-size: 48;">Assassin's Creed</text><text x="1000" y="-450" style="text-anchor: middle; font-family: Sans-Serif; font-size: 28;">The Amount of Actions vs. The Amount of Speakers</text><line x1="0" y1="0" x2="1950" y2="0" style="stroke: black;" stroke-width="3"/><line x1="0" y1="0" x2="0" y2="-400" style="stroke: black;" stroke-width="3"/><rect x="1500" width="200" y="-400" height="150" fill="none" stroke="black"/><rect x="1530" width="30" y="-370" height="30" fill="#d997ff"/><rect x="1530" width="30" y="-300" height="30" fill="#4cc0f3"/><text x="1570" y="-346" style="font-size: 24;">Actions</text><text x="1570" y="-276" style="font-size: 24;">Speakers</text>12</g><g>
                (: Actions Rectangle :)
                <rect x="1170" width="25" y="-160" height="160" fill="#d997ff" stroke="#d997ff"/>
                (: Speakers Rectangle :)
                <rect x="1195" width="25" y="-110" height="110" fill="#4cc0f3" stroke="#4cc0f3"/><text x="1195" y="50" style="writing-mode: tb; glyph-orientation-vertical: 180; font-size: 18;">Home Is Where My Mother Is</text><text x="-20" y="-200" style="writing-mode: tb; glyph-orientation-vertical: 180; font-size: 28; text-anchor: middle;">Action/Speaker Count</text><text x="1182.5" y="-165" style="font-size: 16; text-anchor: middle;">16</text><text x="1207.5" y="-115" style="font-size: 16; text-anchor: middle;">11</text><text x="1000" y="-500" style="text-anchor: middle; font-family: Sans-Serif; font-size: 48;">Assassin's Creed</text><text x="1000" y="-450" style="text-anchor: middle; font-family: Sans-Serif; font-size: 28;">The Amount of Actions vs. The Amount of Speakers</text><line x1="0" y1="0" x2="1950" y2="0" style="stroke: black;" stroke-width="3"/><line x1="0" y1="0" x2="0" y2="-400" style="stroke: black;" stroke-width="3"/><rect x="1500" width="200" y="-400" height="150" fill="none" stroke="black"/><rect x="1530" width="30" y="-370" height="30" fill="#d997ff"/><rect x="1530" width="30" y="-300" height="30" fill="#4cc0f3"/><text x="1570" y="-346" style="font-size: 24;">Actions</text><text x="1570" y="-276" style="font-size: 24;">Speakers</text>11</g><g>
                (: Actions Rectangle :)
                <rect x="1235" width="25" y="-270" height="270" fill="#d997ff" stroke="#d997ff"/>
                (: Speakers Rectangle :)
                <rect x="1260" width="25" y="-150" height="150" fill="#4cc0f3" stroke="#4cc0f3"/><text x="1260" y="50" style="writing-mode: tb; glyph-orientation-vertical: 180; font-size: 18;">The Olympian</text><text x="-20" y="-200" style="writing-mode: tb; glyph-orientation-vertical: 180; font-size: 28; text-anchor: middle;">Action/Speaker Count</text><text x="1247.5" y="-275" style="font-size: 16; text-anchor: middle;">27</text><text x="1272.5" y="-155" style="font-size: 16; text-anchor: middle;">15</text><text x="1000" y="-500" style="text-anchor: middle; font-family: Sans-Serif; font-size: 48;">Assassin's Creed</text><text x="1000" y="-450" style="text-anchor: middle; font-family: Sans-Serif; font-size: 28;">The Amount of Actions vs. The Amount of Speakers</text><line x1="0" y1="0" x2="1950" y2="0" style="stroke: black;" stroke-width="3"/><line x1="0" y1="0" x2="0" y2="-400" style="stroke: black;" stroke-width="3"/><rect x="1500" width="200" y="-400" height="150" fill="none" stroke="black"/><rect x="1530" width="30" y="-370" height="30" fill="#d997ff"/><rect x="1530" width="30" y="-300" height="30" fill="#4cc0f3"/><text x="1570" y="-346" style="font-size: 24;">Actions</text><text x="1570" y="-276" style="font-size: 24;">Speakers</text>15</g><g>
                (: Actions Rectangle :)
                <rect x="1300" width="25" y="-130" height="130" fill="#d997ff" stroke="#d997ff"/>
                (: Speakers Rectangle :)
                <rect x="1325" width="25" y="-110" height="110" fill="#4cc0f3" stroke="#4cc0f3"/><text x="1325" y="50" style="writing-mode: tb; glyph-orientation-vertical: 180; font-size: 18;">The Cult and the Archon</text><text x="-20" y="-200" style="writing-mode: tb; glyph-orientation-vertical: 180; font-size: 28; text-anchor: middle;">Action/Speaker Count</text><text x="1312.5" y="-135" style="font-size: 16; text-anchor: middle;">13</text><text x="1337.5" y="-115" style="font-size: 16; text-anchor: middle;">11</text><text x="1000" y="-500" style="text-anchor: middle; font-family: Sans-Serif; font-size: 48;">Assassin's Creed</text><text x="1000" y="-450" style="text-anchor: middle; font-family: Sans-Serif; font-size: 28;">The Amount of Actions vs. The Amount of Speakers</text><line x1="0" y1="0" x2="1950" y2="0" style="stroke: black;" stroke-width="3"/><line x1="0" y1="0" x2="0" y2="-400" style="stroke: black;" stroke-width="3"/><rect x="1500" width="200" y="-400" height="150" fill="none" stroke="black"/><rect x="1530" width="30" y="-370" height="30" fill="#d997ff"/><rect x="1530" width="30" y="-300" height="30" fill="#4cc0f3"/><text x="1570" y="-346" style="font-size: 24;">Actions</text><text x="1570" y="-276" style="font-size: 24;">Speakers</text>11</g><g>
                (: Actions Rectangle :)
                <rect x="1365" width="25" y="-90" height="90" fill="#d997ff" stroke="#d997ff"/>
                (: Speakers Rectangle :)
                <rect x="1390" width="25" y="-40" height="40" fill="#4cc0f3" stroke="#4cc0f3"/><text x="1390" y="50" style="writing-mode: tb; glyph-orientation-vertical: 180; font-size: 18;">Paint It Red</text><text x="-20" y="-200" style="writing-mode: tb; glyph-orientation-vertical: 180; font-size: 28; text-anchor: middle;">Action/Speaker Count</text><text x="1377.5" y="-95" style="font-size: 16; text-anchor: middle;">9</text><text x="1402.5" y="-45" style="font-size: 16; text-anchor: middle;">4</text><text x="1000" y="-500" style="text-anchor: middle; font-family: Sans-Serif; font-size: 48;">Assassin's Creed</text><text x="1000" y="-450" style="text-anchor: middle; font-family: Sans-Serif; font-size: 28;">The Amount of Actions vs. The Amount of Speakers</text><line x1="0" y1="0" x2="1950" y2="0" style="stroke: black;" stroke-width="3"/><line x1="0" y1="0" x2="0" y2="-400" style="stroke: black;" stroke-width="3"/><rect x="1500" width="200" y="-400" height="150" fill="none" stroke="black"/><rect x="1530" width="30" y="-370" height="30" fill="#d997ff"/><rect x="1530" width="30" y="-300" height="30" fill="#4cc0f3"/><text x="1570" y="-346" style="font-size: 24;">Actions</text><text x="1570" y="-276" style="font-size: 24;">Speakers</text>4</g><g>
                (: Actions Rectangle :)
                <rect x="1430" width="25" y="-130" height="130" fill="#d997ff" stroke="#d997ff"/>
                (: Speakers Rectangle :)
                <rect x="1455" width="25" y="-90" height="90" fill="#4cc0f3" stroke="#4cc0f3"/><text x="1455" y="50" style="writing-mode: tb; glyph-orientation-vertical: 180; font-size: 18;">The Cultist King</text><text x="-20" y="-200" style="writing-mode: tb; glyph-orientation-vertical: 180; font-size: 28; text-anchor: middle;">Action/Speaker Count</text><text x="1442.5" y="-135" style="font-size: 16; text-anchor: middle;">13</text><text x="1467.5" y="-95" style="font-size: 16; text-anchor: middle;">9</text><text x="1000" y="-500" style="text-anchor: middle; font-family: Sans-Serif; font-size: 48;">Assassin's Creed</text><text x="1000" y="-450" style="text-anchor: middle; font-family: Sans-Serif; font-size: 28;">The Amount of Actions vs. The Amount of Speakers</text><line x1="0" y1="0" x2="1950" y2="0" style="stroke: black;" stroke-width="3"/><line x1="0" y1="0" x2="0" y2="-400" style="stroke: black;" stroke-width="3"/><rect x="1500" width="200" y="-400" height="150" fill="none" stroke="black"/><rect x="1530" width="30" y="-370" height="30" fill="#d997ff"/><rect x="1530" width="30" y="-300" height="30" fill="#4cc0f3"/><text x="1570" y="-346" style="font-size: 24;">Actions</text><text x="1570" y="-276" style="font-size: 24;">Speakers</text>9</g><g>
                (: Actions Rectangle :)
                <rect x="1495" width="25" y="-40" height="40" fill="#d997ff" stroke="#d997ff"/>
                (: Speakers Rectangle :)
                <rect x="1520" width="25" y="-70" height="70" fill="#4cc0f3" stroke="#4cc0f3"/><text x="1520" y="50" style="writing-mode: tb; glyph-orientation-vertical: 180; font-size: 18;">Uprising</text><text x="-20" y="-200" style="writing-mode: tb; glyph-orientation-vertical: 180; font-size: 28; text-anchor: middle;">Action/Speaker Count</text><text x="1507.5" y="-45" style="font-size: 16; text-anchor: middle;">4</text><text x="1532.5" y="-75" style="font-size: 16; text-anchor: middle;">7</text><text x="1000" y="-500" style="text-anchor: middle; font-family: Sans-Serif; font-size: 48;">Assassin's Creed</text><text x="1000" y="-450" style="text-anchor: middle; font-family: Sans-Serif; font-size: 28;">The Amount of Actions vs. The Amount of Speakers</text><line x1="0" y1="0" x2="1950" y2="0" style="stroke: black;" stroke-width="3"/><line x1="0" y1="0" x2="0" y2="-400" style="stroke: black;" stroke-width="3"/><rect x="1500" width="200" y="-400" height="150" fill="none" stroke="black"/><rect x="1530" width="30" y="-370" height="30" fill="#d997ff"/><rect x="1530" width="30" y="-300" height="30" fill="#4cc0f3"/><text x="1570" y="-346" style="font-size: 24;">Actions</text><text x="1570" y="-276" style="font-size: 24;">Speakers</text>7</g><g>
                (: Actions Rectangle :)
                <rect x="1560" width="25" y="-120" height="120" fill="#d997ff" stroke="#d997ff"/>
                (: Speakers Rectangle :)
                <rect x="1585" width="25" y="-100" height="100" fill="#4cc0f3" stroke="#4cc0f3"/><text x="1585" y="50" style="writing-mode: tb; glyph-orientation-vertical: 180; font-size: 18;">Public Opinion</text><text x="-20" y="-200" style="writing-mode: tb; glyph-orientation-vertical: 180; font-size: 28; text-anchor: middle;">Action/Speaker Count</text><text x="1572.5" y="-125" style="font-size: 16; text-anchor: middle;">12</text><text x="1597.5" y="-105" style="font-size: 16; text-anchor: middle;">10</text><text x="1000" y="-500" style="text-anchor: middle; font-family: Sans-Serif; font-size: 48;">Assassin's Creed</text><text x="1000" y="-450" style="text-anchor: middle; font-family: Sans-Serif; font-size: 28;">The Amount of Actions vs. The Amount of Speakers</text><line x1="0" y1="0" x2="1950" y2="0" style="stroke: black;" stroke-width="3"/><line x1="0" y1="0" x2="0" y2="-400" style="stroke: black;" stroke-width="3"/><rect x="1500" width="200" y="-400" height="150" fill="none" stroke="black"/><rect x="1530" width="30" y="-370" height="30" fill="#d997ff"/><rect x="1530" width="30" y="-300" height="30" fill="#4cc0f3"/><text x="1570" y="-346" style="font-size: 24;">Actions</text><text x="1570" y="-276" style="font-size: 24;">Speakers</text>10</g><g>
                (: Actions Rectangle :)
                <rect x="1625" width="25" y="-80" height="80" fill="#d997ff" stroke="#d997ff"/>
                (: Speakers Rectangle :)
                <rect x="1650" width="25" y="-40" height="40" fill="#4cc0f3" stroke="#4cc0f3"/><text x="1650" y="50" style="writing-mode: tb; glyph-orientation-vertical: 180; font-size: 18;">Battle of Amphipolis</text><text x="-20" y="-200" style="writing-mode: tb; glyph-orientation-vertical: 180; font-size: 28; text-anchor: middle;">Action/Speaker Count</text><text x="1637.5" y="-85" style="font-size: 16; text-anchor: middle;">8</text><text x="1662.5" y="-45" style="font-size: 16; text-anchor: middle;">4</text><text x="1000" y="-500" style="text-anchor: middle; font-family: Sans-Serif; font-size: 48;">Assassin's Creed</text><text x="1000" y="-450" style="text-anchor: middle; font-family: Sans-Serif; font-size: 28;">The Amount of Actions vs. The Amount of Speakers</text><line x1="0" y1="0" x2="1950" y2="0" style="stroke: black;" stroke-width="3"/><line x1="0" y1="0" x2="0" y2="-400" style="stroke: black;" stroke-width="3"/><rect x="1500" width="200" y="-400" height="150" fill="none" stroke="black"/><rect x="1530" width="30" y="-370" height="30" fill="#d997ff"/><rect x="1530" width="30" y="-300" height="30" fill="#4cc0f3"/><text x="1570" y="-346" style="font-size: 24;">Actions</text><text x="1570" y="-276" style="font-size: 24;">Speakers</text>4</g><g>
                (: Actions Rectangle :)
                <rect x="1690" width="25" y="-80" height="80" fill="#d997ff" stroke="#d997ff"/>
                (: Speakers Rectangle :)
                <rect x="1715" width="25" y="-60" height="60" fill="#4cc0f3" stroke="#4cc0f3"/><text x="1715" y="50" style="writing-mode: tb; glyph-orientation-vertical: 180; font-size: 18;">Homecoming</text><text x="-20" y="-200" style="writing-mode: tb; glyph-orientation-vertical: 180; font-size: 28; text-anchor: middle;">Action/Speaker Count</text><text x="1702.5" y="-85" style="font-size: 16; text-anchor: middle;">8</text><text x="1727.5" y="-65" style="font-size: 16; text-anchor: middle;">6</text><text x="1000" y="-500" style="text-anchor: middle; font-family: Sans-Serif; font-size: 48;">Assassin's Creed</text><text x="1000" y="-450" style="text-anchor: middle; font-family: Sans-Serif; font-size: 28;">The Amount of Actions vs. The Amount of Speakers</text><line x1="0" y1="0" x2="1950" y2="0" style="stroke: black;" stroke-width="3"/><line x1="0" y1="0" x2="0" y2="-400" style="stroke: black;" stroke-width="3"/><rect x="1500" width="200" y="-400" height="150" fill="none" stroke="black"/><rect x="1530" width="30" y="-370" height="30" fill="#d997ff"/><rect x="1530" width="30" y="-300" height="30" fill="#4cc0f3"/><text x="1570" y="-346" style="font-size: 24;">Actions</text><text x="1570" y="-276" style="font-size: 24;">Speakers</text>6</g><g>
                (: Actions Rectangle :)
                <rect x="1755" width="25" y="-40" height="40" fill="#d997ff" stroke="#d997ff"/>
                (: Speakers Rectangle :)
                <rect x="1780" width="25" y="-40" height="40" fill="#4cc0f3" stroke="#4cc0f3"/><text x="1780" y="50" style="writing-mode: tb; glyph-orientation-vertical: 180; font-size: 18;">From the Shadows</text><text x="-20" y="-200" style="writing-mode: tb; glyph-orientation-vertical: 180; font-size: 28; text-anchor: middle;">Action/Speaker Count</text><text x="1767.5" y="-45" style="font-size: 16; text-anchor: middle;">4</text><text x="1792.5" y="-45" style="font-size: 16; text-anchor: middle;">4</text><text x="1000" y="-500" style="text-anchor: middle; font-family: Sans-Serif; font-size: 48;">Assassin's Creed</text><text x="1000" y="-450" style="text-anchor: middle; font-family: Sans-Serif; font-size: 28;">The Amount of Actions vs. The Amount of Speakers</text><line x1="0" y1="0" x2="1950" y2="0" style="stroke: black;" stroke-width="3"/><line x1="0" y1="0" x2="0" y2="-400" style="stroke: black;" stroke-width="3"/><rect x="1500" width="200" y="-400" height="150" fill="none" stroke="black"/><rect x="1530" width="30" y="-370" height="30" fill="#d997ff"/><rect x="1530" width="30" y="-300" height="30" fill="#4cc0f3"/><text x="1570" y="-346" style="font-size: 24;">Actions</text><text x="1570" y="-276" style="font-size: 24;">Speakers</text>4</g><g>
                (: Actions Rectangle :)
                <rect x="1820" width="25" y="-190" height="190" fill="#d997ff" stroke="#d997ff"/>
                (: Speakers Rectangle :)
                <rect x="1845" width="25" y="-50" height="50" fill="#4cc0f3" stroke="#4cc0f3"/><text x="1845" y="50" style="writing-mode: tb; glyph-orientation-vertical: 180; font-size: 18;">Shadows of Serpents</text><text x="-20" y="-200" style="writing-mode: tb; glyph-orientation-vertical: 180; font-size: 28; text-anchor: middle;">Action/Speaker Count</text><text x="1832.5" y="-195" style="font-size: 16; text-anchor: middle;">19</text><text x="1857.5" y="-55" style="font-size: 16; text-anchor: middle;">5</text><text x="1000" y="-500" style="text-anchor: middle; font-family: Sans-Serif; font-size: 48;">Assassin's Creed</text><text x="1000" y="-450" style="text-anchor: middle; font-family: Sans-Serif; font-size: 28;">The Amount of Actions vs. The Amount of Speakers</text><line x1="0" y1="0" x2="1950" y2="0" style="stroke: black;" stroke-width="3"/><line x1="0" y1="0" x2="0" y2="-400" style="stroke: black;" stroke-width="3"/><rect x="1500" width="200" y="-400" height="150" fill="none" stroke="black"/><rect x="1530" width="30" y="-370" height="30" fill="#d997ff"/><rect x="1530" width="30" y="-300" height="30" fill="#4cc0f3"/><text x="1570" y="-346" style="font-size: 24;">Actions</text><text x="1570" y="-276" style="font-size: 24;">Speakers</text>5</g><g>
                (: Actions Rectangle :)
                <rect x="1885" width="25" y="-90" height="90" fill="#d997ff" stroke="#d997ff"/>
                (: Speakers Rectangle :)
                <rect x="1910" width="25" y="-90" height="90" fill="#4cc0f3" stroke="#4cc0f3"/><text x="1910" y="50" style="writing-mode: tb; glyph-orientation-vertical: 180; font-size: 18;">The Gates of Atlantis</text><text x="-20" y="-200" style="writing-mode: tb; glyph-orientation-vertical: 180; font-size: 28; text-anchor: middle;">Action/Speaker Count</text><text x="1897.5" y="-95" style="font-size: 16; text-anchor: middle;">9</text><text x="1922.5" y="-95" style="font-size: 16; text-anchor: middle;">9</text><text x="1000" y="-500" style="text-anchor: middle; font-family: Sans-Serif; font-size: 48;">Assassin's Creed</text><text x="1000" y="-450" style="text-anchor: middle; font-family: Sans-Serif; font-size: 28;">The Amount of Actions vs. The Amount of Speakers</text><line x1="0" y1="0" x2="1950" y2="0" style="stroke: black;" stroke-width="3"/><line x1="0" y1="0" x2="0" y2="-400" style="stroke: black;" stroke-width="3"/><rect x="1500" width="200" y="-400" height="150" fill="none" stroke="black"/><rect x="1530" width="30" y="-370" height="30" fill="#d997ff"/><rect x="1530" width="30" y="-300" height="30" fill="#4cc0f3"/><text x="1570" y="-346" style="font-size: 24;">Actions</text><text x="1570" y="-276" style="font-size: 24;">Speakers</text>9</g></g></svg>