<?xml version="1.0" encoding="UTF-8"?>
<svg width="1000" height="1000"><!--@width and @height attributes on <svg> create a viewport.  --><!-- Inside the XML document portions, use XML comments! --><g transform="translate(50, 200)"><g id="chap-1"><circle cy="50" cx="30" r="5.5" stroke="red" stroke-width="3" fill="orange"/><line y1="0" x1="30" y2="-110" x2="30" stroke="orange" stroke-width="10"/><text y="100" x="35" fill="indigo" style="writing-mode: tb; glyph-orientation-vertical: 0;"/></g><g id="chap-2"><circle cy="50" cx="60" r="6" stroke="red" stroke-width="3" fill="orange"/><line y1="0" x1="60" y2="-120" x2="60" stroke="orange" stroke-width="10"/><text y="100" x="65" fill="indigo" style="writing-mode: tb; glyph-orientation-vertical: 0;"> Another Day, Another Drachma</text></g><g id="chap-3"><circle cy="50" cx="90" r="7" stroke="red" stroke-width="3" fill="orange"/><line y1="0" x1="90" y2="-140" x2="90" stroke="orange" stroke-width="10"/><text y="100" x="95" fill="indigo" style="writing-mode: tb; glyph-orientation-vertical: 0;"> A Debt to Pay</text></g><g id="chap-4"><circle cy="50" cx="120" r="8" stroke="red" stroke-width="3" fill="orange"/><line y1="0" x1="120" y2="-160" x2="120" stroke="orange" stroke-width="10"/><text y="100" x="125" fill="indigo" style="writing-mode: tb; glyph-orientation-vertical: 0;"> The Wolf Hunt</text></g><g id="chap-5"><circle cy="50" cx="150" r="1.5" stroke="red" stroke-width="3" fill="orange"/><line y1="0" x1="150" y2="-30" x2="150" stroke="orange" stroke-width="10"/><text y="100" x="155" fill="indigo" style="writing-mode: tb; glyph-orientation-vertical: 0;"> The Wolf and Snake</text></g><g id="chap-6"><circle cy="50" cx="180" r="3" stroke="red" stroke-width="3" fill="orange"/><line y1="0" x1="180" y2="-60" x2="180" stroke="orange" stroke-width="10"/><text y="100" x="185" fill="indigo" style="writing-mode: tb; glyph-orientation-vertical: 0;"> Of Visions and Visionaries</text></g><g id="chap-7"><circle cy="50" cx="210" r="3" stroke="red" stroke-width="3" fill="orange"/><line y1="0" x1="210" y2="-60" x2="210" stroke="orange" stroke-width="10"/><text y="100" x="215" fill="indigo" style="writing-mode: tb; glyph-orientation-vertical: 0;"> Beware the Snakes</text></g><g id="chap-8"><circle cy="50" cx="240" r="6" stroke="red" stroke-width="3" fill="orange"/><line y1="0" x1="240" y2="-120" x2="240" stroke="orange" stroke-width="10"/><text y="100" x="245" fill="indigo" style="writing-mode: tb; glyph-orientation-vertical: 0;"> An Old Enemy and a New Ally</text></g><g id="chap-9"><circle cy="50" cx="270" r="11.5" stroke="red" stroke-width="3" fill="orange"/><line y1="0" x1="270" y2="-230" x2="270" stroke="orange" stroke-width="10"/><text y="100" x="275" fill="indigo" style="writing-mode: tb; glyph-orientation-vertical: 0;"> The Road to the Symposium</text></g><g id="chap-10"><circle cy="50" cx="300" r="5.5" stroke="red" stroke-width="3" fill="orange"/><line y1="0" x1="300" y2="-110" x2="300" stroke="orange" stroke-width="10"/><text y="100" x="305" fill="indigo" style="writing-mode: tb; glyph-orientation-vertical: 0;"> Land of the Lawless</text></g><g id="chap-11"><circle cy="50" cx="330" r="8" stroke="red" stroke-width="3" fill="orange"/><line y1="0" x1="330" y2="-160" x2="330" stroke="orange" stroke-width="10"/><text y="100" x="335" fill="indigo" style="writing-mode: tb; glyph-orientation-vertical: 0;"> A Prescription for Discovery</text></g><g id="chap-12"><circle cy="50" cx="360" r="2.5" stroke="red" stroke-width="3" fill="orange"/><line y1="0" x1="360" y2="-50" x2="360" stroke="orange" stroke-width="10"/><text y="100" x="365" fill="indigo" style="writing-mode: tb; glyph-orientation-vertical: 0;"> Pirate Hospitality</text></g><g id="chap-13"><circle cy="50" cx="390" r="5" stroke="red" stroke-width="3" fill="orange"/><line y1="0" x1="390" y2="-100" x2="390" stroke="orange" stroke-width="10"/><text y="100" x="395" fill="indigo" style="writing-mode: tb; glyph-orientation-vertical: 0;"> Rising from the Ashes</text></g><g id="chap-14"><circle cy="50" cx="420" r="2.5" stroke="red" stroke-width="3" fill="orange"/><line y1="0" x1="420" y2="-50" x2="420" stroke="orange" stroke-width="10"/><text y="100" x="425" fill="indigo" style="writing-mode: tb; glyph-orientation-vertical: 0;"> The Reunion</text></g><g id="chap-15"><circle cy="50" cx="450" r="6.5" stroke="red" stroke-width="3" fill="orange"/><line y1="0" x1="450" y2="-130" x2="450" stroke="orange" stroke-width="10"/><text y="100" x="455" fill="indigo" style="writing-mode: tb; glyph-orientation-vertical: 0;"> Paradise Lost</text></g><g id="chap-16"><circle cy="50" cx="480" r="2.5" stroke="red" stroke-width="3" fill="orange"/><line y1="0" x1="480" y2="-50" x2="480" stroke="orange" stroke-width="10"/><text y="100" x="485" fill="indigo" style="writing-mode: tb; glyph-orientation-vertical: 0;"> The Last Riddle</text></g><g id="chap-17"><circle cy="50" cx="510" r="6" stroke="red" stroke-width="3" fill="orange"/><line y1="0" x1="510" y2="-120" x2="510" stroke="orange" stroke-width="10"/><text y="100" x="515" fill="indigo" style="writing-mode: tb; glyph-orientation-vertical: 0;"> A Place of Twists and Turns</text></g><g id="chap-18"><circle cy="50" cx="540" r="5.5" stroke="red" stroke-width="3" fill="orange"/><line y1="0" x1="540" y2="-110" x2="540" stroke="orange" stroke-width="10"/><text y="100" x="545" fill="indigo" style="writing-mode: tb; glyph-orientation-vertical: 0;"> Home Is Where My Mother Is</text></g><g id="chap-19"><circle cy="50" cx="570" r="7.5" stroke="red" stroke-width="3" fill="orange"/><line y1="0" x1="570" y2="-150" x2="570" stroke="orange" stroke-width="10"/><text y="100" x="575" fill="indigo" style="writing-mode: tb; glyph-orientation-vertical: 0;"> The Olympian</text></g><g id="chap-20"><circle cy="50" cx="600" r="5.5" stroke="red" stroke-width="3" fill="orange"/><line y1="0" x1="600" y2="-110" x2="600" stroke="orange" stroke-width="10"/><text y="100" x="605" fill="indigo" style="writing-mode: tb; glyph-orientation-vertical: 0;"> The Cult and the Archon</text></g><g id="chap-21"><circle cy="50" cx="630" r="2" stroke="red" stroke-width="3" fill="orange"/><line y1="0" x1="630" y2="-40" x2="630" stroke="orange" stroke-width="10"/><text y="100" x="635" fill="indigo" style="writing-mode: tb; glyph-orientation-vertical: 0;"> Paint It Red</text></g><g id="chap-22"><circle cy="50" cx="660" r="4.5" stroke="red" stroke-width="3" fill="orange"/><line y1="0" x1="660" y2="-90" x2="660" stroke="orange" stroke-width="10"/><text y="100" x="665" fill="indigo" style="writing-mode: tb; glyph-orientation-vertical: 0;"> The Cultist King</text></g><g id="chap-23"><circle cy="50" cx="690" r="3.5" stroke="red" stroke-width="3" fill="orange"/><line y1="0" x1="690" y2="-70" x2="690" stroke="orange" stroke-width="10"/><text y="100" x="695" fill="indigo" style="writing-mode: tb; glyph-orientation-vertical: 0;"> Uprising</text></g><g id="chap-24"><circle cy="50" cx="720" r="5" stroke="red" stroke-width="3" fill="orange"/><line y1="0" x1="720" y2="-100" x2="720" stroke="orange" stroke-width="10"/><text y="100" x="725" fill="indigo" style="writing-mode: tb; glyph-orientation-vertical: 0;"> Public Opinion</text></g><g id="chap-25"><circle cy="50" cx="750" r="2" stroke="red" stroke-width="3" fill="orange"/><line y1="0" x1="750" y2="-40" x2="750" stroke="orange" stroke-width="10"/><text y="100" x="755" fill="indigo" style="writing-mode: tb; glyph-orientation-vertical: 0;"> Battle of Amphipolis</text></g><g id="chap-26"><circle cy="50" cx="780" r="3" stroke="red" stroke-width="3" fill="orange"/><line y1="0" x1="780" y2="-60" x2="780" stroke="orange" stroke-width="10"/><text y="100" x="785" fill="indigo" style="writing-mode: tb; glyph-orientation-vertical: 0;"> Homecoming</text></g><g id="chap-27"><circle cy="50" cx="810" r="2" stroke="red" stroke-width="3" fill="orange"/><line y1="0" x1="810" y2="-40" x2="810" stroke="orange" stroke-width="10"/><text y="100" x="815" fill="indigo" style="writing-mode: tb; glyph-orientation-vertical: 0;"> From the Shadows</text></g><g id="chap-28"><circle cy="50" cx="840" r="2.5" stroke="red" stroke-width="3" fill="orange"/><line y1="0" x1="840" y2="-50" x2="840" stroke="orange" stroke-width="10"/><text y="100" x="845" fill="indigo" style="writing-mode: tb; glyph-orientation-vertical: 0;"> Shadows of Serpents</text></g><g id="chap-29"><circle cy="50" cx="870" r="4.5" stroke="red" stroke-width="3" fill="orange"/><line y1="0" x1="870" y2="-90" x2="870" stroke="orange" stroke-width="10"/><text y="100" x="875" fill="indigo" style="writing-mode: tb; glyph-orientation-vertical: 0;"> The Gates of Atlantis</text></g></g></svg>