<?xml version="1.0" encoding="UTF-8"?>
<svg width="2000" height="3000"><g transform="translate(30, 30)"><line x1="100" y1="0" x2="100" y2="1520" stroke="purple" stroke-width="3"/><g class="yeardata"><circle cx="100" cy="880" r="27.081100010292303" fill="green"/><text x="175" y="880" fill="green">2010</text><text x="220" y="880" fill="green">Cameraman and Flower---Choose Your Weapon---Interest in People---No Future---No Trespassing ---Swing Girl</text><rect x="250" y="890" width="8" height="30" fill="#FF8B3D"/><rect x="258" y="890" width="40" height="30" fill="blue"/></g><g class="yeardata"><circle cx="100" cy="640" r="27.081100010292303" fill="green"/><text x="175" y="640" fill="green">2007</text><text x="220" y="640" fill="green">Cash Machine Girl---Fallen Angel---Girl with Skipping Rope---Looting Soldier---Space Girl with Bird---Stop and Search</text><rect x="250" y="650" width="0" height="30" fill="#FF8B3D"/><rect x="250" y="650" width="48" height="30" fill="blue"/></g><g class="yeardata"><circle cx="100" cy="880" r="27.081100010292303" fill="green"/><text x="175" y="880" fill="green">2010</text><text x="220" y="880" fill="green">Cameraman and Flower---Choose Your Weapon---Interest in People---No Future---No Trespassing ---Swing Girl</text><rect x="250" y="890" width="8" height="30" fill="#FF8B3D"/><rect x="258" y="890" width="40" height="30" fill="blue"/></g><g class="yeardata"><circle cx="100" cy="960" r="31.594616678674353" fill="green"/><text x="175" y="960" fill="green">2011</text><text x="220" y="960" fill="green">Baby Carriage---Child Soldier---Follow your Dreams - Canceled---Take this Society---Tap Phoned---Tox---Toxic Rat</text><rect x="250" y="970" width="0" height="30" fill="#FF8B3D"/><rect x="250" y="970" width="56" height="30" fill="blue"/></g><g class="yeardata"><circle cx="100" cy="320" r="58.67571668896666" fill="green"/><text x="175" y="320" fill="green">2003</text><text x="220" y="320" fill="green">Bomb Hugger---Bomb Middle England---Flying Copper---Golf Sale---HMV---Happy Choppers---Ice Cream Bomb---Laugh Now---Love Is In The Air---Monkey Queen---Queen Victoria---Turf War</text><rect x="250" y="330" width="88" height="30" fill="#FF8B3D"/><rect x="338" y="330" width="16" height="30" fill="blue"/></g><g class="yeardata"><circle cx="100" cy="480" r="31.594616678674353" fill="green"/><text x="175" y="480" fill="green">2005</text><text x="220" y="480" fill="green">CND Soldiers---Grim Reaper---Jack &amp; Jill---Kate Moss---Snorting Copper---Soldiers Painting CND Sign---Think Tank</text><rect x="250" y="490" width="32" height="30" fill="#FF8B3D"/><rect x="282" y="490" width="24" height="30" fill="blue"/></g><g class="yeardata"><circle cx="100" cy="960" r="31.594616678674353" fill="green"/><text x="175" y="960" fill="green">2011</text><text x="220" y="960" fill="green">Baby Carriage---Child Soldier---Follow your Dreams - Canceled---Take this Society---Tap Phoned---Tox---Toxic Rat</text><rect x="250" y="970" width="0" height="30" fill="#FF8B3D"/><rect x="250" y="970" width="56" height="30" fill="blue"/></g><g class="yeardata"><circle cx="100" cy="880" r="27.081100010292303" fill="green"/><text x="175" y="880" fill="green">2010</text><text x="220" y="880" fill="green">Cameraman and Flower---Choose Your Weapon---Interest in People---No Future---No Trespassing ---Swing Girl</text><rect x="250" y="890" width="8" height="30" fill="#FF8B3D"/><rect x="258" y="890" width="40" height="30" fill="blue"/></g><g class="yeardata"><circle cx="100" cy="320" r="58.67571668896666" fill="green"/><text x="175" y="320" fill="green">2003</text><text x="220" y="320" fill="green">Bomb Hugger---Bomb Middle England---Flying Copper---Golf Sale---HMV---Happy Choppers---Ice Cream Bomb---Laugh Now---Love Is In The Air---Monkey Queen---Queen Victoria---Turf War</text><rect x="250" y="330" width="88" height="30" fill="#FF8B3D"/><rect x="338" y="330" width="16" height="30" fill="blue"/></g><g class="yeardata"><circle cx="100" cy="800" r="22.56758334191025" fill="green"/><text x="175" y="800" fill="green">2009</text><text x="220" y="800" fill="green">Don't Forget your Scarf---Donuts---Kentucky Fox---No Ball Games---Thug for Life Bunny</text><rect x="250" y="810" width="16" height="30" fill="#FF8B3D"/><rect x="266" y="810" width="24" height="30" fill="blue"/></g><g class="yeardata"><circle cx="100" cy="960" r="31.594616678674353" fill="green"/><text x="175" y="960" fill="green">2011</text><text x="220" y="960" fill="green">Baby Carriage---Child Soldier---Follow your Dreams - Canceled---Take this Society---Tap Phoned---Tox---Toxic Rat</text><rect x="250" y="970" width="0" height="30" fill="#FF8B3D"/><rect x="250" y="970" width="56" height="30" fill="blue"/></g><g class="yeardata"><circle cx="100" cy="320" r="58.67571668896666" fill="green"/><text x="175" y="320" fill="green">2003</text><text x="220" y="320" fill="green">Bomb Hugger---Bomb Middle England---Flying Copper---Golf Sale---HMV---Happy Choppers---Ice Cream Bomb---Laugh Now---Love Is In The Air---Monkey Queen---Queen Victoria---Turf War</text><rect x="250" y="330" width="88" height="30" fill="#FF8B3D"/><rect x="338" y="330" width="16" height="30" fill="blue"/></g><g class="yeardata"><circle cx="100" cy="400" r="49.64868335220255" fill="green"/><text x="175" y="400" fill="green">2004</text><text x="220" y="400" fill="green">Barcode---Because I'm Worthless---Christ with Shopping Bags---Di Faced Tenners---Gangsta Rat---Get Out While You Can---I Fought The Law---Love Rat---Napalm---Naplam Girl---Pulp Fiction</text><rect x="250" y="410" width="80" height="30" fill="#FF8B3D"/><rect x="330" y="410" width="8" height="30" fill="blue"/></g><g class="yeardata"><circle cx="100" cy="640" r="27.081100010292303" fill="green"/><text x="175" y="640" fill="green">2007</text><text x="220" y="640" fill="green">Cash Machine Girl---Fallen Angel---Girl with Skipping Rope---Looting Soldier---Space Girl with Bird---Stop and Search</text><rect x="250" y="650" width="0" height="30" fill="#FF8B3D"/><rect x="250" y="650" width="48" height="30" fill="blue"/></g><g class="yeardata"><circle cx="100" cy="560" r="36.1081333470564" fill="green"/><text x="175" y="560" fill="green">2006</text><text x="220" y="560" fill="green">Applause---Festival---Flags---Gangsta Rat---Grannies---Old Skool---Sweep it Under the Carpet---Well, Hung Lover</text><rect x="250" y="570" width="32" height="30" fill="#FF8B3D"/><rect x="282" y="570" width="32" height="30" fill="blue"/></g><g class="yeardata"><circle cx="100" cy="1440" r="4.51351666838205" fill="green"/><text x="175" y="1440" fill="green">2017</text><text x="220" y="1440" fill="green">Civilian Drone STrike</text><rect x="250" y="1450" width="8" height="30" fill="#FF8B3D"/><rect x="258" y="1450" width="0" height="30" fill="blue"/></g><g class="yeardata"><circle cx="100" cy="960" r="31.594616678674353" fill="green"/><text x="175" y="960" fill="green">2011</text><text x="220" y="960" fill="green">Baby Carriage---Child Soldier---Follow your Dreams - Canceled---Take this Society---Tap Phoned---Tox---Toxic Rat</text><rect x="250" y="970" width="0" height="30" fill="#FF8B3D"/><rect x="250" y="970" width="56" height="30" fill="blue"/></g><g class="yeardata"><circle cx="100" cy="960" r="31.594616678674353" fill="green"/><text x="175" y="960" fill="green">2011</text><text x="220" y="960" fill="green">Baby Carriage---Child Soldier---Follow your Dreams - Canceled---Take this Society---Tap Phoned---Tox---Toxic Rat</text><rect x="250" y="970" width="0" height="30" fill="#FF8B3D"/><rect x="250" y="970" width="56" height="30" fill="blue"/></g><g class="yeardata"><circle cx="100" cy="1520" r="36.1081333470564" fill="green"/><text x="175" y="1520" fill="green">2018</text><text x="220" y="1520" fill="green">Blinded Napoleon---Box Cutter Rat---Chisel the Flag---Draw The Raised Bridge---Go Flock Yourself---Rat Couple---Seal Mural---Season's Greetings</text><rect x="250" y="1530" width="0" height="30" fill="#FF8B3D"/><rect x="250" y="1530" width="64" height="30" fill="blue"/></g><g class="yeardata"><circle cx="100" cy="480" r="31.594616678674353" fill="green"/><text x="175" y="480" fill="green">2005</text><text x="220" y="480" fill="green">CND Soldiers---Grim Reaper---Jack &amp; Jill---Kate Moss---Snorting Copper---Soldiers Painting CND Sign---Think Tank</text><rect x="250" y="490" width="32" height="30" fill="#FF8B3D"/><rect x="282" y="490" width="24" height="30" fill="blue"/></g><g class="yeardata"><circle cx="100" cy="880" r="27.081100010292303" fill="green"/><text x="175" y="880" fill="green">2010</text><text x="220" y="880" fill="green">Cameraman and Flower---Choose Your Weapon---Interest in People---No Future---No Trespassing ---Swing Girl</text><rect x="250" y="890" width="8" height="30" fill="#FF8B3D"/><rect x="258" y="890" width="40" height="30" fill="blue"/></g><g class="yeardata"><circle cx="100" cy="800" r="22.56758334191025" fill="green"/><text x="175" y="800" fill="green">2009</text><text x="220" y="800" fill="green">Don't Forget your Scarf---Donuts---Kentucky Fox---No Ball Games---Thug for Life Bunny</text><rect x="250" y="810" width="16" height="30" fill="#FF8B3D"/><rect x="266" y="810" width="24" height="30" fill="blue"/></g><g class="yeardata"><circle cx="100" cy="1520" r="36.1081333470564" fill="green"/><text x="175" y="1520" fill="green">2018</text><text x="220" y="1520" fill="green">Blinded Napoleon---Box Cutter Rat---Chisel the Flag---Draw The Raised Bridge---Go Flock Yourself---Rat Couple---Seal Mural---Season's Greetings</text><rect x="250" y="1530" width="0" height="30" fill="#FF8B3D"/><rect x="250" y="1530" width="64" height="30" fill="blue"/></g><g class="yeardata"><circle cx="100" cy="720" r="27.081100010292303" fill="green"/><text x="175" y="720" fill="green">2008</text><text x="220" y="720" fill="green">Bubble Slide Girl---Gorilla Artist---I Love You---Injured Buddha---NOLA---One Nation Under CCTV</text><rect x="250" y="730" width="8" height="30" fill="#FF8B3D"/><rect x="258" y="730" width="40" height="30" fill="blue"/></g><g class="yeardata"><circle cx="100" cy="1040" r="18.0540666735282" fill="green"/><text x="175" y="1040" fill="green">2012</text><text x="220" y="1040" fill="green">Fridge Kite---Javelin Thrower---Love Hurts---Slave Labour</text><rect x="250" y="1050" width="8" height="30" fill="#FF8B3D"/><rect x="258" y="1050" width="24" height="30" fill="blue"/></g><g class="yeardata"><circle cx="100" cy="0" r="4.51351666838205" fill="green"/><text x="175" y="0" fill="green">1999</text><text x="220" y="0" fill="green">The Mild Mild West</text><rect x="250" y="10" width="0" height="30" fill="#FF8B3D"/><rect x="250" y="10" width="8" height="30" fill="blue"/></g><g class="yeardata"><circle cx="100" cy="400" r="49.64868335220255" fill="green"/><text x="175" y="400" fill="green">2004</text><text x="220" y="400" fill="green">Barcode---Because I'm Worthless---Christ with Shopping Bags---Di Faced Tenners---Gangsta Rat---Get Out While You Can---I Fought The Law---Love Rat---Napalm---Naplam Girl---Pulp Fiction</text><rect x="250" y="410" width="80" height="30" fill="#FF8B3D"/><rect x="330" y="410" width="8" height="30" fill="blue"/></g><g class="yeardata"><circle cx="100" cy="960" r="31.594616678674353" fill="green"/><text x="175" y="960" fill="green">2011</text><text x="220" y="960" fill="green">Baby Carriage---Child Soldier---Follow your Dreams - Canceled---Take this Society---Tap Phoned---Tox---Toxic Rat</text><rect x="250" y="970" width="0" height="30" fill="#FF8B3D"/><rect x="250" y="970" width="56" height="30" fill="blue"/></g><g class="yeardata"><circle cx="100" cy="1040" r="18.0540666735282" fill="green"/><text x="175" y="1040" fill="green">2012</text><text x="220" y="1040" fill="green">Fridge Kite---Javelin Thrower---Love Hurts---Slave Labour</text><rect x="250" y="1050" width="8" height="30" fill="#FF8B3D"/><rect x="258" y="1050" width="24" height="30" fill="blue"/></g><g class="yeardata"><circle cx="100" cy="320" r="58.67571668896666" fill="green"/><text x="175" y="320" fill="green">2003</text><text x="220" y="320" fill="green">Bomb Hugger---Bomb Middle England---Flying Copper---Golf Sale---HMV---Happy Choppers---Ice Cream Bomb---Laugh Now---Love Is In The Air---Monkey Queen---Queen Victoria---Turf War</text><rect x="250" y="330" width="88" height="30" fill="#FF8B3D"/><rect x="338" y="330" width="16" height="30" fill="blue"/></g><g class="yeardata"><circle cx="100" cy="800" r="22.56758334191025" fill="green"/><text x="175" y="800" fill="green">2009</text><text x="220" y="800" fill="green">Don't Forget your Scarf---Donuts---Kentucky Fox---No Ball Games---Thug for Life Bunny</text><rect x="250" y="810" width="16" height="30" fill="#FF8B3D"/><rect x="266" y="810" width="24" height="30" fill="blue"/></g><g class="yeardata"><circle cx="100" cy="720" r="27.081100010292303" fill="green"/><text x="175" y="720" fill="green">2008</text><text x="220" y="720" fill="green">Bubble Slide Girl---Gorilla Artist---I Love You---Injured Buddha---NOLA---One Nation Under CCTV</text><rect x="250" y="730" width="8" height="30" fill="#FF8B3D"/><rect x="258" y="730" width="40" height="30" fill="blue"/></g><g class="yeardata"><circle cx="100" cy="1360" r="4.51351666838205" fill="green"/><text x="175" y="1360" fill="green">2016</text><text x="220" y="1360" fill="green">Burning Tyre</text><rect x="250" y="1370" width="0" height="30" fill="#FF8B3D"/><rect x="250" y="1370" width="8" height="30" fill="blue"/></g><g class="yeardata"><circle cx="100" cy="480" r="31.594616678674353" fill="green"/><text x="175" y="480" fill="green">2005</text><text x="220" y="480" fill="green">CND Soldiers---Grim Reaper---Jack &amp; Jill---Kate Moss---Snorting Copper---Soldiers Painting CND Sign---Think Tank</text><rect x="250" y="490" width="32" height="30" fill="#FF8B3D"/><rect x="282" y="490" width="24" height="30" fill="blue"/></g><g class="yeardata"><circle cx="100" cy="240" r="9.0270333367641" fill="green"/><text x="175" y="240" fill="green">2002</text><text x="220" y="240" fill="green">Choose Your Weapon---Girl with Balloon</text><rect x="250" y="250" width="0" height="30" fill="#FF8B3D"/><rect x="250" y="250" width="16" height="30" fill="blue"/></g><g class="yeardata"><circle cx="100" cy="1520" r="36.1081333470564" fill="green"/><text x="175" y="1520" fill="green">2018</text><text x="220" y="1520" fill="green">Blinded Napoleon---Box Cutter Rat---Chisel the Flag---Draw The Raised Bridge---Go Flock Yourself---Rat Couple---Seal Mural---Season's Greetings</text><rect x="250" y="1530" width="0" height="30" fill="#FF8B3D"/><rect x="250" y="1530" width="64" height="30" fill="blue"/></g><g class="yeardata"><circle cx="100" cy="320" r="58.67571668896666" fill="green"/><text x="175" y="320" fill="green">2003</text><text x="220" y="320" fill="green">Bomb Hugger---Bomb Middle England---Flying Copper---Golf Sale---HMV---Happy Choppers---Ice Cream Bomb---Laugh Now---Love Is In The Air---Monkey Queen---Queen Victoria---Turf War</text><rect x="250" y="330" width="88" height="30" fill="#FF8B3D"/><rect x="338" y="330" width="16" height="30" fill="blue"/></g><g class="yeardata"><circle cx="100" cy="560" r="36.1081333470564" fill="green"/><text x="175" y="560" fill="green">2006</text><text x="220" y="560" fill="green">Applause---Festival---Flags---Gangsta Rat---Grannies---Old Skool---Sweep it Under the Carpet---Well, Hung Lover</text><rect x="250" y="570" width="32" height="30" fill="#FF8B3D"/><rect x="282" y="570" width="32" height="30" fill="blue"/></g><g class="yeardata"><circle cx="100" cy="1280" r="22.56758334191025" fill="green"/><text x="175" y="1280" fill="green">2015</text><text x="220" y="1280" fill="green">Crying Woman---Gaza Kitty---I want change---The Son Of A Migrant From Syria---Watchtower Swing</text><rect x="250" y="1290" width="0" height="30" fill="#FF8B3D"/><rect x="250" y="1290" width="40" height="30" fill="blue"/></g><g class="yeardata"><circle cx="100" cy="1280" r="22.56758334191025" fill="green"/><text x="175" y="1280" fill="green">2015</text><text x="220" y="1280" fill="green">Crying Woman---Gaza Kitty---I want change---The Son Of A Migrant From Syria---Watchtower Swing</text><rect x="250" y="1290" width="0" height="30" fill="#FF8B3D"/><rect x="250" y="1290" width="40" height="30" fill="blue"/></g><g class="yeardata"><circle cx="100" cy="1520" r="36.1081333470564" fill="green"/><text x="175" y="1520" fill="green">2018</text><text x="220" y="1520" fill="green">Blinded Napoleon---Box Cutter Rat---Chisel the Flag---Draw The Raised Bridge---Go Flock Yourself---Rat Couple---Seal Mural---Season's Greetings</text><rect x="250" y="1530" width="0" height="30" fill="#FF8B3D"/><rect x="250" y="1530" width="64" height="30" fill="blue"/></g><g class="yeardata"><circle cx="100" cy="1520" r="36.1081333470564" fill="green"/><text x="175" y="1520" fill="green">2018</text><text x="220" y="1520" fill="green">Blinded Napoleon---Box Cutter Rat---Chisel the Flag---Draw The Raised Bridge---Go Flock Yourself---Rat Couple---Seal Mural---Season's Greetings</text><rect x="250" y="1530" width="0" height="30" fill="#FF8B3D"/><rect x="250" y="1530" width="64" height="30" fill="blue"/></g><g class="yeardata"><circle cx="100" cy="480" r="31.594616678674353" fill="green"/><text x="175" y="480" fill="green">2005</text><text x="220" y="480" fill="green">CND Soldiers---Grim Reaper---Jack &amp; Jill---Kate Moss---Snorting Copper---Soldiers Painting CND Sign---Think Tank</text><rect x="250" y="490" width="32" height="30" fill="#FF8B3D"/><rect x="282" y="490" width="24" height="30" fill="blue"/></g><g class="yeardata"><circle cx="100" cy="1120" r="18.0540666735282" fill="green"/><text x="175" y="1120" fill="green">2013</text><text x="220" y="1120" fill="green">Bronx Zoo---Graffiti Is A Crime---Graffiti is a Crime---Hammer Boy</text><rect x="250" y="1130" width="0" height="30" fill="#FF8B3D"/><rect x="250" y="1130" width="32" height="30" fill="blue"/></g><g class="yeardata"><circle cx="100" cy="1040" r="18.0540666735282" fill="green"/><text x="175" y="1040" fill="green">2012</text><text x="220" y="1040" fill="green">Fridge Kite---Javelin Thrower---Love Hurts---Slave Labour</text><rect x="250" y="1050" width="8" height="30" fill="#FF8B3D"/><rect x="258" y="1050" width="24" height="30" fill="blue"/></g><g class="yeardata"><circle cx="100" cy="720" r="27.081100010292303" fill="green"/><text x="175" y="720" fill="green">2008</text><text x="220" y="720" fill="green">Bubble Slide Girl---Gorilla Artist---I Love You---Injured Buddha---NOLA---One Nation Under CCTV</text><rect x="250" y="730" width="8" height="30" fill="#FF8B3D"/><rect x="258" y="730" width="40" height="30" fill="blue"/></g><g class="yeardata"><circle cx="100" cy="1120" r="18.0540666735282" fill="green"/><text x="175" y="1120" fill="green">2013</text><text x="220" y="1120" fill="green">Bronx Zoo---Graffiti Is A Crime---Graffiti is a Crime---Hammer Boy</text><rect x="250" y="1130" width="0" height="30" fill="#FF8B3D"/><rect x="250" y="1130" width="32" height="30" fill="blue"/></g><g class="yeardata"><circle cx="100" cy="320" r="58.67571668896666" fill="green"/><text x="175" y="320" fill="green">2003</text><text x="220" y="320" fill="green">Bomb Hugger---Bomb Middle England---Flying Copper---Golf Sale---HMV---Happy Choppers---Ice Cream Bomb---Laugh Now---Love Is In The Air---Monkey Queen---Queen Victoria---Turf War</text><rect x="250" y="330" width="88" height="30" fill="#FF8B3D"/><rect x="338" y="330" width="16" height="30" fill="blue"/></g><g class="yeardata"><circle cx="100" cy="720" r="27.081100010292303" fill="green"/><text x="175" y="720" fill="green">2008</text><text x="220" y="720" fill="green">Bubble Slide Girl---Gorilla Artist---I Love You---Injured Buddha---NOLA---One Nation Under CCTV</text><rect x="250" y="730" width="8" height="30" fill="#FF8B3D"/><rect x="258" y="730" width="40" height="30" fill="blue"/></g><g class="yeardata"><circle cx="100" cy="640" r="27.081100010292303" fill="green"/><text x="175" y="640" fill="green">2007</text><text x="220" y="640" fill="green">Cash Machine Girl---Fallen Angel---Girl with Skipping Rope---Looting Soldier---Space Girl with Bird---Stop and Search</text><rect x="250" y="650" width="0" height="30" fill="#FF8B3D"/><rect x="250" y="650" width="48" height="30" fill="blue"/></g><g class="yeardata"><circle cx="100" cy="400" r="49.64868335220255" fill="green"/><text x="175" y="400" fill="green">2004</text><text x="220" y="400" fill="green">Barcode---Because I'm Worthless---Christ with Shopping Bags---Di Faced Tenners---Gangsta Rat---Get Out While You Can---I Fought The Law---Love Rat---Napalm---Naplam Girl---Pulp Fiction</text><rect x="250" y="410" width="80" height="30" fill="#FF8B3D"/><rect x="330" y="410" width="8" height="30" fill="blue"/></g><g class="yeardata"><circle cx="100" cy="640" r="27.081100010292303" fill="green"/><text x="175" y="640" fill="green">2007</text><text x="220" y="640" fill="green">Cash Machine Girl---Fallen Angel---Girl with Skipping Rope---Looting Soldier---Space Girl with Bird---Stop and Search</text><rect x="250" y="650" width="0" height="30" fill="#FF8B3D"/><rect x="250" y="650" width="48" height="30" fill="blue"/></g><g class="yeardata"><circle cx="100" cy="560" r="36.1081333470564" fill="green"/><text x="175" y="560" fill="green">2006</text><text x="220" y="560" fill="green">Applause---Festival---Flags---Gangsta Rat---Grannies---Old Skool---Sweep it Under the Carpet---Well, Hung Lover</text><rect x="250" y="570" width="32" height="30" fill="#FF8B3D"/><rect x="282" y="570" width="32" height="30" fill="blue"/></g><g class="yeardata"><circle cx="100" cy="560" r="36.1081333470564" fill="green"/><text x="175" y="560" fill="green">2006</text><text x="220" y="560" fill="green">Applause---Festival---Flags---Gangsta Rat---Grannies---Old Skool---Sweep it Under the Carpet---Well, Hung Lover</text><rect x="250" y="570" width="32" height="30" fill="#FF8B3D"/><rect x="282" y="570" width="32" height="30" fill="blue"/></g><g class="yeardata"><circle cx="100" cy="320" r="58.67571668896666" fill="green"/><text x="175" y="320" fill="green">2003</text><text x="220" y="320" fill="green">Bomb Hugger---Bomb Middle England---Flying Copper---Golf Sale---HMV---Happy Choppers---Ice Cream Bomb---Laugh Now---Love Is In The Air---Monkey Queen---Queen Victoria---Turf War</text><rect x="250" y="330" width="88" height="30" fill="#FF8B3D"/><rect x="338" y="330" width="16" height="30" fill="blue"/></g><g class="yeardata"><circle cx="100" cy="320" r="58.67571668896666" fill="green"/><text x="175" y="320" fill="green">2003</text><text x="220" y="320" fill="green">Bomb Hugger---Bomb Middle England---Flying Copper---Golf Sale---HMV---Happy Choppers---Ice Cream Bomb---Laugh Now---Love Is In The Air---Monkey Queen---Queen Victoria---Turf War</text><rect x="250" y="330" width="88" height="30" fill="#FF8B3D"/><rect x="338" y="330" width="16" height="30" fill="blue"/></g><g class="yeardata"><circle cx="100" cy="400" r="49.64868335220255" fill="green"/><text x="175" y="400" fill="green">2004</text><text x="220" y="400" fill="green">Barcode---Because I'm Worthless---Christ with Shopping Bags---Di Faced Tenners---Gangsta Rat---Get Out While You Can---I Fought The Law---Love Rat---Napalm---Naplam Girl---Pulp Fiction</text><rect x="250" y="410" width="80" height="30" fill="#FF8B3D"/><rect x="330" y="410" width="8" height="30" fill="blue"/></g><g class="yeardata"><circle cx="100" cy="880" r="27.081100010292303" fill="green"/><text x="175" y="880" fill="green">2010</text><text x="220" y="880" fill="green">Cameraman and Flower---Choose Your Weapon---Interest in People---No Future---No Trespassing ---Swing Girl</text><rect x="250" y="890" width="8" height="30" fill="#FF8B3D"/><rect x="258" y="890" width="40" height="30" fill="blue"/></g><g class="yeardata"><circle cx="100" cy="640" r="27.081100010292303" fill="green"/><text x="175" y="640" fill="green">2007</text><text x="220" y="640" fill="green">Cash Machine Girl---Fallen Angel---Girl with Skipping Rope---Looting Soldier---Space Girl with Bird---Stop and Search</text><rect x="250" y="650" width="0" height="30" fill="#FF8B3D"/><rect x="250" y="650" width="48" height="30" fill="blue"/></g><g class="yeardata"><circle cx="100" cy="1520" r="36.1081333470564" fill="green"/><text x="175" y="1520" fill="green">2018</text><text x="220" y="1520" fill="green">Blinded Napoleon---Box Cutter Rat---Chisel the Flag---Draw The Raised Bridge---Go Flock Yourself---Rat Couple---Seal Mural---Season's Greetings</text><rect x="250" y="1530" width="0" height="30" fill="#FF8B3D"/><rect x="250" y="1530" width="64" height="30" fill="blue"/></g><g class="yeardata"><circle cx="100" cy="400" r="49.64868335220255" fill="green"/><text x="175" y="400" fill="green">2004</text><text x="220" y="400" fill="green">Barcode---Because I'm Worthless---Christ with Shopping Bags---Di Faced Tenners---Gangsta Rat---Get Out While You Can---I Fought The Law---Love Rat---Napalm---Naplam Girl---Pulp Fiction</text><rect x="250" y="410" width="80" height="30" fill="#FF8B3D"/><rect x="330" y="410" width="8" height="30" fill="blue"/></g><g class="yeardata"><circle cx="100" cy="240" r="9.0270333367641" fill="green"/><text x="175" y="240" fill="green">2002</text><text x="220" y="240" fill="green">Choose Your Weapon---Girl with Balloon</text><rect x="250" y="250" width="0" height="30" fill="#FF8B3D"/><rect x="250" y="250" width="16" height="30" fill="blue"/></g><g class="yeardata"><circle cx="100" cy="720" r="27.081100010292303" fill="green"/><text x="175" y="720" fill="green">2008</text><text x="220" y="720" fill="green">Bubble Slide Girl---Gorilla Artist---I Love You---Injured Buddha---NOLA---One Nation Under CCTV</text><rect x="250" y="730" width="8" height="30" fill="#FF8B3D"/><rect x="258" y="730" width="40" height="30" fill="blue"/></g><g class="yeardata"><circle cx="100" cy="320" r="58.67571668896666" fill="green"/><text x="175" y="320" fill="green">2003</text><text x="220" y="320" fill="green">Bomb Hugger---Bomb Middle England---Flying Copper---Golf Sale---HMV---Happy Choppers---Ice Cream Bomb---Laugh Now---Love Is In The Air---Monkey Queen---Queen Victoria---Turf War</text><rect x="250" y="330" width="88" height="30" fill="#FF8B3D"/><rect x="338" y="330" width="16" height="30" fill="blue"/></g><g class="yeardata"><circle cx="100" cy="1040" r="18.0540666735282" fill="green"/><text x="175" y="1040" fill="green">2012</text><text x="220" y="1040" fill="green">Fridge Kite---Javelin Thrower---Love Hurts---Slave Labour</text><rect x="250" y="1050" width="8" height="30" fill="#FF8B3D"/><rect x="258" y="1050" width="24" height="30" fill="blue"/></g><g class="yeardata"><circle cx="100" cy="320" r="58.67571668896666" fill="green"/><text x="175" y="320" fill="green">2003</text><text x="220" y="320" fill="green">Bomb Hugger---Bomb Middle England---Flying Copper---Golf Sale---HMV---Happy Choppers---Ice Cream Bomb---Laugh Now---Love Is In The Air---Monkey Queen---Queen Victoria---Turf War</text><rect x="250" y="330" width="88" height="30" fill="#FF8B3D"/><rect x="338" y="330" width="16" height="30" fill="blue"/></g><g class="yeardata"><circle cx="100" cy="1520" r="36.1081333470564" fill="green"/><text x="175" y="1520" fill="green">2018</text><text x="220" y="1520" fill="green">Blinded Napoleon---Box Cutter Rat---Chisel the Flag---Draw The Raised Bridge---Go Flock Yourself---Rat Couple---Seal Mural---Season's Greetings</text><rect x="250" y="1530" width="0" height="30" fill="#FF8B3D"/><rect x="250" y="1530" width="64" height="30" fill="blue"/></g><g class="yeardata"><circle cx="100" cy="1200" r="13.540550005146152" fill="green"/><text x="175" y="1200" fill="green">2014</text><text x="220" y="1200" fill="green">Drunk Angel---Dumbo---Love is the Answer</text><rect x="250" y="1210" width="8" height="30" fill="#FF8B3D"/><rect x="258" y="1210" width="16" height="30" fill="blue"/></g><g class="yeardata"><circle cx="100" cy="160" r="4.51351666838205" fill="green"/><text x="175" y="160" fill="green">2001</text><text x="220" y="160" fill="green">Love Is In The Air (CCCP)</text><rect x="250" y="170" width="8" height="30" fill="#FF8B3D"/><rect x="258" y="170" width="0" height="30" fill="blue"/></g><g class="yeardata"><circle cx="100" cy="800" r="22.56758334191025" fill="green"/><text x="175" y="800" fill="green">2009</text><text x="220" y="800" fill="green">Don't Forget your Scarf---Donuts---Kentucky Fox---No Ball Games---Thug for Life Bunny</text><rect x="250" y="810" width="16" height="30" fill="#FF8B3D"/><rect x="266" y="810" width="24" height="30" fill="blue"/></g><g class="yeardata"><circle cx="100" cy="1200" r="13.540550005146152" fill="green"/><text x="175" y="1200" fill="green">2014</text><text x="220" y="1200" fill="green">Drunk Angel---Dumbo---Love is the Answer</text><rect x="250" y="1210" width="8" height="30" fill="#FF8B3D"/><rect x="258" y="1210" width="16" height="30" fill="blue"/></g><g class="yeardata"><circle cx="100" cy="320" r="58.67571668896666" fill="green"/><text x="175" y="320" fill="green">2003</text><text x="220" y="320" fill="green">Bomb Hugger---Bomb Middle England---Flying Copper---Golf Sale---HMV---Happy Choppers---Ice Cream Bomb---Laugh Now---Love Is In The Air---Monkey Queen---Queen Victoria---Turf War</text><rect x="250" y="330" width="88" height="30" fill="#FF8B3D"/><rect x="338" y="330" width="16" height="30" fill="blue"/></g><g class="yeardata"><circle cx="100" cy="1280" r="22.56758334191025" fill="green"/><text x="175" y="1280" fill="green">2015</text><text x="220" y="1280" fill="green">Crying Woman---Gaza Kitty---I want change---The Son Of A Migrant From Syria---Watchtower Swing</text><rect x="250" y="1290" width="0" height="30" fill="#FF8B3D"/><rect x="250" y="1290" width="40" height="30" fill="blue"/></g><g class="yeardata"><circle cx="100" cy="960" r="31.594616678674353" fill="green"/><text x="175" y="960" fill="green">2011</text><text x="220" y="960" fill="green">Baby Carriage---Child Soldier---Follow your Dreams - Canceled---Take this Society---Tap Phoned---Tox---Toxic Rat</text><rect x="250" y="970" width="0" height="30" fill="#FF8B3D"/><rect x="250" y="970" width="56" height="30" fill="blue"/></g><g class="yeardata"><circle cx="100" cy="400" r="49.64868335220255" fill="green"/><text x="175" y="400" fill="green">2004</text><text x="220" y="400" fill="green">Barcode---Because I'm Worthless---Christ with Shopping Bags---Di Faced Tenners---Gangsta Rat---Get Out While You Can---I Fought The Law---Love Rat---Napalm---Naplam Girl---Pulp Fiction</text><rect x="250" y="410" width="80" height="30" fill="#FF8B3D"/><rect x="330" y="410" width="8" height="30" fill="blue"/></g><g class="yeardata"><circle cx="100" cy="1200" r="13.540550005146152" fill="green"/><text x="175" y="1200" fill="green">2014</text><text x="220" y="1200" fill="green">Drunk Angel---Dumbo---Love is the Answer</text><rect x="250" y="1210" width="8" height="30" fill="#FF8B3D"/><rect x="258" y="1210" width="16" height="30" fill="blue"/></g><g class="yeardata"><circle cx="100" cy="880" r="27.081100010292303" fill="green"/><text x="175" y="880" fill="green">2010</text><text x="220" y="880" fill="green">Cameraman and Flower---Choose Your Weapon---Interest in People---No Future---No Trespassing ---Swing Girl</text><rect x="250" y="890" width="8" height="30" fill="#FF8B3D"/><rect x="258" y="890" width="40" height="30" fill="blue"/></g><g class="yeardata"><circle cx="100" cy="560" r="36.1081333470564" fill="green"/><text x="175" y="560" fill="green">2006</text><text x="220" y="560" fill="green">Applause---Festival---Flags---Gangsta Rat---Grannies---Old Skool---Sweep it Under the Carpet---Well, Hung Lover</text><rect x="250" y="570" width="32" height="30" fill="#FF8B3D"/><rect x="282" y="570" width="32" height="30" fill="blue"/></g><g class="yeardata"><circle cx="100" cy="720" r="27.081100010292303" fill="green"/><text x="175" y="720" fill="green">2008</text><text x="220" y="720" fill="green">Bubble Slide Girl---Gorilla Artist---I Love You---Injured Buddha---NOLA---One Nation Under CCTV</text><rect x="250" y="730" width="8" height="30" fill="#FF8B3D"/><rect x="258" y="730" width="40" height="30" fill="blue"/></g><g class="yeardata"><circle cx="100" cy="1280" r="22.56758334191025" fill="green"/><text x="175" y="1280" fill="green">2015</text><text x="220" y="1280" fill="green">Crying Woman---Gaza Kitty---I want change---The Son Of A Migrant From Syria---Watchtower Swing</text><rect x="250" y="1290" width="0" height="30" fill="#FF8B3D"/><rect x="250" y="1290" width="40" height="30" fill="blue"/></g><g class="yeardata"><circle cx="100" cy="400" r="49.64868335220255" fill="green"/><text x="175" y="400" fill="green">2004</text><text x="220" y="400" fill="green">Barcode---Because I'm Worthless---Christ with Shopping Bags---Di Faced Tenners---Gangsta Rat---Get Out While You Can---I Fought The Law---Love Rat---Napalm---Naplam Girl---Pulp Fiction</text><rect x="250" y="410" width="80" height="30" fill="#FF8B3D"/><rect x="330" y="410" width="8" height="30" fill="blue"/></g><g class="yeardata"><circle cx="100" cy="1520" r="36.1081333470564" fill="green"/><text x="175" y="1520" fill="green">2018</text><text x="220" y="1520" fill="green">Blinded Napoleon---Box Cutter Rat---Chisel the Flag---Draw The Raised Bridge---Go Flock Yourself---Rat Couple---Seal Mural---Season's Greetings</text><rect x="250" y="1530" width="0" height="30" fill="#FF8B3D"/><rect x="250" y="1530" width="64" height="30" fill="blue"/></g><g class="yeardata"><circle cx="100" cy="480" r="31.594616678674353" fill="green"/><text x="175" y="480" fill="green">2005</text><text x="220" y="480" fill="green">CND Soldiers---Grim Reaper---Jack &amp; Jill---Kate Moss---Snorting Copper---Soldiers Painting CND Sign---Think Tank</text><rect x="250" y="490" width="32" height="30" fill="#FF8B3D"/><rect x="282" y="490" width="24" height="30" fill="blue"/></g><g class="yeardata"><circle cx="100" cy="640" r="27.081100010292303" fill="green"/><text x="175" y="640" fill="green">2007</text><text x="220" y="640" fill="green">Cash Machine Girl---Fallen Angel---Girl with Skipping Rope---Looting Soldier---Space Girl with Bird---Stop and Search</text><rect x="250" y="650" width="0" height="30" fill="#FF8B3D"/><rect x="250" y="650" width="48" height="30" fill="blue"/></g><g class="yeardata"><circle cx="100" cy="560" r="36.1081333470564" fill="green"/><text x="175" y="560" fill="green">2006</text><text x="220" y="560" fill="green">Applause---Festival---Flags---Gangsta Rat---Grannies---Old Skool---Sweep it Under the Carpet---Well, Hung Lover</text><rect x="250" y="570" width="32" height="30" fill="#FF8B3D"/><rect x="282" y="570" width="32" height="30" fill="blue"/></g><g class="yeardata"><circle cx="100" cy="1120" r="18.0540666735282" fill="green"/><text x="175" y="1120" fill="green">2013</text><text x="220" y="1120" fill="green">Bronx Zoo---Graffiti Is A Crime---Graffiti is a Crime---Hammer Boy</text><rect x="250" y="1130" width="0" height="30" fill="#FF8B3D"/><rect x="250" y="1130" width="32" height="30" fill="blue"/></g><g class="yeardata"><circle cx="100" cy="400" r="49.64868335220255" fill="green"/><text x="175" y="400" fill="green">2004</text><text x="220" y="400" fill="green">Barcode---Because I'm Worthless---Christ with Shopping Bags---Di Faced Tenners---Gangsta Rat---Get Out While You Can---I Fought The Law---Love Rat---Napalm---Naplam Girl---Pulp Fiction</text><rect x="250" y="410" width="80" height="30" fill="#FF8B3D"/><rect x="330" y="410" width="8" height="30" fill="blue"/></g><g class="yeardata"><circle cx="100" cy="560" r="36.1081333470564" fill="green"/><text x="175" y="560" fill="green">2006</text><text x="220" y="560" fill="green">Applause---Festival---Flags---Gangsta Rat---Grannies---Old Skool---Sweep it Under the Carpet---Well, Hung Lover</text><rect x="250" y="570" width="32" height="30" fill="#FF8B3D"/><rect x="282" y="570" width="32" height="30" fill="blue"/></g><g class="yeardata"><circle cx="100" cy="1280" r="22.56758334191025" fill="green"/><text x="175" y="1280" fill="green">2015</text><text x="220" y="1280" fill="green">Crying Woman---Gaza Kitty---I want change---The Son Of A Migrant From Syria---Watchtower Swing</text><rect x="250" y="1290" width="0" height="30" fill="#FF8B3D"/><rect x="250" y="1290" width="40" height="30" fill="blue"/></g><g class="yeardata"><circle cx="100" cy="1120" r="18.0540666735282" fill="green"/><text x="175" y="1120" fill="green">2013</text><text x="220" y="1120" fill="green">Bronx Zoo---Graffiti Is A Crime---Graffiti is a Crime---Hammer Boy</text><rect x="250" y="1130" width="0" height="30" fill="#FF8B3D"/><rect x="250" y="1130" width="32" height="30" fill="blue"/></g><g class="yeardata"><circle cx="100" cy="560" r="36.1081333470564" fill="green"/><text x="175" y="560" fill="green">2006</text><text x="220" y="560" fill="green">Applause---Festival---Flags---Gangsta Rat---Grannies---Old Skool---Sweep it Under the Carpet---Well, Hung Lover</text><rect x="250" y="570" width="32" height="30" fill="#FF8B3D"/><rect x="282" y="570" width="32" height="30" fill="blue"/></g><g class="yeardata"><circle cx="100" cy="400" r="49.64868335220255" fill="green"/><text x="175" y="400" fill="green">2004</text><text x="220" y="400" fill="green">Barcode---Because I'm Worthless---Christ with Shopping Bags---Di Faced Tenners---Gangsta Rat---Get Out While You Can---I Fought The Law---Love Rat---Napalm---Naplam Girl---Pulp Fiction</text><rect x="250" y="410" width="80" height="30" fill="#FF8B3D"/><rect x="330" y="410" width="8" height="30" fill="blue"/></g><g class="yeardata"><circle cx="100" cy="800" r="22.56758334191025" fill="green"/><text x="175" y="800" fill="green">2009</text><text x="220" y="800" fill="green">Don't Forget your Scarf---Donuts---Kentucky Fox---No Ball Games---Thug for Life Bunny</text><rect x="250" y="810" width="16" height="30" fill="#FF8B3D"/><rect x="266" y="810" width="24" height="30" fill="blue"/></g><g class="yeardata"><circle cx="100" cy="400" r="49.64868335220255" fill="green"/><text x="175" y="400" fill="green">2004</text><text x="220" y="400" fill="green">Barcode---Because I'm Worthless---Christ with Shopping Bags---Di Faced Tenners---Gangsta Rat---Get Out While You Can---I Fought The Law---Love Rat---Napalm---Naplam Girl---Pulp Fiction</text><rect x="250" y="410" width="80" height="30" fill="#FF8B3D"/><rect x="330" y="410" width="8" height="30" fill="blue"/></g><g class="yeardata"><circle cx="100" cy="480" r="31.594616678674353" fill="green"/><text x="175" y="480" fill="green">2005</text><text x="220" y="480" fill="green">CND Soldiers---Grim Reaper---Jack &amp; Jill---Kate Moss---Snorting Copper---Soldiers Painting CND Sign---Think Tank</text><rect x="250" y="490" width="32" height="30" fill="#FF8B3D"/><rect x="282" y="490" width="24" height="30" fill="blue"/></g><g class="yeardata"><circle cx="100" cy="480" r="31.594616678674353" fill="green"/><text x="175" y="480" fill="green">2005</text><text x="220" y="480" fill="green">CND Soldiers---Grim Reaper---Jack &amp; Jill---Kate Moss---Snorting Copper---Soldiers Painting CND Sign---Think Tank</text><rect x="250" y="490" width="32" height="30" fill="#FF8B3D"/><rect x="282" y="490" width="24" height="30" fill="blue"/></g><g class="yeardata"><circle cx="100" cy="400" r="49.64868335220255" fill="green"/><text x="175" y="400" fill="green">2004</text><text x="220" y="400" fill="green">Barcode---Because I'm Worthless---Christ with Shopping Bags---Di Faced Tenners---Gangsta Rat---Get Out While You Can---I Fought The Law---Love Rat---Napalm---Naplam Girl---Pulp Fiction</text><rect x="250" y="410" width="80" height="30" fill="#FF8B3D"/><rect x="330" y="410" width="8" height="30" fill="blue"/></g><g class="yeardata"><circle cx="100" cy="320" r="58.67571668896666" fill="green"/><text x="175" y="320" fill="green">2003</text><text x="220" y="320" fill="green">Bomb Hugger---Bomb Middle England---Flying Copper---Golf Sale---HMV---Happy Choppers---Ice Cream Bomb---Laugh Now---Love Is In The Air---Monkey Queen---Queen Victoria---Turf War</text><rect x="250" y="330" width="88" height="30" fill="#FF8B3D"/><rect x="338" y="330" width="16" height="30" fill="blue"/></g><g class="yeardata"><circle cx="100" cy="320" r="58.67571668896666" fill="green"/><text x="175" y="320" fill="green">2003</text><text x="220" y="320" fill="green">Bomb Hugger---Bomb Middle England---Flying Copper---Golf Sale---HMV---Happy Choppers---Ice Cream Bomb---Laugh Now---Love Is In The Air---Monkey Queen---Queen Victoria---Turf War</text><rect x="250" y="330" width="88" height="30" fill="#FF8B3D"/><rect x="338" y="330" width="16" height="30" fill="blue"/></g></g></svg>