<?xml version="1.0" encoding="UTF-8"?>
<svg width="2000" height="3000"><g transform="translate(30, 30)"><line x1="100" y1="0" x2="100" y2="675" stroke="brown" stroke-width="3"/><g class="artTimelineData"><rect x="90" y="0" width="20" height="20" fill="green"/><text x="140" y="0" fill="black">2002</text><text x="180" y="0" fill="black">Greener Behrend Task Force tackles campus ecological issues</text>Greener Behrend Task Force tackles campus ecological issues</g><g class="artTimelineData"><rect x="90" y="135" width="20" height="20" fill="green"/><text x="140" y="135" fill="black">2003</text><text x="180" y="135" fill="black">Behrend Declared Arboretum, Behrend dedicated as arboretum</text>Behrend Declared Arboretum, Behrend dedicated as arboretum</g><g class="artTimelineData"><rect x="90" y="270" width="20" height="20" fill="green"/><text x="140" y="270" fill="black">2004</text><text x="180" y="270" fill="black">Greener Behrend Task Force preaches sustainability, Aboretum beautifies Behrend</text>Greener Behrend Task Force preaches sustainability, Aboretum beautifies Behrend</g><g class="artTimelineData"><rect x="90" y="270" width="20" height="20" fill="green"/><text x="140" y="270" fill="black">2004</text><text x="180" y="270" fill="black"/></g><g class="artTimelineData"><rect x="90" y="405" width="20" height="20" fill="green"/><text x="140" y="405" fill="black">2005</text><text x="180" y="405" fill="black">Campus foliage overlooked</text>Campus foliage overlooked</g><g class="artTimelineData"><rect x="90" y="675" width="20" height="20" fill="green"/><text x="140" y="675" fill="black">2007</text><text x="180" y="675" fill="black">Task force works towards a greener Behrend</text>Task force works towards a greener Behrend</g><g class="artTimelineData"><rect x="90" y="135" width="20" height="20" fill="green"/><text x="140" y="135" fill="black">2003</text><text x="180" y="135" fill="black">Behrend Declared Arboretum, Behrend dedicated as arboretum</text>Behrend Declared Arboretum, Behrend dedicated as arboretum</g></g></svg>