<svg xmlns="http://www.w3.org/2000/svg" viewBox="0 0 3000 2000"><!--2021-03-24 ebb: Danny, you were using the width="100%" and height="100%" attributes, which effectively cut off your plot so the text isn't visible.
When the numbers for x and y get into the thousands, we'll typically switch to using the viewBox attribute, which I'm setting in place here.
To save your output to the database, we'll use some variables very similar to what we do with saving output HTML. I'll add them here so you can see them and continue working with them in other contexts. These involve using a global variable with the syntax "declare variable $X := something ;  " to wrap the whole output file, and then a set of variables at the end that write the file to a location you set in the eXist-dB. Note that global variables MUST end with a semicolon (that's how they're different from FLWOR variables.) So $thisFileContent ends at the end of the SVG document we're making.  
--><g transform="translate(25,200)"><g><circle cx="65" cy="100" r="24" stroke="black" stroke-width="3" fill="green"/><text x="65" y="150" style="writing-mode: tb; glyph-orientation-vertical:0">intro</text><circle cx="65" cy="100" r="11" stroke="black" stroke-width="1" fill="blue"/></g><g><circle cx="130" cy="100" r="15" stroke="black" stroke-width="3" fill="green"/><text x="130" y="150" style="writing-mode: tb; glyph-orientation-vertical:0">Another Day, Another Drachma</text><circle cx="130" cy="100" r="12" stroke="black" stroke-width="1" fill="blue"/></g><g><circle cx="195" cy="100" r="33" stroke="black" stroke-width="3" fill="green"/><text x="195" y="150" style="writing-mode: tb; glyph-orientation-vertical:0">A Debt to Pay</text><circle cx="195" cy="100" r="14" stroke="black" stroke-width="1" fill="blue"/></g><g><circle cx="260" cy="100" r="29" stroke="black" stroke-width="3" fill="green"/><text x="260" y="150" style="writing-mode: tb; glyph-orientation-vertical:0">The Wolf Hunt</text><circle cx="260" cy="100" r="16" stroke="black" stroke-width="1" fill="blue"/></g><g><circle cx="325" cy="100" r="3" stroke="black" stroke-width="3" fill="green"/><text x="325" y="150" style="writing-mode: tb; glyph-orientation-vertical:0">The Wolf and Snake</text><circle cx="325" cy="100" r="3" stroke="black" stroke-width="1" fill="blue"/></g><g><circle cx="390" cy="100" r="9" stroke="black" stroke-width="3" fill="green"/><text x="390" y="150" style="writing-mode: tb; glyph-orientation-vertical:0">Of Visions and Visionaries</text><circle cx="390" cy="100" r="6" stroke="black" stroke-width="1" fill="blue"/></g><g><circle cx="455" cy="100" r="18" stroke="black" stroke-width="3" fill="green"/><text x="455" y="150" style="writing-mode: tb; glyph-orientation-vertical:0">Beware the Snakes</text><circle cx="455" cy="100" r="6" stroke="black" stroke-width="1" fill="blue"/></g><g><circle cx="520" cy="100" r="12" stroke="black" stroke-width="3" fill="green"/><text x="520" y="150" style="writing-mode: tb; glyph-orientation-vertical:0">An Old Enemy and a New Ally</text><circle cx="520" cy="100" r="12" stroke="black" stroke-width="1" fill="blue"/></g><g><circle cx="585" cy="100" r="34" stroke="black" stroke-width="3" fill="green"/><text x="585" y="150" style="writing-mode: tb; glyph-orientation-vertical:0">The Road to the Symposium</text><circle cx="585" cy="100" r="23" stroke="black" stroke-width="1" fill="blue"/></g><g><circle cx="650" cy="100" r="28" stroke="black" stroke-width="3" fill="green"/><text x="650" y="150" style="writing-mode: tb; glyph-orientation-vertical:0">Land of the Lawless</text><circle cx="650" cy="100" r="11" stroke="black" stroke-width="1" fill="blue"/></g><g><circle cx="715" cy="100" r="32" stroke="black" stroke-width="3" fill="green"/><text x="715" y="150" style="writing-mode: tb; glyph-orientation-vertical:0">A Prescription for Discovery</text><circle cx="715" cy="100" r="16" stroke="black" stroke-width="1" fill="blue"/></g><g><circle cx="780" cy="100" r="5" stroke="black" stroke-width="3" fill="green"/><text x="780" y="150" style="writing-mode: tb; glyph-orientation-vertical:0">Pirate Hospitality</text><circle cx="780" cy="100" r="5" stroke="black" stroke-width="1" fill="blue"/></g><g><circle cx="845" cy="100" r="18" stroke="black" stroke-width="3" fill="green"/><text x="845" y="150" style="writing-mode: tb; glyph-orientation-vertical:0">Rising from the Ashes</text><circle cx="845" cy="100" r="10" stroke="black" stroke-width="1" fill="blue"/></g><g><circle cx="910" cy="100" r="4" stroke="black" stroke-width="3" fill="green"/><text x="910" y="150" style="writing-mode: tb; glyph-orientation-vertical:0">The Reunion</text><circle cx="910" cy="100" r="5" stroke="black" stroke-width="1" fill="blue"/></g><g><circle cx="975" cy="100" r="22" stroke="black" stroke-width="3" fill="green"/><text x="975" y="150" style="writing-mode: tb; glyph-orientation-vertical:0">Paradise Lost</text><circle cx="975" cy="100" r="13" stroke="black" stroke-width="1" fill="blue"/></g><g><circle cx="1040" cy="100" r="6" stroke="black" stroke-width="3" fill="green"/><text x="1040" y="150" style="writing-mode: tb; glyph-orientation-vertical:0">The Last Riddle</text><circle cx="1040" cy="100" r="5" stroke="black" stroke-width="1" fill="blue"/></g><g><circle cx="1105" cy="100" r="40" stroke="black" stroke-width="3" fill="green"/><text x="1105" y="150" style="writing-mode: tb; glyph-orientation-vertical:0">A Place of Twists and Turns</text><circle cx="1105" cy="100" r="12" stroke="black" stroke-width="1" fill="blue"/></g><g><circle cx="1170" cy="100" r="16" stroke="black" stroke-width="3" fill="green"/><text x="1170" y="150" style="writing-mode: tb; glyph-orientation-vertical:0">Home Is Where My Mother Is</text><circle cx="1170" cy="100" r="11" stroke="black" stroke-width="1" fill="blue"/></g><g><circle cx="1235" cy="100" r="27" stroke="black" stroke-width="3" fill="green"/><text x="1235" y="150" style="writing-mode: tb; glyph-orientation-vertical:0">The Olympian</text><circle cx="1235" cy="100" r="15" stroke="black" stroke-width="1" fill="blue"/></g><g><circle cx="1300" cy="100" r="13" stroke="black" stroke-width="3" fill="green"/><text x="1300" y="150" style="writing-mode: tb; glyph-orientation-vertical:0">The Cult and the Archon</text><circle cx="1300" cy="100" r="11" stroke="black" stroke-width="1" fill="blue"/></g><g><circle cx="1365" cy="100" r="9" stroke="black" stroke-width="3" fill="green"/><text x="1365" y="150" style="writing-mode: tb; glyph-orientation-vertical:0">Paint It Red</text><circle cx="1365" cy="100" r="4" stroke="black" stroke-width="1" fill="blue"/></g><g><circle cx="1430" cy="100" r="13" stroke="black" stroke-width="3" fill="green"/><text x="1430" y="150" style="writing-mode: tb; glyph-orientation-vertical:0">The Cultist King</text><circle cx="1430" cy="100" r="9" stroke="black" stroke-width="1" fill="blue"/></g><g><circle cx="1495" cy="100" r="4" stroke="black" stroke-width="3" fill="green"/><text x="1495" y="150" style="writing-mode: tb; glyph-orientation-vertical:0">Uprising</text><circle cx="1495" cy="100" r="7" stroke="black" stroke-width="1" fill="blue"/></g><g><circle cx="1560" cy="100" r="12" stroke="black" stroke-width="3" fill="green"/><text x="1560" y="150" style="writing-mode: tb; glyph-orientation-vertical:0">Public Opinion</text><circle cx="1560" cy="100" r="10" stroke="black" stroke-width="1" fill="blue"/></g><g><circle cx="1625" cy="100" r="8" stroke="black" stroke-width="3" fill="green"/><text x="1625" y="150" style="writing-mode: tb; glyph-orientation-vertical:0">Battle of Amphipolis</text><circle cx="1625" cy="100" r="4" stroke="black" stroke-width="1" fill="blue"/></g><g><circle cx="1690" cy="100" r="8" stroke="black" stroke-width="3" fill="green"/><text x="1690" y="150" style="writing-mode: tb; glyph-orientation-vertical:0">Homecoming</text><circle cx="1690" cy="100" r="6" stroke="black" stroke-width="1" fill="blue"/></g><g><circle cx="1755" cy="100" r="4" stroke="black" stroke-width="3" fill="green"/><text x="1755" y="150" style="writing-mode: tb; glyph-orientation-vertical:0">From the Shadows</text><circle cx="1755" cy="100" r="4" stroke="black" stroke-width="1" fill="blue"/></g><g><circle cx="1820" cy="100" r="19" stroke="black" stroke-width="3" fill="green"/><text x="1820" y="150" style="writing-mode: tb; glyph-orientation-vertical:0">Shadows of Serpents</text><circle cx="1820" cy="100" r="5" stroke="black" stroke-width="1" fill="blue"/></g><g><circle cx="1885" cy="100" r="9" stroke="black" stroke-width="3" fill="green"/><text x="1885" y="150" style="writing-mode: tb; glyph-orientation-vertical:0">The Gates of Atlantis</text><circle cx="1885" cy="100" r="9" stroke="black" stroke-width="1" fill="blue"/></g></g></svg>