<?xml version="1.0" encoding="UTF-8"?>
<svg xmlns="http://www.w3.org/2000/svg" width="3000" height="1000"><g transform="translate(25, 200)"><g><circle cx="65" cy="100" r="24" stroke="black" stroke-width="2" fill="blue"/><text x="65" y="150" style="writing-mode: tb; glyph-orientation-horizontal:0">intro</text><circle cx="65" cy="80" r="11" stroke="black" stroke-width="2" fill="green"/></g><g><circle cx="130" cy="100" r="15" stroke="black" stroke-width="2" fill="blue"/><text x="130" y="150" style="writing-mode: tb; glyph-orientation-horizontal:0">Another Day, Another Drachma</text><circle cx="130" cy="80" r="12" stroke="black" stroke-width="2" fill="green"/></g><g><circle cx="195" cy="100" r="33" stroke="black" stroke-width="2" fill="blue"/><text x="195" y="150" style="writing-mode: tb; glyph-orientation-horizontal:0">A Debt to Pay</text><circle cx="195" cy="80" r="14" stroke="black" stroke-width="2" fill="green"/></g><g><circle cx="260" cy="100" r="29" stroke="black" stroke-width="2" fill="blue"/><text x="260" y="150" style="writing-mode: tb; glyph-orientation-horizontal:0">The Wolf Hunt</text><circle cx="260" cy="80" r="16" stroke="black" stroke-width="2" fill="green"/></g><g><circle cx="325" cy="100" r="3" stroke="black" stroke-width="2" fill="blue"/><text x="325" y="150" style="writing-mode: tb; glyph-orientation-horizontal:0">The Wolf and Snake</text><circle cx="325" cy="80" r="3" stroke="black" stroke-width="2" fill="green"/></g><g><circle cx="390" cy="100" r="9" stroke="black" stroke-width="2" fill="blue"/><text x="390" y="150" style="writing-mode: tb; glyph-orientation-horizontal:0">Of Visions and Visionaries</text><circle cx="390" cy="80" r="6" stroke="black" stroke-width="2" fill="green"/></g><g><circle cx="455" cy="100" r="18" stroke="black" stroke-width="2" fill="blue"/><text x="455" y="150" style="writing-mode: tb; glyph-orientation-horizontal:0">Beware the Snakes</text><circle cx="455" cy="80" r="6" stroke="black" stroke-width="2" fill="green"/></g><g><circle cx="520" cy="100" r="12" stroke="black" stroke-width="2" fill="blue"/><text x="520" y="150" style="writing-mode: tb; glyph-orientation-horizontal:0">An Old Enemy and a New Ally</text><circle cx="520" cy="80" r="12" stroke="black" stroke-width="2" fill="green"/></g><g><circle cx="585" cy="100" r="34" stroke="black" stroke-width="2" fill="blue"/><text x="585" y="150" style="writing-mode: tb; glyph-orientation-horizontal:0">The Road to the Symposium</text><circle cx="585" cy="80" r="23" stroke="black" stroke-width="2" fill="green"/></g><g><circle cx="650" cy="100" r="28" stroke="black" stroke-width="2" fill="blue"/><text x="650" y="150" style="writing-mode: tb; glyph-orientation-horizontal:0">Land of the Lawless</text><circle cx="650" cy="80" r="11" stroke="black" stroke-width="2" fill="green"/></g><g><circle cx="715" cy="100" r="32" stroke="black" stroke-width="2" fill="blue"/><text x="715" y="150" style="writing-mode: tb; glyph-orientation-horizontal:0">A Prescription for Discovery</text><circle cx="715" cy="80" r="16" stroke="black" stroke-width="2" fill="green"/></g><g><circle cx="780" cy="100" r="5" stroke="black" stroke-width="2" fill="blue"/><text x="780" y="150" style="writing-mode: tb; glyph-orientation-horizontal:0">Pirate Hospitality</text><circle cx="780" cy="80" r="5" stroke="black" stroke-width="2" fill="green"/></g><g><circle cx="845" cy="100" r="18" stroke="black" stroke-width="2" fill="blue"/><text x="845" y="150" style="writing-mode: tb; glyph-orientation-horizontal:0">Rising from the Ashes</text><circle cx="845" cy="80" r="10" stroke="black" stroke-width="2" fill="green"/></g><g><circle cx="910" cy="100" r="4" stroke="black" stroke-width="2" fill="blue"/><text x="910" y="150" style="writing-mode: tb; glyph-orientation-horizontal:0">The Reunion</text><circle cx="910" cy="80" r="5" stroke="black" stroke-width="2" fill="green"/></g><g><circle cx="975" cy="100" r="22" stroke="black" stroke-width="2" fill="blue"/><text x="975" y="150" style="writing-mode: tb; glyph-orientation-horizontal:0">Paradise Lost</text><circle cx="975" cy="80" r="13" stroke="black" stroke-width="2" fill="green"/></g><g><circle cx="1040" cy="100" r="6" stroke="black" stroke-width="2" fill="blue"/><text x="1040" y="150" style="writing-mode: tb; glyph-orientation-horizontal:0">The Last Riddle</text><circle cx="1040" cy="80" r="5" stroke="black" stroke-width="2" fill="green"/></g><g><circle cx="1105" cy="100" r="40" stroke="black" stroke-width="2" fill="blue"/><text x="1105" y="150" style="writing-mode: tb; glyph-orientation-horizontal:0">A Place of Twists and Turns</text><circle cx="1105" cy="80" r="12" stroke="black" stroke-width="2" fill="green"/></g><g><circle cx="1170" cy="100" r="16" stroke="black" stroke-width="2" fill="blue"/><text x="1170" y="150" style="writing-mode: tb; glyph-orientation-horizontal:0">Home Is Where My Mother Is</text><circle cx="1170" cy="80" r="11" stroke="black" stroke-width="2" fill="green"/></g><g><circle cx="1235" cy="100" r="27" stroke="black" stroke-width="2" fill="blue"/><text x="1235" y="150" style="writing-mode: tb; glyph-orientation-horizontal:0">The Olympian</text><circle cx="1235" cy="80" r="15" stroke="black" stroke-width="2" fill="green"/></g><g><circle cx="1300" cy="100" r="13" stroke="black" stroke-width="2" fill="blue"/><text x="1300" y="150" style="writing-mode: tb; glyph-orientation-horizontal:0">The Cult and the Archon</text><circle cx="1300" cy="80" r="11" stroke="black" stroke-width="2" fill="green"/></g><g><circle cx="1365" cy="100" r="9" stroke="black" stroke-width="2" fill="blue"/><text x="1365" y="150" style="writing-mode: tb; glyph-orientation-horizontal:0">Paint It Red</text><circle cx="1365" cy="80" r="4" stroke="black" stroke-width="2" fill="green"/></g><g><circle cx="1430" cy="100" r="13" stroke="black" stroke-width="2" fill="blue"/><text x="1430" y="150" style="writing-mode: tb; glyph-orientation-horizontal:0">The Cultist King</text><circle cx="1430" cy="80" r="9" stroke="black" stroke-width="2" fill="green"/></g><g><circle cx="1495" cy="100" r="4" stroke="black" stroke-width="2" fill="blue"/><text x="1495" y="150" style="writing-mode: tb; glyph-orientation-horizontal:0">Uprising</text><circle cx="1495" cy="80" r="7" stroke="black" stroke-width="2" fill="green"/></g><g><circle cx="1560" cy="100" r="12" stroke="black" stroke-width="2" fill="blue"/><text x="1560" y="150" style="writing-mode: tb; glyph-orientation-horizontal:0">Public Opinion</text><circle cx="1560" cy="80" r="10" stroke="black" stroke-width="2" fill="green"/></g><g><circle cx="1625" cy="100" r="8" stroke="black" stroke-width="2" fill="blue"/><text x="1625" y="150" style="writing-mode: tb; glyph-orientation-horizontal:0">Battle of Amphipolis</text><circle cx="1625" cy="80" r="4" stroke="black" stroke-width="2" fill="green"/></g><g><circle cx="1690" cy="100" r="8" stroke="black" stroke-width="2" fill="blue"/><text x="1690" y="150" style="writing-mode: tb; glyph-orientation-horizontal:0">Homecoming</text><circle cx="1690" cy="80" r="6" stroke="black" stroke-width="2" fill="green"/></g><g><circle cx="1755" cy="100" r="4" stroke="black" stroke-width="2" fill="blue"/><text x="1755" y="150" style="writing-mode: tb; glyph-orientation-horizontal:0">From the Shadows</text><circle cx="1755" cy="80" r="4" stroke="black" stroke-width="2" fill="green"/></g><g><circle cx="1820" cy="100" r="19" stroke="black" stroke-width="2" fill="blue"/><text x="1820" y="150" style="writing-mode: tb; glyph-orientation-horizontal:0">Shadows of Serpents</text><circle cx="1820" cy="80" r="5" stroke="black" stroke-width="2" fill="green"/></g><g><circle cx="1885" cy="100" r="9" stroke="black" stroke-width="2" fill="blue"/><text x="1885" y="150" style="writing-mode: tb; glyph-orientation-horizontal:0">The Gates of Atlantis</text><circle cx="1885" cy="80" r="9" stroke="black" stroke-width="2" fill="green"/></g></g></svg>