<?xml version="1.0" encoding="UTF-8"?>
<svg xmlns="http://www.w3.org/2000/svg" width="1000" height="1000"><g transform="translate(30, 600)"><g><line x1="30" x2="30" y1="0" y2="-240" stroke="red" stroke-width="25"/><line x1="30" x2="30" y1="0" y2="-110" stroke="#e0e0e0" stroke-width="20"/><text x="30" y="-110" fill="#2d6d86" font-size="14">11</text><text x="30" y="-240" fill="#2d6d86" font-size="14">24</text></g><g><line x1="60" x2="60" y1="0" y2="-150" stroke="red" stroke-width="25"/><line x1="60" x2="60" y1="0" y2="-120" stroke="#e0e0e0" stroke-width="20"/><text x="60" y="-120" fill="#2d6d86" font-size="14">12</text><text x="60" y="-150" fill="#2d6d86" font-size="14">15</text></g><g><line x1="90" x2="90" y1="0" y2="-330" stroke="red" stroke-width="25"/><line x1="90" x2="90" y1="0" y2="-140" stroke="#e0e0e0" stroke-width="20"/><text x="90" y="-140" fill="#2d6d86" font-size="14">14</text><text x="90" y="-330" fill="#2d6d86" font-size="14">33</text></g><g><line x1="120" x2="120" y1="0" y2="-290" stroke="red" stroke-width="25"/><line x1="120" x2="120" y1="0" y2="-160" stroke="#e0e0e0" stroke-width="20"/><text x="120" y="-160" fill="#2d6d86" font-size="14">16</text><text x="120" y="-290" fill="#2d6d86" font-size="14">29</text></g><g><line x1="150" x2="150" y1="0" y2="-30" stroke="red" stroke-width="25"/><line x1="150" x2="150" y1="0" y2="-30" stroke="#e0e0e0" stroke-width="20"/><text x="150" y="-30" fill="#2d6d86" font-size="14">3</text><text x="150" y="-30" fill="#2d6d86" font-size="14">3</text></g><g><line x1="180" x2="180" y1="0" y2="-90" stroke="red" stroke-width="25"/><line x1="180" x2="180" y1="0" y2="-60" stroke="#e0e0e0" stroke-width="20"/><text x="180" y="-60" fill="#2d6d86" font-size="14">6</text><text x="180" y="-90" fill="#2d6d86" font-size="14">9</text></g><g><line x1="210" x2="210" y1="0" y2="-180" stroke="red" stroke-width="25"/><line x1="210" x2="210" y1="0" y2="-60" stroke="#e0e0e0" stroke-width="20"/><text x="210" y="-60" fill="#2d6d86" font-size="14">6</text><text x="210" y="-180" fill="#2d6d86" font-size="14">18</text></g><g><line x1="240" x2="240" y1="0" y2="-120" stroke="red" stroke-width="25"/><line x1="240" x2="240" y1="0" y2="-120" stroke="#e0e0e0" stroke-width="20"/><text x="240" y="-120" fill="#2d6d86" font-size="14">12</text><text x="240" y="-120" fill="#2d6d86" font-size="14">12</text></g><g><line x1="270" x2="270" y1="0" y2="-340" stroke="red" stroke-width="25"/><line x1="270" x2="270" y1="0" y2="-230" stroke="#e0e0e0" stroke-width="20"/><text x="270" y="-230" fill="#2d6d86" font-size="14">23</text><text x="270" y="-340" fill="#2d6d86" font-size="14">34</text></g><g><line x1="300" x2="300" y1="0" y2="-280" stroke="red" stroke-width="25"/><line x1="300" x2="300" y1="0" y2="-110" stroke="#e0e0e0" stroke-width="20"/><text x="300" y="-110" fill="#2d6d86" font-size="14">11</text><text x="300" y="-280" fill="#2d6d86" font-size="14">28</text></g><g><line x1="330" x2="330" y1="0" y2="-320" stroke="red" stroke-width="25"/><line x1="330" x2="330" y1="0" y2="-160" stroke="#e0e0e0" stroke-width="20"/><text x="330" y="-160" fill="#2d6d86" font-size="14">16</text><text x="330" y="-320" fill="#2d6d86" font-size="14">32</text></g><g><line x1="360" x2="360" y1="0" y2="-50" stroke="red" stroke-width="25"/><line x1="360" x2="360" y1="0" y2="-50" stroke="#e0e0e0" stroke-width="20"/><text x="360" y="-50" fill="#2d6d86" font-size="14">5</text><text x="360" y="-50" fill="#2d6d86" font-size="14">5</text></g><g><line x1="390" x2="390" y1="0" y2="-180" stroke="red" stroke-width="25"/><line x1="390" x2="390" y1="0" y2="-100" stroke="#e0e0e0" stroke-width="20"/><text x="390" y="-100" fill="#2d6d86" font-size="14">10</text><text x="390" y="-180" fill="#2d6d86" font-size="14">18</text></g><g><line x1="420" x2="420" y1="0" y2="-40" stroke="red" stroke-width="25"/><line x1="420" x2="420" y1="0" y2="-50" stroke="#e0e0e0" stroke-width="20"/><text x="420" y="-50" fill="#2d6d86" font-size="14">5</text><text x="420" y="-40" fill="#2d6d86" font-size="14">4</text></g><g><line x1="450" x2="450" y1="0" y2="-220" stroke="red" stroke-width="25"/><line x1="450" x2="450" y1="0" y2="-130" stroke="#e0e0e0" stroke-width="20"/><text x="450" y="-130" fill="#2d6d86" font-size="14">13</text><text x="450" y="-220" fill="#2d6d86" font-size="14">22</text></g><g><line x1="480" x2="480" y1="0" y2="-60" stroke="red" stroke-width="25"/><line x1="480" x2="480" y1="0" y2="-50" stroke="#e0e0e0" stroke-width="20"/><text x="480" y="-50" fill="#2d6d86" font-size="14">5</text><text x="480" y="-60" fill="#2d6d86" font-size="14">6</text></g><g><line x1="510" x2="510" y1="0" y2="-400" stroke="red" stroke-width="25"/><line x1="510" x2="510" y1="0" y2="-120" stroke="#e0e0e0" stroke-width="20"/><text x="510" y="-120" fill="#2d6d86" font-size="14">12</text><text x="510" y="-400" fill="#2d6d86" font-size="14">40</text></g><g><line x1="540" x2="540" y1="0" y2="-160" stroke="red" stroke-width="25"/><line x1="540" x2="540" y1="0" y2="-110" stroke="#e0e0e0" stroke-width="20"/><text x="540" y="-110" fill="#2d6d86" font-size="14">11</text><text x="540" y="-160" fill="#2d6d86" font-size="14">16</text></g><g><line x1="570" x2="570" y1="0" y2="-270" stroke="red" stroke-width="25"/><line x1="570" x2="570" y1="0" y2="-150" stroke="#e0e0e0" stroke-width="20"/><text x="570" y="-150" fill="#2d6d86" font-size="14">15</text><text x="570" y="-270" fill="#2d6d86" font-size="14">27</text></g><g><line x1="600" x2="600" y1="0" y2="-130" stroke="red" stroke-width="25"/><line x1="600" x2="600" y1="0" y2="-110" stroke="#e0e0e0" stroke-width="20"/><text x="600" y="-110" fill="#2d6d86" font-size="14">11</text><text x="600" y="-130" fill="#2d6d86" font-size="14">13</text></g><g><line x1="630" x2="630" y1="0" y2="-90" stroke="red" stroke-width="25"/><line x1="630" x2="630" y1="0" y2="-40" stroke="#e0e0e0" stroke-width="20"/><text x="630" y="-40" fill="#2d6d86" font-size="14">4</text><text x="630" y="-90" fill="#2d6d86" font-size="14">9</text></g><g><line x1="660" x2="660" y1="0" y2="-130" stroke="red" stroke-width="25"/><line x1="660" x2="660" y1="0" y2="-90" stroke="#e0e0e0" stroke-width="20"/><text x="660" y="-90" fill="#2d6d86" font-size="14">9</text><text x="660" y="-130" fill="#2d6d86" font-size="14">13</text></g><g><line x1="690" x2="690" y1="0" y2="-40" stroke="red" stroke-width="25"/><line x1="690" x2="690" y1="0" y2="-70" stroke="#e0e0e0" stroke-width="20"/><text x="690" y="-70" fill="#2d6d86" font-size="14">7</text><text x="690" y="-40" fill="#2d6d86" font-size="14">4</text></g><g><line x1="720" x2="720" y1="0" y2="-120" stroke="red" stroke-width="25"/><line x1="720" x2="720" y1="0" y2="-100" stroke="#e0e0e0" stroke-width="20"/><text x="720" y="-100" fill="#2d6d86" font-size="14">10</text><text x="720" y="-120" fill="#2d6d86" font-size="14">12</text></g><g><line x1="750" x2="750" y1="0" y2="-80" stroke="red" stroke-width="25"/><line x1="750" x2="750" y1="0" y2="-40" stroke="#e0e0e0" stroke-width="20"/><text x="750" y="-40" fill="#2d6d86" font-size="14">4</text><text x="750" y="-80" fill="#2d6d86" font-size="14">8</text></g><g><line x1="780" x2="780" y1="0" y2="-80" stroke="red" stroke-width="25"/><line x1="780" x2="780" y1="0" y2="-60" stroke="#e0e0e0" stroke-width="20"/><text x="780" y="-60" fill="#2d6d86" font-size="14">6</text><text x="780" y="-80" fill="#2d6d86" font-size="14">8</text></g><g><line x1="810" x2="810" y1="0" y2="-40" stroke="red" stroke-width="25"/><line x1="810" x2="810" y1="0" y2="-40" stroke="#e0e0e0" stroke-width="20"/><text x="810" y="-40" fill="#2d6d86" font-size="14">4</text><text x="810" y="-40" fill="#2d6d86" font-size="14">4</text></g><g><line x1="840" x2="840" y1="0" y2="-190" stroke="red" stroke-width="25"/><line x1="840" x2="840" y1="0" y2="-50" stroke="#e0e0e0" stroke-width="20"/><text x="840" y="-50" fill="#2d6d86" font-size="14">5</text><text x="840" y="-190" fill="#2d6d86" font-size="14">19</text></g><g><line x1="870" x2="870" y1="0" y2="-90" stroke="red" stroke-width="25"/><line x1="870" x2="870" y1="0" y2="-90" stroke="#e0e0e0" stroke-width="20"/><text x="870" y="-90" fill="#2d6d86" font-size="14">9</text><text x="870" y="-90" fill="#2d6d86" font-size="14">9</text></g><polygon points="290,-440 260,-500 670,-500 640,-440" style="fill:#edbe82;"/><text x="300" y="-450" fill="#000" font-size="50">Assassins Creed</text><polygon points="750,-460 750,-340 890,-340 890,-460" style="fill:#edbe82;"/><text x="770" y="-430" fill="#000" font-size="30">Legend:</text><text x="800" y="-400" fill="#000" font-size="15">= Actions</text><polygon points="760,-420 760,-390 795,-390 795,-420" style="fill:red;"/><text x="800" y="-360" fill="#000" font-size="15">= Speakers</text><polygon points="760,-350 760,-380 795,-380 795,-350" style="fill:#e0e0e0;"/><!--X axis --><line x1="5" y1="0" x2="900" y2="0" style="stroke:#6f5739;stroke-width:4"/><!--Y axis --><line x1="7" y1="0" x2="7" y2="-420" style="stroke:#6f5739;stroke-width:4"/><line stroke="green" stroke-width="1" x1="0" x2="900" y1="0" y2="0"/><line stroke="green" stroke-width="1" x1="0" x2="900" y1="10" y2="10"/><line stroke="green" stroke-width="1" x1="0" x2="900" y1="20" y2="20"/><line stroke="green" stroke-width="1" x1="0" x2="900" y1="30" y2="30"/><line stroke="green" stroke-width="1" x1="0" x2="900" y1="40" y2="40"/><line stroke="green" stroke-width="1" x1="0" x2="900" y1="50" y2="50"/><line stroke="green" stroke-width="1" x1="0" x2="900" y1="60" y2="60"/><line stroke="green" stroke-width="1" x1="0" x2="900" y1="70" y2="70"/><line stroke="green" stroke-width="1" x1="0" x2="900" y1="80" y2="80"/><line stroke="green" stroke-width="1" x1="0" x2="900" y1="90" y2="90"/><line stroke="green" stroke-width="1" x1="0" x2="900" y1="100" y2="100"/><text x="380" y="40" fill="#626262" font-size="30">Chapters</text><text x="-1" y="-50" fill="#626262" font-size="30" transform="rotate(270 -1,-50)">Amount</text></g></svg>