<svg xmlns="http://www.w3.org/2000/svg" width="1000" height="1000"><g transform="translate (25,200)"><g><circle cx="70" cy="100" r="24" fill="blue"/><text x="70" y="200" style="writing-mode: tb; glyph-orientation-vertical:0">intro</text>0</g><g><circle cx="140" cy="100" r="15" fill="blue"/><text x="140" y="200" style="writing-mode: tb; glyph-orientation-vertical:0">Another Day, Another Drachma</text>0</g><g><circle cx="210" cy="100" r="33" fill="blue"/><text x="210" y="200" style="writing-mode: tb; glyph-orientation-vertical:0">A Debt to Pay</text>0</g><g><circle cx="280" cy="100" r="29" fill="blue"/><text x="280" y="200" style="writing-mode: tb; glyph-orientation-vertical:0">The Wolf Hunt</text>0</g><g><circle cx="350" cy="100" r="3" fill="blue"/><text x="350" y="200" style="writing-mode: tb; glyph-orientation-vertical:0">The Wolf and Snake</text>0</g><g><circle cx="420" cy="100" r="9" fill="blue"/><text x="420" y="200" style="writing-mode: tb; glyph-orientation-vertical:0">Of Visions and Visionaries</text>0</g><g><circle cx="490" cy="100" r="18" fill="blue"/><text x="490" y="200" style="writing-mode: tb; glyph-orientation-vertical:0">Beware the Snakes</text>0</g><g><circle cx="560" cy="100" r="12" fill="blue"/><text x="560" y="200" style="writing-mode: tb; glyph-orientation-vertical:0">An Old Enemy and a New Ally</text>0</g><g><circle cx="630" cy="100" r="34" fill="blue"/><text x="630" y="200" style="writing-mode: tb; glyph-orientation-vertical:0">The Road to the Symposium</text>0</g><g><circle cx="700" cy="100" r="28" fill="blue"/><text x="700" y="200" style="writing-mode: tb; glyph-orientation-vertical:0">Land of the Lawless</text>0</g><g><circle cx="770" cy="100" r="32" fill="blue"/><text x="770" y="200" style="writing-mode: tb; glyph-orientation-vertical:0">A Prescription for Discovery</text>0</g><g><circle cx="840" cy="100" r="5" fill="blue"/><text x="840" y="200" style="writing-mode: tb; glyph-orientation-vertical:0">Pirate Hospitality</text>0</g><g><circle cx="910" cy="100" r="18" fill="blue"/><text x="910" y="200" style="writing-mode: tb; glyph-orientation-vertical:0">Rising from the Ashes</text>0</g><g><circle cx="980" cy="100" r="4" fill="blue"/><text x="980" y="200" style="writing-mode: tb; glyph-orientation-vertical:0">The Reunion</text>0</g><g><circle cx="1050" cy="100" r="22" fill="blue"/><text x="1050" y="200" style="writing-mode: tb; glyph-orientation-vertical:0">Paradise Lost</text>0</g><g><circle cx="1120" cy="100" r="6" fill="blue"/><text x="1120" y="200" style="writing-mode: tb; glyph-orientation-vertical:0">The Last Riddle</text>0</g><g><circle cx="1190" cy="100" r="40" fill="blue"/><text x="1190" y="200" style="writing-mode: tb; glyph-orientation-vertical:0">A Place of Twists and Turns</text>0</g><g><circle cx="1260" cy="100" r="16" fill="blue"/><text x="1260" y="200" style="writing-mode: tb; glyph-orientation-vertical:0">Home Is Where My Mother Is</text>0</g><g><circle cx="1330" cy="100" r="27" fill="blue"/><text x="1330" y="200" style="writing-mode: tb; glyph-orientation-vertical:0">The Olympian</text>0</g><g><circle cx="1400" cy="100" r="13" fill="blue"/><text x="1400" y="200" style="writing-mode: tb; glyph-orientation-vertical:0">The Cult and the Archon</text>0</g><g><circle cx="1470" cy="100" r="9" fill="blue"/><text x="1470" y="200" style="writing-mode: tb; glyph-orientation-vertical:0">Paint It Red</text>0</g><g><circle cx="1540" cy="100" r="13" fill="blue"/><text x="1540" y="200" style="writing-mode: tb; glyph-orientation-vertical:0">The Cultist King</text>0</g><g><circle cx="1610" cy="100" r="4" fill="blue"/><text x="1610" y="200" style="writing-mode: tb; glyph-orientation-vertical:0">Uprising</text>0</g><g><circle cx="1680" cy="100" r="12" fill="blue"/><text x="1680" y="200" style="writing-mode: tb; glyph-orientation-vertical:0">Public Opinion</text>0</g><g><circle cx="1750" cy="100" r="8" fill="blue"/><text x="1750" y="200" style="writing-mode: tb; glyph-orientation-vertical:0">Battle of Amphipolis</text>0</g><g><circle cx="1820" cy="100" r="8" fill="blue"/><text x="1820" y="200" style="writing-mode: tb; glyph-orientation-vertical:0">Homecoming</text>0</g><g><circle cx="1890" cy="100" r="4" fill="blue"/><text x="1890" y="200" style="writing-mode: tb; glyph-orientation-vertical:0">From the Shadows</text>0</g><g><circle cx="1960" cy="100" r="19" fill="blue"/><text x="1960" y="200" style="writing-mode: tb; glyph-orientation-vertical:0">Shadows of Serpents</text>0</g><g><circle cx="2030" cy="100" r="9" fill="blue"/><text x="2030" y="200" style="writing-mode: tb; glyph-orientation-vertical:0">The Gates of Atlantis</text>0</g></g></svg>