<svg xmlns="http://www.w3.org/2000/svg" viewBox="0 0 2100 700"> (:first value is x, then y, then max x and y:)
(: original width and height=======width="4000" height="500" :)
<g transform="translate (25,200)"><line x1="0" y1="0" x2="2100" y2="0" stroke="black" stroke-width="2"/>
(: x axis :)
<line x1="0" y1="0" x2="0" y2="-400" stroke="black" stroke-width="2"/>
(: y axis :)
<g><line x1="70" y2="0" y1="-240" x2="70" stroke="red" stroke-width="25"/><line x1="100" y2="0" y1="-110" x2="100" stroke="purple" stroke-width="25"/><circle cy="--80" cx="70" r="24" stroke="black" stroke-width="2" fill="red"/><circle cy="--10" cx="100" r="11" stroke="black" stroke-width="2" fill="purple"/><text x="85" y="20" style="writing-mode: tb; glyph-orientation-verical:o">intro</text>11</g><g><line x1="140" y2="0" y1="-150" x2="140" stroke="red" stroke-width="25"/><line x1="170" y2="0" y1="-120" x2="170" stroke="purple" stroke-width="25"/><circle cy="--90" cx="140" r="15" stroke="black" stroke-width="2" fill="red"/><circle cy="--20" cx="170" r="12" stroke="black" stroke-width="2" fill="purple"/><text x="155" y="20" style="writing-mode: tb; glyph-orientation-verical:o">Another Day, Another Drachma</text>12</g><g><line x1="210" y2="0" y1="-330" x2="210" stroke="red" stroke-width="25"/><line x1="240" y2="0" y1="-140" x2="240" stroke="purple" stroke-width="25"/><circle cy="--110" cx="210" r="33" stroke="black" stroke-width="2" fill="red"/><circle cy="--30" cx="240" r="14" stroke="black" stroke-width="2" fill="purple"/><text x="225" y="20" style="writing-mode: tb; glyph-orientation-verical:o">A Debt to Pay</text>14</g><g><line x1="280" y2="0" y1="-290" x2="280" stroke="red" stroke-width="25"/><line x1="310" y2="0" y1="-160" x2="310" stroke="purple" stroke-width="25"/><circle cy="--130" cx="280" r="29" stroke="black" stroke-width="2" fill="red"/><circle cy="--40" cx="310" r="16" stroke="black" stroke-width="2" fill="purple"/><text x="295" y="20" style="writing-mode: tb; glyph-orientation-verical:o">The Wolf Hunt</text>16</g><g><line x1="350" y2="0" y1="-30" x2="350" stroke="red" stroke-width="25"/><line x1="380" y2="0" y1="-30" x2="380" stroke="purple" stroke-width="25"/><circle cy="-0" cx="350" r="3" stroke="black" stroke-width="2" fill="red"/><circle cy="--50" cx="380" r="3" stroke="black" stroke-width="2" fill="purple"/><text x="365" y="20" style="writing-mode: tb; glyph-orientation-verical:o">The Wolf and Snake</text>3</g><g><line x1="420" y2="0" y1="-90" x2="420" stroke="red" stroke-width="25"/><line x1="450" y2="0" y1="-60" x2="450" stroke="purple" stroke-width="25"/><circle cy="--30" cx="420" r="9" stroke="black" stroke-width="2" fill="red"/><circle cy="--60" cx="450" r="6" stroke="black" stroke-width="2" fill="purple"/><text x="435" y="20" style="writing-mode: tb; glyph-orientation-verical:o">Of Visions and Visionaries</text>6</g><g><line x1="490" y2="0" y1="-180" x2="490" stroke="red" stroke-width="25"/><line x1="520" y2="0" y1="-60" x2="520" stroke="purple" stroke-width="25"/><circle cy="--30" cx="490" r="18" stroke="black" stroke-width="2" fill="red"/><circle cy="--70" cx="520" r="6" stroke="black" stroke-width="2" fill="purple"/><text x="505" y="20" style="writing-mode: tb; glyph-orientation-verical:o">Beware the Snakes</text>6</g><g><line x1="560" y2="0" y1="-120" x2="560" stroke="red" stroke-width="25"/><line x1="590" y2="0" y1="-120" x2="590" stroke="purple" stroke-width="25"/><circle cy="--90" cx="560" r="12" stroke="black" stroke-width="2" fill="red"/><circle cy="--80" cx="590" r="12" stroke="black" stroke-width="2" fill="purple"/><text x="575" y="20" style="writing-mode: tb; glyph-orientation-verical:o">An Old Enemy and a New Ally</text>12</g><g><line x1="630" y2="0" y1="-340" x2="630" stroke="red" stroke-width="25"/><line x1="660" y2="0" y1="-230" x2="660" stroke="purple" stroke-width="25"/><circle cy="--200" cx="630" r="34" stroke="black" stroke-width="2" fill="red"/><circle cy="--90" cx="660" r="23" stroke="black" stroke-width="2" fill="purple"/><text x="645" y="20" style="writing-mode: tb; glyph-orientation-verical:o">The Road to the Symposium</text>23</g><g><line x1="700" y2="0" y1="-280" x2="700" stroke="red" stroke-width="25"/><line x1="730" y2="0" y1="-110" x2="730" stroke="purple" stroke-width="25"/><circle cy="--80" cx="700" r="28" stroke="black" stroke-width="2" fill="red"/><circle cy="--100" cx="730" r="11" stroke="black" stroke-width="2" fill="purple"/><text x="715" y="20" style="writing-mode: tb; glyph-orientation-verical:o">Land of the Lawless</text>11</g><g><line x1="770" y2="0" y1="-320" x2="770" stroke="red" stroke-width="25"/><line x1="800" y2="0" y1="-160" x2="800" stroke="purple" stroke-width="25"/><circle cy="--130" cx="770" r="32" stroke="black" stroke-width="2" fill="red"/><circle cy="--110" cx="800" r="16" stroke="black" stroke-width="2" fill="purple"/><text x="785" y="20" style="writing-mode: tb; glyph-orientation-verical:o">A Prescription for Discovery</text>16</g><g><line x1="840" y2="0" y1="-50" x2="840" stroke="red" stroke-width="25"/><line x1="870" y2="0" y1="-50" x2="870" stroke="purple" stroke-width="25"/><circle cy="--20" cx="840" r="5" stroke="black" stroke-width="2" fill="red"/><circle cy="--120" cx="870" r="5" stroke="black" stroke-width="2" fill="purple"/><text x="855" y="20" style="writing-mode: tb; glyph-orientation-verical:o">Pirate Hospitality</text>5</g><g><line x1="910" y2="0" y1="-180" x2="910" stroke="red" stroke-width="25"/><line x1="940" y2="0" y1="-100" x2="940" stroke="purple" stroke-width="25"/><circle cy="--70" cx="910" r="18" stroke="black" stroke-width="2" fill="red"/><circle cy="--130" cx="940" r="10" stroke="black" stroke-width="2" fill="purple"/><text x="925" y="20" style="writing-mode: tb; glyph-orientation-verical:o">Rising from the Ashes</text>10</g><g><line x1="980" y2="0" y1="-40" x2="980" stroke="red" stroke-width="25"/><line x1="1010" y2="0" y1="-50" x2="1010" stroke="purple" stroke-width="25"/><circle cy="--20" cx="980" r="4" stroke="black" stroke-width="2" fill="red"/><circle cy="--140" cx="1010" r="5" stroke="black" stroke-width="2" fill="purple"/><text x="995" y="20" style="writing-mode: tb; glyph-orientation-verical:o">The Reunion</text>5</g><g><line x1="1050" y2="0" y1="-220" x2="1050" stroke="red" stroke-width="25"/><line x1="1080" y2="0" y1="-130" x2="1080" stroke="purple" stroke-width="25"/><circle cy="--100" cx="1050" r="22" stroke="black" stroke-width="2" fill="red"/><circle cy="--150" cx="1080" r="13" stroke="black" stroke-width="2" fill="purple"/><text x="1065" y="20" style="writing-mode: tb; glyph-orientation-verical:o">Paradise Lost</text>13</g><g><line x1="1120" y2="0" y1="-60" x2="1120" stroke="red" stroke-width="25"/><line x1="1150" y2="0" y1="-50" x2="1150" stroke="purple" stroke-width="25"/><circle cy="--20" cx="1120" r="6" stroke="black" stroke-width="2" fill="red"/><circle cy="--160" cx="1150" r="5" stroke="black" stroke-width="2" fill="purple"/><text x="1135" y="20" style="writing-mode: tb; glyph-orientation-verical:o">The Last Riddle</text>5</g><g><line x1="1190" y2="0" y1="-400" x2="1190" stroke="red" stroke-width="25"/><line x1="1220" y2="0" y1="-120" x2="1220" stroke="purple" stroke-width="25"/><circle cy="--90" cx="1190" r="40" stroke="black" stroke-width="2" fill="red"/><circle cy="--170" cx="1220" r="12" stroke="black" stroke-width="2" fill="purple"/><text x="1205" y="20" style="writing-mode: tb; glyph-orientation-verical:o">A Place of Twists and Turns</text>12</g><g><line x1="1260" y2="0" y1="-160" x2="1260" stroke="red" stroke-width="25"/><line x1="1290" y2="0" y1="-110" x2="1290" stroke="purple" stroke-width="25"/><circle cy="--80" cx="1260" r="16" stroke="black" stroke-width="2" fill="red"/><circle cy="--180" cx="1290" r="11" stroke="black" stroke-width="2" fill="purple"/><text x="1275" y="20" style="writing-mode: tb; glyph-orientation-verical:o">Home Is Where My Mother Is</text>11</g><g><line x1="1330" y2="0" y1="-270" x2="1330" stroke="red" stroke-width="25"/><line x1="1360" y2="0" y1="-150" x2="1360" stroke="purple" stroke-width="25"/><circle cy="--120" cx="1330" r="27" stroke="black" stroke-width="2" fill="red"/><circle cy="--190" cx="1360" r="15" stroke="black" stroke-width="2" fill="purple"/><text x="1345" y="20" style="writing-mode: tb; glyph-orientation-verical:o">The Olympian</text>15</g><g><line x1="1400" y2="0" y1="-130" x2="1400" stroke="red" stroke-width="25"/><line x1="1430" y2="0" y1="-110" x2="1430" stroke="purple" stroke-width="25"/><circle cy="--80" cx="1400" r="13" stroke="black" stroke-width="2" fill="red"/><circle cy="--200" cx="1430" r="11" stroke="black" stroke-width="2" fill="purple"/><text x="1415" y="20" style="writing-mode: tb; glyph-orientation-verical:o">The Cult and the Archon</text>11</g><g><line x1="1470" y2="0" y1="-90" x2="1470" stroke="red" stroke-width="25"/><line x1="1500" y2="0" y1="-40" x2="1500" stroke="purple" stroke-width="25"/><circle cy="--10" cx="1470" r="9" stroke="black" stroke-width="2" fill="red"/><circle cy="--210" cx="1500" r="4" stroke="black" stroke-width="2" fill="purple"/><text x="1485" y="20" style="writing-mode: tb; glyph-orientation-verical:o">Paint It Red</text>4</g><g><line x1="1540" y2="0" y1="-130" x2="1540" stroke="red" stroke-width="25"/><line x1="1570" y2="0" y1="-90" x2="1570" stroke="purple" stroke-width="25"/><circle cy="--60" cx="1540" r="13" stroke="black" stroke-width="2" fill="red"/><circle cy="--220" cx="1570" r="9" stroke="black" stroke-width="2" fill="purple"/><text x="1555" y="20" style="writing-mode: tb; glyph-orientation-verical:o">The Cultist King</text>9</g><g><line x1="1610" y2="0" y1="-40" x2="1610" stroke="red" stroke-width="25"/><line x1="1640" y2="0" y1="-70" x2="1640" stroke="purple" stroke-width="25"/><circle cy="--40" cx="1610" r="4" stroke="black" stroke-width="2" fill="red"/><circle cy="--230" cx="1640" r="7" stroke="black" stroke-width="2" fill="purple"/><text x="1625" y="20" style="writing-mode: tb; glyph-orientation-verical:o">Uprising</text>7</g><g><line x1="1680" y2="0" y1="-120" x2="1680" stroke="red" stroke-width="25"/><line x1="1710" y2="0" y1="-100" x2="1710" stroke="purple" stroke-width="25"/><circle cy="--70" cx="1680" r="12" stroke="black" stroke-width="2" fill="red"/><circle cy="--240" cx="1710" r="10" stroke="black" stroke-width="2" fill="purple"/><text x="1695" y="20" style="writing-mode: tb; glyph-orientation-verical:o">Public Opinion</text>10</g><g><line x1="1750" y2="0" y1="-80" x2="1750" stroke="red" stroke-width="25"/><line x1="1780" y2="0" y1="-40" x2="1780" stroke="purple" stroke-width="25"/><circle cy="--10" cx="1750" r="8" stroke="black" stroke-width="2" fill="red"/><circle cy="--250" cx="1780" r="4" stroke="black" stroke-width="2" fill="purple"/><text x="1765" y="20" style="writing-mode: tb; glyph-orientation-verical:o">Battle of Amphipolis</text>4</g><g><line x1="1820" y2="0" y1="-80" x2="1820" stroke="red" stroke-width="25"/><line x1="1850" y2="0" y1="-60" x2="1850" stroke="purple" stroke-width="25"/><circle cy="--30" cx="1820" r="8" stroke="black" stroke-width="2" fill="red"/><circle cy="--260" cx="1850" r="6" stroke="black" stroke-width="2" fill="purple"/><text x="1835" y="20" style="writing-mode: tb; glyph-orientation-verical:o">Homecoming</text>6</g><g><line x1="1890" y2="0" y1="-40" x2="1890" stroke="red" stroke-width="25"/><line x1="1920" y2="0" y1="-40" x2="1920" stroke="purple" stroke-width="25"/><circle cy="--10" cx="1890" r="4" stroke="black" stroke-width="2" fill="red"/><circle cy="--270" cx="1920" r="4" stroke="black" stroke-width="2" fill="purple"/><text x="1905" y="20" style="writing-mode: tb; glyph-orientation-verical:o">From the Shadows</text>4</g><g><line x1="1960" y2="0" y1="-190" x2="1960" stroke="red" stroke-width="25"/><line x1="1990" y2="0" y1="-50" x2="1990" stroke="purple" stroke-width="25"/><circle cy="--20" cx="1960" r="19" stroke="black" stroke-width="2" fill="red"/><circle cy="--280" cx="1990" r="5" stroke="black" stroke-width="2" fill="purple"/><text x="1975" y="20" style="writing-mode: tb; glyph-orientation-verical:o">Shadows of Serpents</text>5</g><g><line x1="2030" y2="0" y1="-90" x2="2030" stroke="red" stroke-width="25"/><line x1="2060" y2="0" y1="-90" x2="2060" stroke="purple" stroke-width="25"/><circle cy="--60" cx="2030" r="9" stroke="black" stroke-width="2" fill="red"/><circle cy="--290" cx="2060" r="9" stroke="black" stroke-width="2" fill="purple"/><text x="2045" y="20" style="writing-mode: tb; glyph-orientation-verical:o">The Gates of Atlantis</text>9</g></g></svg>