<?xml version="1.0" encoding="UTF-8"?>
<svg width="2000" height="3000"><g transform="translate(30, 30)"><line x1="50" y1="0" x2="50" y2="2850" stroke="purple" stroke-width="3"/><g class="year"><circle cx="50" cy="1650" r="33.851375012865375" fill="chartreuse"/><text x="130" y="1657.5" fill="black">2010</text><text x="210" y="1657.5" fill="black">Cameraman and Flower; Choose Your Weapon; Interest in People; No Future; No Trespassing ; Swing Girl</text><rect x="250" y="1700" width="10" height="30" fill="#FF8B3D"/><rect x="260" y="1700" width="50" height="30" fill="teal"/></g><g class="year"><circle cx="50" cy="1200" r="33.851375012865375" fill="chartreuse"/><text x="130" y="1207.5" fill="black">2007</text><text x="210" y="1207.5" fill="black">Cash Machine Girl; Fallen Angel; Girl with Skipping Rope; Looting Soldier; Space Girl with Bird; Stop and Search</text><rect x="250" y="1250" width="0" height="30" fill="#FF8B3D"/><rect x="250" y="1250" width="60" height="30" fill="teal"/></g><g class="year"><circle cx="50" cy="1650" r="33.851375012865375" fill="chartreuse"/><text x="130" y="1657.5" fill="black">2010</text><text x="210" y="1657.5" fill="black">Cameraman and Flower; Choose Your Weapon; Interest in People; No Future; No Trespassing ; Swing Girl</text><rect x="250" y="1700" width="10" height="30" fill="#FF8B3D"/><rect x="260" y="1700" width="50" height="30" fill="teal"/></g><g class="year"><circle cx="50" cy="1800" r="39.49327084834294" fill="chartreuse"/><text x="130" y="1807.5" fill="black">2011</text><text x="210" y="1807.5" fill="black">Baby Carriage; Child Soldier; Follow your Dreams - Canceled; Take this Society; Tap Phoned; Tox; Toxic Rat</text><rect x="250" y="1850" width="0" height="30" fill="#FF8B3D"/><rect x="250" y="1850" width="70" height="30" fill="teal"/></g><g class="year"><circle cx="50" cy="600" r="73.34464586120832" fill="chartreuse"/><text x="130" y="607.5" fill="black">2003</text><text x="210" y="607.5" fill="black">Bomb Hugger; Bomb Middle England; Flying Copper; Golf Sale; HMV; Happy Choppers; Ice Cream Bomb; Laugh Now; Love Is In The Air; Monkey Queen; Queen Victoria; Turf War</text><rect x="250" y="650" width="110" height="30" fill="#FF8B3D"/><rect x="360" y="650" width="20" height="30" fill="teal"/></g><g class="year"><circle cx="50" cy="900" r="39.49327084834294" fill="chartreuse"/><text x="130" y="907.5" fill="black">2005</text><text x="210" y="907.5" fill="black">CND Soldiers; Grim Reaper; Jack &amp; Jill; Kate Moss; Snorting Copper; Soldiers Painting CND Sign; Think Tank</text><rect x="250" y="950" width="40" height="30" fill="#FF8B3D"/><rect x="290" y="950" width="30" height="30" fill="teal"/></g><g class="year"><circle cx="50" cy="1800" r="39.49327084834294" fill="chartreuse"/><text x="130" y="1807.5" fill="black">2011</text><text x="210" y="1807.5" fill="black">Baby Carriage; Child Soldier; Follow your Dreams - Canceled; Take this Society; Tap Phoned; Tox; Toxic Rat</text><rect x="250" y="1850" width="0" height="30" fill="#FF8B3D"/><rect x="250" y="1850" width="70" height="30" fill="teal"/></g><g class="year"><circle cx="50" cy="1650" r="33.851375012865375" fill="chartreuse"/><text x="130" y="1657.5" fill="black">2010</text><text x="210" y="1657.5" fill="black">Cameraman and Flower; Choose Your Weapon; Interest in People; No Future; No Trespassing ; Swing Girl</text><rect x="250" y="1700" width="10" height="30" fill="#FF8B3D"/><rect x="260" y="1700" width="50" height="30" fill="teal"/></g><g class="year"><circle cx="50" cy="600" r="73.34464586120832" fill="chartreuse"/><text x="130" y="607.5" fill="black">2003</text><text x="210" y="607.5" fill="black">Bomb Hugger; Bomb Middle England; Flying Copper; Golf Sale; HMV; Happy Choppers; Ice Cream Bomb; Laugh Now; Love Is In The Air; Monkey Queen; Queen Victoria; Turf War</text><rect x="250" y="650" width="110" height="30" fill="#FF8B3D"/><rect x="360" y="650" width="20" height="30" fill="teal"/></g><g class="year"><circle cx="50" cy="1500" r="28.209479177387813" fill="chartreuse"/><text x="130" y="1507.5" fill="black">2009</text><text x="210" y="1507.5" fill="black">Don't Forget your Scarf; Donuts; Kentucky Fox; No Ball Games; Thug for Life Bunny</text><rect x="250" y="1550" width="20" height="30" fill="#FF8B3D"/><rect x="270" y="1550" width="30" height="30" fill="teal"/></g><g class="year"><circle cx="50" cy="1800" r="39.49327084834294" fill="chartreuse"/><text x="130" y="1807.5" fill="black">2011</text><text x="210" y="1807.5" fill="black">Baby Carriage; Child Soldier; Follow your Dreams - Canceled; Take this Society; Tap Phoned; Tox; Toxic Rat</text><rect x="250" y="1850" width="0" height="30" fill="#FF8B3D"/><rect x="250" y="1850" width="70" height="30" fill="teal"/></g><g class="year"><circle cx="50" cy="600" r="73.34464586120832" fill="chartreuse"/><text x="130" y="607.5" fill="black">2003</text><text x="210" y="607.5" fill="black">Bomb Hugger; Bomb Middle England; Flying Copper; Golf Sale; HMV; Happy Choppers; Ice Cream Bomb; Laugh Now; Love Is In The Air; Monkey Queen; Queen Victoria; Turf War</text><rect x="250" y="650" width="110" height="30" fill="#FF8B3D"/><rect x="360" y="650" width="20" height="30" fill="teal"/></g><g class="year"><circle cx="50" cy="750" r="62.060854190253195" fill="chartreuse"/><text x="130" y="757.5" fill="black">2004</text><text x="210" y="757.5" fill="black">Barcode; Because I'm Worthless; Christ with Shopping Bags; Di Faced Tenners; Gangsta Rat; Get Out While You Can; I Fought The Law; Love Rat; Napalm; Naplam Girl; Pulp Fiction</text><rect x="250" y="800" width="100" height="30" fill="#FF8B3D"/><rect x="350" y="800" width="10" height="30" fill="teal"/></g><g class="year"><circle cx="50" cy="1200" r="33.851375012865375" fill="chartreuse"/><text x="130" y="1207.5" fill="black">2007</text><text x="210" y="1207.5" fill="black">Cash Machine Girl; Fallen Angel; Girl with Skipping Rope; Looting Soldier; Space Girl with Bird; Stop and Search</text><rect x="250" y="1250" width="0" height="30" fill="#FF8B3D"/><rect x="250" y="1250" width="60" height="30" fill="teal"/></g><g class="year"><circle cx="50" cy="1050" r="45.1351666838205" fill="chartreuse"/><text x="130" y="1057.5" fill="black">2006</text><text x="210" y="1057.5" fill="black">Applause; Festival; Flags; Gangsta Rat; Grannies; Old Skool; Sweep it Under the Carpet; Well, Hung Lover</text><rect x="250" y="1100" width="40" height="30" fill="#FF8B3D"/><rect x="290" y="1100" width="40" height="30" fill="teal"/></g><g class="year"><circle cx="50" cy="2700" r="5.641895835477563" fill="chartreuse"/><text x="130" y="2707.5" fill="black">2017</text><text x="210" y="2707.5" fill="black">Civilian Drone STrike</text><rect x="250" y="2750" width="10" height="30" fill="#FF8B3D"/><rect x="260" y="2750" width="0" height="30" fill="teal"/></g><g class="year"><circle cx="50" cy="1800" r="39.49327084834294" fill="chartreuse"/><text x="130" y="1807.5" fill="black">2011</text><text x="210" y="1807.5" fill="black">Baby Carriage; Child Soldier; Follow your Dreams - Canceled; Take this Society; Tap Phoned; Tox; Toxic Rat</text><rect x="250" y="1850" width="0" height="30" fill="#FF8B3D"/><rect x="250" y="1850" width="70" height="30" fill="teal"/></g><g class="year"><circle cx="50" cy="1800" r="39.49327084834294" fill="chartreuse"/><text x="130" y="1807.5" fill="black">2011</text><text x="210" y="1807.5" fill="black">Baby Carriage; Child Soldier; Follow your Dreams - Canceled; Take this Society; Tap Phoned; Tox; Toxic Rat</text><rect x="250" y="1850" width="0" height="30" fill="#FF8B3D"/><rect x="250" y="1850" width="70" height="30" fill="teal"/></g><g class="year"><circle cx="50" cy="2850" r="45.1351666838205" fill="chartreuse"/><text x="130" y="2857.5" fill="black">2018</text><text x="210" y="2857.5" fill="black">Blinded Napoleon; Box Cutter Rat; Chisel the Flag; Draw The Raised Bridge; Go Flock Yourself; Rat Couple; Seal Mural; Season's Greetings</text><rect x="250" y="2900" width="0" height="30" fill="#FF8B3D"/><rect x="250" y="2900" width="80" height="30" fill="teal"/></g><g class="year"><circle cx="50" cy="900" r="39.49327084834294" fill="chartreuse"/><text x="130" y="907.5" fill="black">2005</text><text x="210" y="907.5" fill="black">CND Soldiers; Grim Reaper; Jack &amp; Jill; Kate Moss; Snorting Copper; Soldiers Painting CND Sign; Think Tank</text><rect x="250" y="950" width="40" height="30" fill="#FF8B3D"/><rect x="290" y="950" width="30" height="30" fill="teal"/></g><g class="year"><circle cx="50" cy="1650" r="33.851375012865375" fill="chartreuse"/><text x="130" y="1657.5" fill="black">2010</text><text x="210" y="1657.5" fill="black">Cameraman and Flower; Choose Your Weapon; Interest in People; No Future; No Trespassing ; Swing Girl</text><rect x="250" y="1700" width="10" height="30" fill="#FF8B3D"/><rect x="260" y="1700" width="50" height="30" fill="teal"/></g><g class="year"><circle cx="50" cy="1500" r="28.209479177387813" fill="chartreuse"/><text x="130" y="1507.5" fill="black">2009</text><text x="210" y="1507.5" fill="black">Don't Forget your Scarf; Donuts; Kentucky Fox; No Ball Games; Thug for Life Bunny</text><rect x="250" y="1550" width="20" height="30" fill="#FF8B3D"/><rect x="270" y="1550" width="30" height="30" fill="teal"/></g><g class="year"><circle cx="50" cy="2850" r="45.1351666838205" fill="chartreuse"/><text x="130" y="2857.5" fill="black">2018</text><text x="210" y="2857.5" fill="black">Blinded Napoleon; Box Cutter Rat; Chisel the Flag; Draw The Raised Bridge; Go Flock Yourself; Rat Couple; Seal Mural; Season's Greetings</text><rect x="250" y="2900" width="0" height="30" fill="#FF8B3D"/><rect x="250" y="2900" width="80" height="30" fill="teal"/></g><g class="year"><circle cx="50" cy="1350" r="33.851375012865375" fill="chartreuse"/><text x="130" y="1357.5" fill="black">2008</text><text x="210" y="1357.5" fill="black">Bubble Slide Girl; Gorilla Artist; I Love You; Injured Buddha; NOLA; One Nation Under CCTV</text><rect x="250" y="1400" width="10" height="30" fill="#FF8B3D"/><rect x="260" y="1400" width="50" height="30" fill="teal"/></g><g class="year"><circle cx="50" cy="1950" r="22.56758334191025" fill="chartreuse"/><text x="130" y="1957.5" fill="black">2012</text><text x="210" y="1957.5" fill="black">Fridge Kite; Javelin Thrower; Love Hurts; Slave Labour</text><rect x="250" y="2000" width="10" height="30" fill="#FF8B3D"/><rect x="260" y="2000" width="30" height="30" fill="teal"/></g><g class="year"><circle cx="50" cy="0" r="5.641895835477563" fill="chartreuse"/><text x="130" y="7.5" fill="black">1999</text><text x="210" y="7.5" fill="black">The Mild Mild West</text><rect x="250" y="50" width="0" height="30" fill="#FF8B3D"/><rect x="250" y="50" width="10" height="30" fill="teal"/></g><g class="year"><circle cx="50" cy="750" r="62.060854190253195" fill="chartreuse"/><text x="130" y="757.5" fill="black">2004</text><text x="210" y="757.5" fill="black">Barcode; Because I'm Worthless; Christ with Shopping Bags; Di Faced Tenners; Gangsta Rat; Get Out While You Can; I Fought The Law; Love Rat; Napalm; Naplam Girl; Pulp Fiction</text><rect x="250" y="800" width="100" height="30" fill="#FF8B3D"/><rect x="350" y="800" width="10" height="30" fill="teal"/></g><g class="year"><circle cx="50" cy="1800" r="39.49327084834294" fill="chartreuse"/><text x="130" y="1807.5" fill="black">2011</text><text x="210" y="1807.5" fill="black">Baby Carriage; Child Soldier; Follow your Dreams - Canceled; Take this Society; Tap Phoned; Tox; Toxic Rat</text><rect x="250" y="1850" width="0" height="30" fill="#FF8B3D"/><rect x="250" y="1850" width="70" height="30" fill="teal"/></g><g class="year"><circle cx="50" cy="1950" r="22.56758334191025" fill="chartreuse"/><text x="130" y="1957.5" fill="black">2012</text><text x="210" y="1957.5" fill="black">Fridge Kite; Javelin Thrower; Love Hurts; Slave Labour</text><rect x="250" y="2000" width="10" height="30" fill="#FF8B3D"/><rect x="260" y="2000" width="30" height="30" fill="teal"/></g><g class="year"><circle cx="50" cy="600" r="73.34464586120832" fill="chartreuse"/><text x="130" y="607.5" fill="black">2003</text><text x="210" y="607.5" fill="black">Bomb Hugger; Bomb Middle England; Flying Copper; Golf Sale; HMV; Happy Choppers; Ice Cream Bomb; Laugh Now; Love Is In The Air; Monkey Queen; Queen Victoria; Turf War</text><rect x="250" y="650" width="110" height="30" fill="#FF8B3D"/><rect x="360" y="650" width="20" height="30" fill="teal"/></g><g class="year"><circle cx="50" cy="1500" r="28.209479177387813" fill="chartreuse"/><text x="130" y="1507.5" fill="black">2009</text><text x="210" y="1507.5" fill="black">Don't Forget your Scarf; Donuts; Kentucky Fox; No Ball Games; Thug for Life Bunny</text><rect x="250" y="1550" width="20" height="30" fill="#FF8B3D"/><rect x="270" y="1550" width="30" height="30" fill="teal"/></g><g class="year"><circle cx="50" cy="1350" r="33.851375012865375" fill="chartreuse"/><text x="130" y="1357.5" fill="black">2008</text><text x="210" y="1357.5" fill="black">Bubble Slide Girl; Gorilla Artist; I Love You; Injured Buddha; NOLA; One Nation Under CCTV</text><rect x="250" y="1400" width="10" height="30" fill="#FF8B3D"/><rect x="260" y="1400" width="50" height="30" fill="teal"/></g><g class="year"><circle cx="50" cy="2550" r="5.641895835477563" fill="chartreuse"/><text x="130" y="2557.5" fill="black">2016</text><text x="210" y="2557.5" fill="black">Burning Tyre</text><rect x="250" y="2600" width="0" height="30" fill="#FF8B3D"/><rect x="250" y="2600" width="10" height="30" fill="teal"/></g><g class="year"><circle cx="50" cy="900" r="39.49327084834294" fill="chartreuse"/><text x="130" y="907.5" fill="black">2005</text><text x="210" y="907.5" fill="black">CND Soldiers; Grim Reaper; Jack &amp; Jill; Kate Moss; Snorting Copper; Soldiers Painting CND Sign; Think Tank</text><rect x="250" y="950" width="40" height="30" fill="#FF8B3D"/><rect x="290" y="950" width="30" height="30" fill="teal"/></g><g class="year"><circle cx="50" cy="450" r="11.283791670955125" fill="chartreuse"/><text x="130" y="457.5" fill="black">2002</text><text x="210" y="457.5" fill="black">Choose Your Weapon; Girl with Balloon</text><rect x="250" y="500" width="0" height="30" fill="#FF8B3D"/><rect x="250" y="500" width="20" height="30" fill="teal"/></g><g class="year"><circle cx="50" cy="2850" r="45.1351666838205" fill="chartreuse"/><text x="130" y="2857.5" fill="black">2018</text><text x="210" y="2857.5" fill="black">Blinded Napoleon; Box Cutter Rat; Chisel the Flag; Draw The Raised Bridge; Go Flock Yourself; Rat Couple; Seal Mural; Season's Greetings</text><rect x="250" y="2900" width="0" height="30" fill="#FF8B3D"/><rect x="250" y="2900" width="80" height="30" fill="teal"/></g><g class="year"><circle cx="50" cy="600" r="73.34464586120832" fill="chartreuse"/><text x="130" y="607.5" fill="black">2003</text><text x="210" y="607.5" fill="black">Bomb Hugger; Bomb Middle England; Flying Copper; Golf Sale; HMV; Happy Choppers; Ice Cream Bomb; Laugh Now; Love Is In The Air; Monkey Queen; Queen Victoria; Turf War</text><rect x="250" y="650" width="110" height="30" fill="#FF8B3D"/><rect x="360" y="650" width="20" height="30" fill="teal"/></g><g class="year"><circle cx="50" cy="1050" r="45.1351666838205" fill="chartreuse"/><text x="130" y="1057.5" fill="black">2006</text><text x="210" y="1057.5" fill="black">Applause; Festival; Flags; Gangsta Rat; Grannies; Old Skool; Sweep it Under the Carpet; Well, Hung Lover</text><rect x="250" y="1100" width="40" height="30" fill="#FF8B3D"/><rect x="290" y="1100" width="40" height="30" fill="teal"/></g><g class="year"><circle cx="50" cy="2400" r="28.209479177387813" fill="chartreuse"/><text x="130" y="2407.5" fill="black">2015</text><text x="210" y="2407.5" fill="black">Crying Woman; Gaza Kitty; I want change; The Son Of A Migrant From Syria; Watchtower Swing</text><rect x="250" y="2450" width="0" height="30" fill="#FF8B3D"/><rect x="250" y="2450" width="50" height="30" fill="teal"/></g><g class="year"><circle cx="50" cy="2400" r="28.209479177387813" fill="chartreuse"/><text x="130" y="2407.5" fill="black">2015</text><text x="210" y="2407.5" fill="black">Crying Woman; Gaza Kitty; I want change; The Son Of A Migrant From Syria; Watchtower Swing</text><rect x="250" y="2450" width="0" height="30" fill="#FF8B3D"/><rect x="250" y="2450" width="50" height="30" fill="teal"/></g><g class="year"><circle cx="50" cy="2850" r="45.1351666838205" fill="chartreuse"/><text x="130" y="2857.5" fill="black">2018</text><text x="210" y="2857.5" fill="black">Blinded Napoleon; Box Cutter Rat; Chisel the Flag; Draw The Raised Bridge; Go Flock Yourself; Rat Couple; Seal Mural; Season's Greetings</text><rect x="250" y="2900" width="0" height="30" fill="#FF8B3D"/><rect x="250" y="2900" width="80" height="30" fill="teal"/></g><g class="year"><circle cx="50" cy="2850" r="45.1351666838205" fill="chartreuse"/><text x="130" y="2857.5" fill="black">2018</text><text x="210" y="2857.5" fill="black">Blinded Napoleon; Box Cutter Rat; Chisel the Flag; Draw The Raised Bridge; Go Flock Yourself; Rat Couple; Seal Mural; Season's Greetings</text><rect x="250" y="2900" width="0" height="30" fill="#FF8B3D"/><rect x="250" y="2900" width="80" height="30" fill="teal"/></g><g class="year"><circle cx="50" cy="900" r="39.49327084834294" fill="chartreuse"/><text x="130" y="907.5" fill="black">2005</text><text x="210" y="907.5" fill="black">CND Soldiers; Grim Reaper; Jack &amp; Jill; Kate Moss; Snorting Copper; Soldiers Painting CND Sign; Think Tank</text><rect x="250" y="950" width="40" height="30" fill="#FF8B3D"/><rect x="290" y="950" width="30" height="30" fill="teal"/></g><g class="year"><circle cx="50" cy="2100" r="22.56758334191025" fill="chartreuse"/><text x="130" y="2107.5" fill="black">2013</text><text x="210" y="2107.5" fill="black">Bronx Zoo; Graffiti Is A Crime; Graffiti is a Crime; Hammer Boy</text><rect x="250" y="2150" width="0" height="30" fill="#FF8B3D"/><rect x="250" y="2150" width="40" height="30" fill="teal"/></g><g class="year"><circle cx="50" cy="1950" r="22.56758334191025" fill="chartreuse"/><text x="130" y="1957.5" fill="black">2012</text><text x="210" y="1957.5" fill="black">Fridge Kite; Javelin Thrower; Love Hurts; Slave Labour</text><rect x="250" y="2000" width="10" height="30" fill="#FF8B3D"/><rect x="260" y="2000" width="30" height="30" fill="teal"/></g><g class="year"><circle cx="50" cy="1350" r="33.851375012865375" fill="chartreuse"/><text x="130" y="1357.5" fill="black">2008</text><text x="210" y="1357.5" fill="black">Bubble Slide Girl; Gorilla Artist; I Love You; Injured Buddha; NOLA; One Nation Under CCTV</text><rect x="250" y="1400" width="10" height="30" fill="#FF8B3D"/><rect x="260" y="1400" width="50" height="30" fill="teal"/></g><g class="year"><circle cx="50" cy="2100" r="22.56758334191025" fill="chartreuse"/><text x="130" y="2107.5" fill="black">2013</text><text x="210" y="2107.5" fill="black">Bronx Zoo; Graffiti Is A Crime; Graffiti is a Crime; Hammer Boy</text><rect x="250" y="2150" width="0" height="30" fill="#FF8B3D"/><rect x="250" y="2150" width="40" height="30" fill="teal"/></g><g class="year"><circle cx="50" cy="600" r="73.34464586120832" fill="chartreuse"/><text x="130" y="607.5" fill="black">2003</text><text x="210" y="607.5" fill="black">Bomb Hugger; Bomb Middle England; Flying Copper; Golf Sale; HMV; Happy Choppers; Ice Cream Bomb; Laugh Now; Love Is In The Air; Monkey Queen; Queen Victoria; Turf War</text><rect x="250" y="650" width="110" height="30" fill="#FF8B3D"/><rect x="360" y="650" width="20" height="30" fill="teal"/></g><g class="year"><circle cx="50" cy="1350" r="33.851375012865375" fill="chartreuse"/><text x="130" y="1357.5" fill="black">2008</text><text x="210" y="1357.5" fill="black">Bubble Slide Girl; Gorilla Artist; I Love You; Injured Buddha; NOLA; One Nation Under CCTV</text><rect x="250" y="1400" width="10" height="30" fill="#FF8B3D"/><rect x="260" y="1400" width="50" height="30" fill="teal"/></g><g class="year"><circle cx="50" cy="1200" r="33.851375012865375" fill="chartreuse"/><text x="130" y="1207.5" fill="black">2007</text><text x="210" y="1207.5" fill="black">Cash Machine Girl; Fallen Angel; Girl with Skipping Rope; Looting Soldier; Space Girl with Bird; Stop and Search</text><rect x="250" y="1250" width="0" height="30" fill="#FF8B3D"/><rect x="250" y="1250" width="60" height="30" fill="teal"/></g><g class="year"><circle cx="50" cy="750" r="62.060854190253195" fill="chartreuse"/><text x="130" y="757.5" fill="black">2004</text><text x="210" y="757.5" fill="black">Barcode; Because I'm Worthless; Christ with Shopping Bags; Di Faced Tenners; Gangsta Rat; Get Out While You Can; I Fought The Law; Love Rat; Napalm; Naplam Girl; Pulp Fiction</text><rect x="250" y="800" width="100" height="30" fill="#FF8B3D"/><rect x="350" y="800" width="10" height="30" fill="teal"/></g><g class="year"><circle cx="50" cy="1200" r="33.851375012865375" fill="chartreuse"/><text x="130" y="1207.5" fill="black">2007</text><text x="210" y="1207.5" fill="black">Cash Machine Girl; Fallen Angel; Girl with Skipping Rope; Looting Soldier; Space Girl with Bird; Stop and Search</text><rect x="250" y="1250" width="0" height="30" fill="#FF8B3D"/><rect x="250" y="1250" width="60" height="30" fill="teal"/></g><g class="year"><circle cx="50" cy="1050" r="45.1351666838205" fill="chartreuse"/><text x="130" y="1057.5" fill="black">2006</text><text x="210" y="1057.5" fill="black">Applause; Festival; Flags; Gangsta Rat; Grannies; Old Skool; Sweep it Under the Carpet; Well, Hung Lover</text><rect x="250" y="1100" width="40" height="30" fill="#FF8B3D"/><rect x="290" y="1100" width="40" height="30" fill="teal"/></g><g class="year"><circle cx="50" cy="1050" r="45.1351666838205" fill="chartreuse"/><text x="130" y="1057.5" fill="black">2006</text><text x="210" y="1057.5" fill="black">Applause; Festival; Flags; Gangsta Rat; Grannies; Old Skool; Sweep it Under the Carpet; Well, Hung Lover</text><rect x="250" y="1100" width="40" height="30" fill="#FF8B3D"/><rect x="290" y="1100" width="40" height="30" fill="teal"/></g><g class="year"><circle cx="50" cy="600" r="73.34464586120832" fill="chartreuse"/><text x="130" y="607.5" fill="black">2003</text><text x="210" y="607.5" fill="black">Bomb Hugger; Bomb Middle England; Flying Copper; Golf Sale; HMV; Happy Choppers; Ice Cream Bomb; Laugh Now; Love Is In The Air; Monkey Queen; Queen Victoria; Turf War</text><rect x="250" y="650" width="110" height="30" fill="#FF8B3D"/><rect x="360" y="650" width="20" height="30" fill="teal"/></g><g class="year"><circle cx="50" cy="600" r="73.34464586120832" fill="chartreuse"/><text x="130" y="607.5" fill="black">2003</text><text x="210" y="607.5" fill="black">Bomb Hugger; Bomb Middle England; Flying Copper; Golf Sale; HMV; Happy Choppers; Ice Cream Bomb; Laugh Now; Love Is In The Air; Monkey Queen; Queen Victoria; Turf War</text><rect x="250" y="650" width="110" height="30" fill="#FF8B3D"/><rect x="360" y="650" width="20" height="30" fill="teal"/></g><g class="year"><circle cx="50" cy="750" r="62.060854190253195" fill="chartreuse"/><text x="130" y="757.5" fill="black">2004</text><text x="210" y="757.5" fill="black">Barcode; Because I'm Worthless; Christ with Shopping Bags; Di Faced Tenners; Gangsta Rat; Get Out While You Can; I Fought The Law; Love Rat; Napalm; Naplam Girl; Pulp Fiction</text><rect x="250" y="800" width="100" height="30" fill="#FF8B3D"/><rect x="350" y="800" width="10" height="30" fill="teal"/></g><g class="year"><circle cx="50" cy="1650" r="33.851375012865375" fill="chartreuse"/><text x="130" y="1657.5" fill="black">2010</text><text x="210" y="1657.5" fill="black">Cameraman and Flower; Choose Your Weapon; Interest in People; No Future; No Trespassing ; Swing Girl</text><rect x="250" y="1700" width="10" height="30" fill="#FF8B3D"/><rect x="260" y="1700" width="50" height="30" fill="teal"/></g><g class="year"><circle cx="50" cy="1200" r="33.851375012865375" fill="chartreuse"/><text x="130" y="1207.5" fill="black">2007</text><text x="210" y="1207.5" fill="black">Cash Machine Girl; Fallen Angel; Girl with Skipping Rope; Looting Soldier; Space Girl with Bird; Stop and Search</text><rect x="250" y="1250" width="0" height="30" fill="#FF8B3D"/><rect x="250" y="1250" width="60" height="30" fill="teal"/></g><g class="year"><circle cx="50" cy="2850" r="45.1351666838205" fill="chartreuse"/><text x="130" y="2857.5" fill="black">2018</text><text x="210" y="2857.5" fill="black">Blinded Napoleon; Box Cutter Rat; Chisel the Flag; Draw The Raised Bridge; Go Flock Yourself; Rat Couple; Seal Mural; Season's Greetings</text><rect x="250" y="2900" width="0" height="30" fill="#FF8B3D"/><rect x="250" y="2900" width="80" height="30" fill="teal"/></g><g class="year"><circle cx="50" cy="750" r="62.060854190253195" fill="chartreuse"/><text x="130" y="757.5" fill="black">2004</text><text x="210" y="757.5" fill="black">Barcode; Because I'm Worthless; Christ with Shopping Bags; Di Faced Tenners; Gangsta Rat; Get Out While You Can; I Fought The Law; Love Rat; Napalm; Naplam Girl; Pulp Fiction</text><rect x="250" y="800" width="100" height="30" fill="#FF8B3D"/><rect x="350" y="800" width="10" height="30" fill="teal"/></g><g class="year"><circle cx="50" cy="450" r="11.283791670955125" fill="chartreuse"/><text x="130" y="457.5" fill="black">2002</text><text x="210" y="457.5" fill="black">Choose Your Weapon; Girl with Balloon</text><rect x="250" y="500" width="0" height="30" fill="#FF8B3D"/><rect x="250" y="500" width="20" height="30" fill="teal"/></g><g class="year"><circle cx="50" cy="1350" r="33.851375012865375" fill="chartreuse"/><text x="130" y="1357.5" fill="black">2008</text><text x="210" y="1357.5" fill="black">Bubble Slide Girl; Gorilla Artist; I Love You; Injured Buddha; NOLA; One Nation Under CCTV</text><rect x="250" y="1400" width="10" height="30" fill="#FF8B3D"/><rect x="260" y="1400" width="50" height="30" fill="teal"/></g><g class="year"><circle cx="50" cy="600" r="73.34464586120832" fill="chartreuse"/><text x="130" y="607.5" fill="black">2003</text><text x="210" y="607.5" fill="black">Bomb Hugger; Bomb Middle England; Flying Copper; Golf Sale; HMV; Happy Choppers; Ice Cream Bomb; Laugh Now; Love Is In The Air; Monkey Queen; Queen Victoria; Turf War</text><rect x="250" y="650" width="110" height="30" fill="#FF8B3D"/><rect x="360" y="650" width="20" height="30" fill="teal"/></g><g class="year"><circle cx="50" cy="1950" r="22.56758334191025" fill="chartreuse"/><text x="130" y="1957.5" fill="black">2012</text><text x="210" y="1957.5" fill="black">Fridge Kite; Javelin Thrower; Love Hurts; Slave Labour</text><rect x="250" y="2000" width="10" height="30" fill="#FF8B3D"/><rect x="260" y="2000" width="30" height="30" fill="teal"/></g><g class="year"><circle cx="50" cy="600" r="73.34464586120832" fill="chartreuse"/><text x="130" y="607.5" fill="black">2003</text><text x="210" y="607.5" fill="black">Bomb Hugger; Bomb Middle England; Flying Copper; Golf Sale; HMV; Happy Choppers; Ice Cream Bomb; Laugh Now; Love Is In The Air; Monkey Queen; Queen Victoria; Turf War</text><rect x="250" y="650" width="110" height="30" fill="#FF8B3D"/><rect x="360" y="650" width="20" height="30" fill="teal"/></g><g class="year"><circle cx="50" cy="2850" r="45.1351666838205" fill="chartreuse"/><text x="130" y="2857.5" fill="black">2018</text><text x="210" y="2857.5" fill="black">Blinded Napoleon; Box Cutter Rat; Chisel the Flag; Draw The Raised Bridge; Go Flock Yourself; Rat Couple; Seal Mural; Season's Greetings</text><rect x="250" y="2900" width="0" height="30" fill="#FF8B3D"/><rect x="250" y="2900" width="80" height="30" fill="teal"/></g><g class="year"><circle cx="50" cy="2250" r="16.925687506432688" fill="chartreuse"/><text x="130" y="2257.5" fill="black">2014</text><text x="210" y="2257.5" fill="black">Drunk Angel; Dumbo; Love is the Answer</text><rect x="250" y="2300" width="10" height="30" fill="#FF8B3D"/><rect x="260" y="2300" width="20" height="30" fill="teal"/></g><g class="year"><circle cx="50" cy="300" r="5.641895835477563" fill="chartreuse"/><text x="130" y="307.5" fill="black">2001</text><text x="210" y="307.5" fill="black">Love Is In The Air (CCCP)</text><rect x="250" y="350" width="10" height="30" fill="#FF8B3D"/><rect x="260" y="350" width="0" height="30" fill="teal"/></g><g class="year"><circle cx="50" cy="1500" r="28.209479177387813" fill="chartreuse"/><text x="130" y="1507.5" fill="black">2009</text><text x="210" y="1507.5" fill="black">Don't Forget your Scarf; Donuts; Kentucky Fox; No Ball Games; Thug for Life Bunny</text><rect x="250" y="1550" width="20" height="30" fill="#FF8B3D"/><rect x="270" y="1550" width="30" height="30" fill="teal"/></g><g class="year"><circle cx="50" cy="2250" r="16.925687506432688" fill="chartreuse"/><text x="130" y="2257.5" fill="black">2014</text><text x="210" y="2257.5" fill="black">Drunk Angel; Dumbo; Love is the Answer</text><rect x="250" y="2300" width="10" height="30" fill="#FF8B3D"/><rect x="260" y="2300" width="20" height="30" fill="teal"/></g><g class="year"><circle cx="50" cy="600" r="73.34464586120832" fill="chartreuse"/><text x="130" y="607.5" fill="black">2003</text><text x="210" y="607.5" fill="black">Bomb Hugger; Bomb Middle England; Flying Copper; Golf Sale; HMV; Happy Choppers; Ice Cream Bomb; Laugh Now; Love Is In The Air; Monkey Queen; Queen Victoria; Turf War</text><rect x="250" y="650" width="110" height="30" fill="#FF8B3D"/><rect x="360" y="650" width="20" height="30" fill="teal"/></g><g class="year"><circle cx="50" cy="2400" r="28.209479177387813" fill="chartreuse"/><text x="130" y="2407.5" fill="black">2015</text><text x="210" y="2407.5" fill="black">Crying Woman; Gaza Kitty; I want change; The Son Of A Migrant From Syria; Watchtower Swing</text><rect x="250" y="2450" width="0" height="30" fill="#FF8B3D"/><rect x="250" y="2450" width="50" height="30" fill="teal"/></g><g class="year"><circle cx="50" cy="1800" r="39.49327084834294" fill="chartreuse"/><text x="130" y="1807.5" fill="black">2011</text><text x="210" y="1807.5" fill="black">Baby Carriage; Child Soldier; Follow your Dreams - Canceled; Take this Society; Tap Phoned; Tox; Toxic Rat</text><rect x="250" y="1850" width="0" height="30" fill="#FF8B3D"/><rect x="250" y="1850" width="70" height="30" fill="teal"/></g><g class="year"><circle cx="50" cy="750" r="62.060854190253195" fill="chartreuse"/><text x="130" y="757.5" fill="black">2004</text><text x="210" y="757.5" fill="black">Barcode; Because I'm Worthless; Christ with Shopping Bags; Di Faced Tenners; Gangsta Rat; Get Out While You Can; I Fought The Law; Love Rat; Napalm; Naplam Girl; Pulp Fiction</text><rect x="250" y="800" width="100" height="30" fill="#FF8B3D"/><rect x="350" y="800" width="10" height="30" fill="teal"/></g><g class="year"><circle cx="50" cy="2250" r="16.925687506432688" fill="chartreuse"/><text x="130" y="2257.5" fill="black">2014</text><text x="210" y="2257.5" fill="black">Drunk Angel; Dumbo; Love is the Answer</text><rect x="250" y="2300" width="10" height="30" fill="#FF8B3D"/><rect x="260" y="2300" width="20" height="30" fill="teal"/></g><g class="year"><circle cx="50" cy="1650" r="33.851375012865375" fill="chartreuse"/><text x="130" y="1657.5" fill="black">2010</text><text x="210" y="1657.5" fill="black">Cameraman and Flower; Choose Your Weapon; Interest in People; No Future; No Trespassing ; Swing Girl</text><rect x="250" y="1700" width="10" height="30" fill="#FF8B3D"/><rect x="260" y="1700" width="50" height="30" fill="teal"/></g><g class="year"><circle cx="50" cy="1050" r="45.1351666838205" fill="chartreuse"/><text x="130" y="1057.5" fill="black">2006</text><text x="210" y="1057.5" fill="black">Applause; Festival; Flags; Gangsta Rat; Grannies; Old Skool; Sweep it Under the Carpet; Well, Hung Lover</text><rect x="250" y="1100" width="40" height="30" fill="#FF8B3D"/><rect x="290" y="1100" width="40" height="30" fill="teal"/></g><g class="year"><circle cx="50" cy="1350" r="33.851375012865375" fill="chartreuse"/><text x="130" y="1357.5" fill="black">2008</text><text x="210" y="1357.5" fill="black">Bubble Slide Girl; Gorilla Artist; I Love You; Injured Buddha; NOLA; One Nation Under CCTV</text><rect x="250" y="1400" width="10" height="30" fill="#FF8B3D"/><rect x="260" y="1400" width="50" height="30" fill="teal"/></g><g class="year"><circle cx="50" cy="2400" r="28.209479177387813" fill="chartreuse"/><text x="130" y="2407.5" fill="black">2015</text><text x="210" y="2407.5" fill="black">Crying Woman; Gaza Kitty; I want change; The Son Of A Migrant From Syria; Watchtower Swing</text><rect x="250" y="2450" width="0" height="30" fill="#FF8B3D"/><rect x="250" y="2450" width="50" height="30" fill="teal"/></g><g class="year"><circle cx="50" cy="750" r="62.060854190253195" fill="chartreuse"/><text x="130" y="757.5" fill="black">2004</text><text x="210" y="757.5" fill="black">Barcode; Because I'm Worthless; Christ with Shopping Bags; Di Faced Tenners; Gangsta Rat; Get Out While You Can; I Fought The Law; Love Rat; Napalm; Naplam Girl; Pulp Fiction</text><rect x="250" y="800" width="100" height="30" fill="#FF8B3D"/><rect x="350" y="800" width="10" height="30" fill="teal"/></g><g class="year"><circle cx="50" cy="2850" r="45.1351666838205" fill="chartreuse"/><text x="130" y="2857.5" fill="black">2018</text><text x="210" y="2857.5" fill="black">Blinded Napoleon; Box Cutter Rat; Chisel the Flag; Draw The Raised Bridge; Go Flock Yourself; Rat Couple; Seal Mural; Season's Greetings</text><rect x="250" y="2900" width="0" height="30" fill="#FF8B3D"/><rect x="250" y="2900" width="80" height="30" fill="teal"/></g><g class="year"><circle cx="50" cy="900" r="39.49327084834294" fill="chartreuse"/><text x="130" y="907.5" fill="black">2005</text><text x="210" y="907.5" fill="black">CND Soldiers; Grim Reaper; Jack &amp; Jill; Kate Moss; Snorting Copper; Soldiers Painting CND Sign; Think Tank</text><rect x="250" y="950" width="40" height="30" fill="#FF8B3D"/><rect x="290" y="950" width="30" height="30" fill="teal"/></g><g class="year"><circle cx="50" cy="1200" r="33.851375012865375" fill="chartreuse"/><text x="130" y="1207.5" fill="black">2007</text><text x="210" y="1207.5" fill="black">Cash Machine Girl; Fallen Angel; Girl with Skipping Rope; Looting Soldier; Space Girl with Bird; Stop and Search</text><rect x="250" y="1250" width="0" height="30" fill="#FF8B3D"/><rect x="250" y="1250" width="60" height="30" fill="teal"/></g><g class="year"><circle cx="50" cy="1050" r="45.1351666838205" fill="chartreuse"/><text x="130" y="1057.5" fill="black">2006</text><text x="210" y="1057.5" fill="black">Applause; Festival; Flags; Gangsta Rat; Grannies; Old Skool; Sweep it Under the Carpet; Well, Hung Lover</text><rect x="250" y="1100" width="40" height="30" fill="#FF8B3D"/><rect x="290" y="1100" width="40" height="30" fill="teal"/></g><g class="year"><circle cx="50" cy="2100" r="22.56758334191025" fill="chartreuse"/><text x="130" y="2107.5" fill="black">2013</text><text x="210" y="2107.5" fill="black">Bronx Zoo; Graffiti Is A Crime; Graffiti is a Crime; Hammer Boy</text><rect x="250" y="2150" width="0" height="30" fill="#FF8B3D"/><rect x="250" y="2150" width="40" height="30" fill="teal"/></g><g class="year"><circle cx="50" cy="750" r="62.060854190253195" fill="chartreuse"/><text x="130" y="757.5" fill="black">2004</text><text x="210" y="757.5" fill="black">Barcode; Because I'm Worthless; Christ with Shopping Bags; Di Faced Tenners; Gangsta Rat; Get Out While You Can; I Fought The Law; Love Rat; Napalm; Naplam Girl; Pulp Fiction</text><rect x="250" y="800" width="100" height="30" fill="#FF8B3D"/><rect x="350" y="800" width="10" height="30" fill="teal"/></g><g class="year"><circle cx="50" cy="1050" r="45.1351666838205" fill="chartreuse"/><text x="130" y="1057.5" fill="black">2006</text><text x="210" y="1057.5" fill="black">Applause; Festival; Flags; Gangsta Rat; Grannies; Old Skool; Sweep it Under the Carpet; Well, Hung Lover</text><rect x="250" y="1100" width="40" height="30" fill="#FF8B3D"/><rect x="290" y="1100" width="40" height="30" fill="teal"/></g><g class="year"><circle cx="50" cy="2400" r="28.209479177387813" fill="chartreuse"/><text x="130" y="2407.5" fill="black">2015</text><text x="210" y="2407.5" fill="black">Crying Woman; Gaza Kitty; I want change; The Son Of A Migrant From Syria; Watchtower Swing</text><rect x="250" y="2450" width="0" height="30" fill="#FF8B3D"/><rect x="250" y="2450" width="50" height="30" fill="teal"/></g><g class="year"><circle cx="50" cy="2100" r="22.56758334191025" fill="chartreuse"/><text x="130" y="2107.5" fill="black">2013</text><text x="210" y="2107.5" fill="black">Bronx Zoo; Graffiti Is A Crime; Graffiti is a Crime; Hammer Boy</text><rect x="250" y="2150" width="0" height="30" fill="#FF8B3D"/><rect x="250" y="2150" width="40" height="30" fill="teal"/></g><g class="year"><circle cx="50" cy="1050" r="45.1351666838205" fill="chartreuse"/><text x="130" y="1057.5" fill="black">2006</text><text x="210" y="1057.5" fill="black">Applause; Festival; Flags; Gangsta Rat; Grannies; Old Skool; Sweep it Under the Carpet; Well, Hung Lover</text><rect x="250" y="1100" width="40" height="30" fill="#FF8B3D"/><rect x="290" y="1100" width="40" height="30" fill="teal"/></g><g class="year"><circle cx="50" cy="750" r="62.060854190253195" fill="chartreuse"/><text x="130" y="757.5" fill="black">2004</text><text x="210" y="757.5" fill="black">Barcode; Because I'm Worthless; Christ with Shopping Bags; Di Faced Tenners; Gangsta Rat; Get Out While You Can; I Fought The Law; Love Rat; Napalm; Naplam Girl; Pulp Fiction</text><rect x="250" y="800" width="100" height="30" fill="#FF8B3D"/><rect x="350" y="800" width="10" height="30" fill="teal"/></g><g class="year"><circle cx="50" cy="1500" r="28.209479177387813" fill="chartreuse"/><text x="130" y="1507.5" fill="black">2009</text><text x="210" y="1507.5" fill="black">Don't Forget your Scarf; Donuts; Kentucky Fox; No Ball Games; Thug for Life Bunny</text><rect x="250" y="1550" width="20" height="30" fill="#FF8B3D"/><rect x="270" y="1550" width="30" height="30" fill="teal"/></g><g class="year"><circle cx="50" cy="750" r="62.060854190253195" fill="chartreuse"/><text x="130" y="757.5" fill="black">2004</text><text x="210" y="757.5" fill="black">Barcode; Because I'm Worthless; Christ with Shopping Bags; Di Faced Tenners; Gangsta Rat; Get Out While You Can; I Fought The Law; Love Rat; Napalm; Naplam Girl; Pulp Fiction</text><rect x="250" y="800" width="100" height="30" fill="#FF8B3D"/><rect x="350" y="800" width="10" height="30" fill="teal"/></g><g class="year"><circle cx="50" cy="900" r="39.49327084834294" fill="chartreuse"/><text x="130" y="907.5" fill="black">2005</text><text x="210" y="907.5" fill="black">CND Soldiers; Grim Reaper; Jack &amp; Jill; Kate Moss; Snorting Copper; Soldiers Painting CND Sign; Think Tank</text><rect x="250" y="950" width="40" height="30" fill="#FF8B3D"/><rect x="290" y="950" width="30" height="30" fill="teal"/></g><g class="year"><circle cx="50" cy="900" r="39.49327084834294" fill="chartreuse"/><text x="130" y="907.5" fill="black">2005</text><text x="210" y="907.5" fill="black">CND Soldiers; Grim Reaper; Jack &amp; Jill; Kate Moss; Snorting Copper; Soldiers Painting CND Sign; Think Tank</text><rect x="250" y="950" width="40" height="30" fill="#FF8B3D"/><rect x="290" y="950" width="30" height="30" fill="teal"/></g><g class="year"><circle cx="50" cy="750" r="62.060854190253195" fill="chartreuse"/><text x="130" y="757.5" fill="black">2004</text><text x="210" y="757.5" fill="black">Barcode; Because I'm Worthless; Christ with Shopping Bags; Di Faced Tenners; Gangsta Rat; Get Out While You Can; I Fought The Law; Love Rat; Napalm; Naplam Girl; Pulp Fiction</text><rect x="250" y="800" width="100" height="30" fill="#FF8B3D"/><rect x="350" y="800" width="10" height="30" fill="teal"/></g><g class="year"><circle cx="50" cy="600" r="73.34464586120832" fill="chartreuse"/><text x="130" y="607.5" fill="black">2003</text><text x="210" y="607.5" fill="black">Bomb Hugger; Bomb Middle England; Flying Copper; Golf Sale; HMV; Happy Choppers; Ice Cream Bomb; Laugh Now; Love Is In The Air; Monkey Queen; Queen Victoria; Turf War</text><rect x="250" y="650" width="110" height="30" fill="#FF8B3D"/><rect x="360" y="650" width="20" height="30" fill="teal"/></g><g class="year"><circle cx="50" cy="600" r="73.34464586120832" fill="chartreuse"/><text x="130" y="607.5" fill="black">2003</text><text x="210" y="607.5" fill="black">Bomb Hugger; Bomb Middle England; Flying Copper; Golf Sale; HMV; Happy Choppers; Ice Cream Bomb; Laugh Now; Love Is In The Air; Monkey Queen; Queen Victoria; Turf War</text><rect x="250" y="650" width="110" height="30" fill="#FF8B3D"/><rect x="360" y="650" width="20" height="30" fill="teal"/></g></g></svg>