<?xml version="1.0" encoding="UTF-8"?>
<svg xmlns="http://www.w3.org/2000/svg" viewBox="0 0 2400 700">
(: Originally we were working with: width="2000" height="500"
 : Look at the SVG viewBox attribute: set this to stretch from 0 0 to a set of max values for X and Y: the larger these are the smaller the plot shrinks.
 : try to start: viewBox="0 0 3000 1500"
 : Try removing the width and height attributes and adding a viewBox instead, scaling the coordinate system. :)
<g transform="translate(25, 500)"><!--Draw my X and Y axes up here! --><line x1="20" y1="0" x2="2400" y2="0" stroke="black" stroke-width="2"/><!--X axis above here --><line x1="20" y1="0" x2="20" y2="-400" stroke="black" stroke-width="2"/><!--Y axis above here --><g><text x="50" y="-550" style="font-size:1.3em;">Color Key:</text><circle cx="80" cy="-480" r="60" fill="blue"/><text x="50" y="-480" fill="white" style="font-size:1.5em;">Action</text><circle cx="210" cy="-480" r="60" fill="pink"/><text x="170" y="-480" fill="black" style="font-size:1.5em;">Speakers</text><circle cx="80" cy="-275" r="15" stroke="black" fill="blue"/><text x="72" y="-270" fill="white">24</text><line x1="80" y1="-240" x2="80" y2="0" stroke="blue" stroke-width="30"/><text x="95" y="20" style="writing-mode: tb; glyph-orientation-vertical:0">intro</text><circle cx="110" cy="-140" r="15" stroke="black" fill="pink"/><text x="102" y="-135" fill="black">11</text><line x1="110" y1="-110" x2="110" y2="0" stroke="pink" stroke-width="30"/></g><g><text x="50" y="-550" style="font-size:1.3em;">Color Key:</text><circle cx="80" cy="-480" r="60" fill="blue"/><text x="50" y="-480" fill="white" style="font-size:1.5em;">Action</text><circle cx="210" cy="-480" r="60" fill="pink"/><text x="170" y="-480" fill="black" style="font-size:1.5em;">Speakers</text><circle cx="160" cy="-185" r="15" stroke="black" fill="blue"/><text x="152" y="-180" fill="white">15</text><line x1="160" y1="-150" x2="160" y2="0" stroke="blue" stroke-width="30"/><text x="175" y="20" style="writing-mode: tb; glyph-orientation-vertical:0">Another Day, Another Drachma</text><circle cx="190" cy="-150" r="15" stroke="black" fill="pink"/><text x="182" y="-145" fill="black">12</text><line x1="190" y1="-120" x2="190" y2="0" stroke="pink" stroke-width="30"/></g><g><text x="50" y="-550" style="font-size:1.3em;">Color Key:</text><circle cx="80" cy="-480" r="60" fill="blue"/><text x="50" y="-480" fill="white" style="font-size:1.5em;">Action</text><circle cx="210" cy="-480" r="60" fill="pink"/><text x="170" y="-480" fill="black" style="font-size:1.5em;">Speakers</text><circle cx="240" cy="-365" r="15" stroke="black" fill="blue"/><text x="232" y="-360" fill="white">33</text><line x1="240" y1="-330" x2="240" y2="0" stroke="blue" stroke-width="30"/><text x="255" y="20" style="writing-mode: tb; glyph-orientation-vertical:0">A Debt to Pay</text><circle cx="270" cy="-170" r="15" stroke="black" fill="pink"/><text x="262" y="-165" fill="black">14</text><line x1="270" y1="-140" x2="270" y2="0" stroke="pink" stroke-width="30"/></g><g><text x="50" y="-550" style="font-size:1.3em;">Color Key:</text><circle cx="80" cy="-480" r="60" fill="blue"/><text x="50" y="-480" fill="white" style="font-size:1.5em;">Action</text><circle cx="210" cy="-480" r="60" fill="pink"/><text x="170" y="-480" fill="black" style="font-size:1.5em;">Speakers</text><circle cx="320" cy="-325" r="15" stroke="black" fill="blue"/><text x="312" y="-320" fill="white">29</text><line x1="320" y1="-290" x2="320" y2="0" stroke="blue" stroke-width="30"/><text x="335" y="20" style="writing-mode: tb; glyph-orientation-vertical:0">The Wolf Hunt</text><circle cx="350" cy="-190" r="15" stroke="black" fill="pink"/><text x="342" y="-185" fill="black">16</text><line x1="350" y1="-160" x2="350" y2="0" stroke="pink" stroke-width="30"/></g><g><text x="50" y="-550" style="font-size:1.3em;">Color Key:</text><circle cx="80" cy="-480" r="60" fill="blue"/><text x="50" y="-480" fill="white" style="font-size:1.5em;">Action</text><circle cx="210" cy="-480" r="60" fill="pink"/><text x="170" y="-480" fill="black" style="font-size:1.5em;">Speakers</text><circle cx="400" cy="-65" r="15" stroke="black" fill="blue"/><text x="392" y="-60" fill="white">3</text><line x1="400" y1="-30" x2="400" y2="0" stroke="blue" stroke-width="30"/><text x="415" y="20" style="writing-mode: tb; glyph-orientation-vertical:0">The Wolf and Snake</text><circle cx="430" cy="-60" r="15" stroke="black" fill="pink"/><text x="422" y="-55" fill="black">3</text><line x1="430" y1="-30" x2="430" y2="0" stroke="pink" stroke-width="30"/></g><g><text x="50" y="-550" style="font-size:1.3em;">Color Key:</text><circle cx="80" cy="-480" r="60" fill="blue"/><text x="50" y="-480" fill="white" style="font-size:1.5em;">Action</text><circle cx="210" cy="-480" r="60" fill="pink"/><text x="170" y="-480" fill="black" style="font-size:1.5em;">Speakers</text><circle cx="480" cy="-125" r="15" stroke="black" fill="blue"/><text x="472" y="-120" fill="white">9</text><line x1="480" y1="-90" x2="480" y2="0" stroke="blue" stroke-width="30"/><text x="495" y="20" style="writing-mode: tb; glyph-orientation-vertical:0">Of Visions and Visionaries</text><circle cx="510" cy="-90" r="15" stroke="black" fill="pink"/><text x="502" y="-85" fill="black">6</text><line x1="510" y1="-60" x2="510" y2="0" stroke="pink" stroke-width="30"/></g><g><text x="50" y="-550" style="font-size:1.3em;">Color Key:</text><circle cx="80" cy="-480" r="60" fill="blue"/><text x="50" y="-480" fill="white" style="font-size:1.5em;">Action</text><circle cx="210" cy="-480" r="60" fill="pink"/><text x="170" y="-480" fill="black" style="font-size:1.5em;">Speakers</text><circle cx="560" cy="-215" r="15" stroke="black" fill="blue"/><text x="552" y="-210" fill="white">18</text><line x1="560" y1="-180" x2="560" y2="0" stroke="blue" stroke-width="30"/><text x="575" y="20" style="writing-mode: tb; glyph-orientation-vertical:0">Beware the Snakes</text><circle cx="590" cy="-90" r="15" stroke="black" fill="pink"/><text x="582" y="-85" fill="black">6</text><line x1="590" y1="-60" x2="590" y2="0" stroke="pink" stroke-width="30"/></g><g><text x="50" y="-550" style="font-size:1.3em;">Color Key:</text><circle cx="80" cy="-480" r="60" fill="blue"/><text x="50" y="-480" fill="white" style="font-size:1.5em;">Action</text><circle cx="210" cy="-480" r="60" fill="pink"/><text x="170" y="-480" fill="black" style="font-size:1.5em;">Speakers</text><circle cx="640" cy="-155" r="15" stroke="black" fill="blue"/><text x="632" y="-150" fill="white">12</text><line x1="640" y1="-120" x2="640" y2="0" stroke="blue" stroke-width="30"/><text x="655" y="20" style="writing-mode: tb; glyph-orientation-vertical:0">An Old Enemy and a New Ally</text><circle cx="670" cy="-150" r="15" stroke="black" fill="pink"/><text x="662" y="-145" fill="black">12</text><line x1="670" y1="-120" x2="670" y2="0" stroke="pink" stroke-width="30"/></g><g><text x="50" y="-550" style="font-size:1.3em;">Color Key:</text><circle cx="80" cy="-480" r="60" fill="blue"/><text x="50" y="-480" fill="white" style="font-size:1.5em;">Action</text><circle cx="210" cy="-480" r="60" fill="pink"/><text x="170" y="-480" fill="black" style="font-size:1.5em;">Speakers</text><circle cx="720" cy="-375" r="15" stroke="black" fill="blue"/><text x="712" y="-370" fill="white">34</text><line x1="720" y1="-340" x2="720" y2="0" stroke="blue" stroke-width="30"/><text x="735" y="20" style="writing-mode: tb; glyph-orientation-vertical:0">The Road to the Symposium</text><circle cx="750" cy="-260" r="15" stroke="black" fill="pink"/><text x="742" y="-255" fill="black">23</text><line x1="750" y1="-230" x2="750" y2="0" stroke="pink" stroke-width="30"/></g><g><text x="50" y="-550" style="font-size:1.3em;">Color Key:</text><circle cx="80" cy="-480" r="60" fill="blue"/><text x="50" y="-480" fill="white" style="font-size:1.5em;">Action</text><circle cx="210" cy="-480" r="60" fill="pink"/><text x="170" y="-480" fill="black" style="font-size:1.5em;">Speakers</text><circle cx="800" cy="-315" r="15" stroke="black" fill="blue"/><text x="792" y="-310" fill="white">28</text><line x1="800" y1="-280" x2="800" y2="0" stroke="blue" stroke-width="30"/><text x="815" y="20" style="writing-mode: tb; glyph-orientation-vertical:0">Land of the Lawless</text><circle cx="830" cy="-140" r="15" stroke="black" fill="pink"/><text x="822" y="-135" fill="black">11</text><line x1="830" y1="-110" x2="830" y2="0" stroke="pink" stroke-width="30"/></g><g><text x="50" y="-550" style="font-size:1.3em;">Color Key:</text><circle cx="80" cy="-480" r="60" fill="blue"/><text x="50" y="-480" fill="white" style="font-size:1.5em;">Action</text><circle cx="210" cy="-480" r="60" fill="pink"/><text x="170" y="-480" fill="black" style="font-size:1.5em;">Speakers</text><circle cx="880" cy="-355" r="15" stroke="black" fill="blue"/><text x="872" y="-350" fill="white">32</text><line x1="880" y1="-320" x2="880" y2="0" stroke="blue" stroke-width="30"/><text x="895" y="20" style="writing-mode: tb; glyph-orientation-vertical:0">A Prescription for Discovery</text><circle cx="910" cy="-190" r="15" stroke="black" fill="pink"/><text x="902" y="-185" fill="black">16</text><line x1="910" y1="-160" x2="910" y2="0" stroke="pink" stroke-width="30"/></g><g><text x="50" y="-550" style="font-size:1.3em;">Color Key:</text><circle cx="80" cy="-480" r="60" fill="blue"/><text x="50" y="-480" fill="white" style="font-size:1.5em;">Action</text><circle cx="210" cy="-480" r="60" fill="pink"/><text x="170" y="-480" fill="black" style="font-size:1.5em;">Speakers</text><circle cx="960" cy="-85" r="15" stroke="black" fill="blue"/><text x="952" y="-80" fill="white">5</text><line x1="960" y1="-50" x2="960" y2="0" stroke="blue" stroke-width="30"/><text x="975" y="20" style="writing-mode: tb; glyph-orientation-vertical:0">Pirate Hospitality</text><circle cx="990" cy="-80" r="15" stroke="black" fill="pink"/><text x="982" y="-75" fill="black">5</text><line x1="990" y1="-50" x2="990" y2="0" stroke="pink" stroke-width="30"/></g><g><text x="50" y="-550" style="font-size:1.3em;">Color Key:</text><circle cx="80" cy="-480" r="60" fill="blue"/><text x="50" y="-480" fill="white" style="font-size:1.5em;">Action</text><circle cx="210" cy="-480" r="60" fill="pink"/><text x="170" y="-480" fill="black" style="font-size:1.5em;">Speakers</text><circle cx="1040" cy="-215" r="15" stroke="black" fill="blue"/><text x="1032" y="-210" fill="white">18</text><line x1="1040" y1="-180" x2="1040" y2="0" stroke="blue" stroke-width="30"/><text x="1055" y="20" style="writing-mode: tb; glyph-orientation-vertical:0">Rising from the Ashes</text><circle cx="1070" cy="-130" r="15" stroke="black" fill="pink"/><text x="1062" y="-125" fill="black">10</text><line x1="1070" y1="-100" x2="1070" y2="0" stroke="pink" stroke-width="30"/></g><g><text x="50" y="-550" style="font-size:1.3em;">Color Key:</text><circle cx="80" cy="-480" r="60" fill="blue"/><text x="50" y="-480" fill="white" style="font-size:1.5em;">Action</text><circle cx="210" cy="-480" r="60" fill="pink"/><text x="170" y="-480" fill="black" style="font-size:1.5em;">Speakers</text><circle cx="1120" cy="-75" r="15" stroke="black" fill="blue"/><text x="1112" y="-70" fill="white">4</text><line x1="1120" y1="-40" x2="1120" y2="0" stroke="blue" stroke-width="30"/><text x="1135" y="20" style="writing-mode: tb; glyph-orientation-vertical:0">The Reunion</text><circle cx="1150" cy="-80" r="15" stroke="black" fill="pink"/><text x="1142" y="-75" fill="black">5</text><line x1="1150" y1="-50" x2="1150" y2="0" stroke="pink" stroke-width="30"/></g><g><text x="50" y="-550" style="font-size:1.3em;">Color Key:</text><circle cx="80" cy="-480" r="60" fill="blue"/><text x="50" y="-480" fill="white" style="font-size:1.5em;">Action</text><circle cx="210" cy="-480" r="60" fill="pink"/><text x="170" y="-480" fill="black" style="font-size:1.5em;">Speakers</text><circle cx="1200" cy="-255" r="15" stroke="black" fill="blue"/><text x="1192" y="-250" fill="white">22</text><line x1="1200" y1="-220" x2="1200" y2="0" stroke="blue" stroke-width="30"/><text x="1215" y="20" style="writing-mode: tb; glyph-orientation-vertical:0">Paradise Lost</text><circle cx="1230" cy="-160" r="15" stroke="black" fill="pink"/><text x="1222" y="-155" fill="black">13</text><line x1="1230" y1="-130" x2="1230" y2="0" stroke="pink" stroke-width="30"/></g><g><text x="50" y="-550" style="font-size:1.3em;">Color Key:</text><circle cx="80" cy="-480" r="60" fill="blue"/><text x="50" y="-480" fill="white" style="font-size:1.5em;">Action</text><circle cx="210" cy="-480" r="60" fill="pink"/><text x="170" y="-480" fill="black" style="font-size:1.5em;">Speakers</text><circle cx="1280" cy="-95" r="15" stroke="black" fill="blue"/><text x="1272" y="-90" fill="white">6</text><line x1="1280" y1="-60" x2="1280" y2="0" stroke="blue" stroke-width="30"/><text x="1295" y="20" style="writing-mode: tb; glyph-orientation-vertical:0">The Last Riddle</text><circle cx="1310" cy="-80" r="15" stroke="black" fill="pink"/><text x="1302" y="-75" fill="black">5</text><line x1="1310" y1="-50" x2="1310" y2="0" stroke="pink" stroke-width="30"/></g><g><text x="50" y="-550" style="font-size:1.3em;">Color Key:</text><circle cx="80" cy="-480" r="60" fill="blue"/><text x="50" y="-480" fill="white" style="font-size:1.5em;">Action</text><circle cx="210" cy="-480" r="60" fill="pink"/><text x="170" y="-480" fill="black" style="font-size:1.5em;">Speakers</text><circle cx="1360" cy="-435" r="15" stroke="black" fill="blue"/><text x="1352" y="-430" fill="white">40</text><line x1="1360" y1="-400" x2="1360" y2="0" stroke="blue" stroke-width="30"/><text x="1375" y="20" style="writing-mode: tb; glyph-orientation-vertical:0">A Place of Twists and Turns</text><circle cx="1390" cy="-150" r="15" stroke="black" fill="pink"/><text x="1382" y="-145" fill="black">12</text><line x1="1390" y1="-120" x2="1390" y2="0" stroke="pink" stroke-width="30"/></g><g><text x="50" y="-550" style="font-size:1.3em;">Color Key:</text><circle cx="80" cy="-480" r="60" fill="blue"/><text x="50" y="-480" fill="white" style="font-size:1.5em;">Action</text><circle cx="210" cy="-480" r="60" fill="pink"/><text x="170" y="-480" fill="black" style="font-size:1.5em;">Speakers</text><circle cx="1440" cy="-195" r="15" stroke="black" fill="blue"/><text x="1432" y="-190" fill="white">16</text><line x1="1440" y1="-160" x2="1440" y2="0" stroke="blue" stroke-width="30"/><text x="1455" y="20" style="writing-mode: tb; glyph-orientation-vertical:0">Home Is Where My Mother Is</text><circle cx="1470" cy="-140" r="15" stroke="black" fill="pink"/><text x="1462" y="-135" fill="black">11</text><line x1="1470" y1="-110" x2="1470" y2="0" stroke="pink" stroke-width="30"/></g><g><text x="50" y="-550" style="font-size:1.3em;">Color Key:</text><circle cx="80" cy="-480" r="60" fill="blue"/><text x="50" y="-480" fill="white" style="font-size:1.5em;">Action</text><circle cx="210" cy="-480" r="60" fill="pink"/><text x="170" y="-480" fill="black" style="font-size:1.5em;">Speakers</text><circle cx="1520" cy="-305" r="15" stroke="black" fill="blue"/><text x="1512" y="-300" fill="white">27</text><line x1="1520" y1="-270" x2="1520" y2="0" stroke="blue" stroke-width="30"/><text x="1535" y="20" style="writing-mode: tb; glyph-orientation-vertical:0">The Olympian</text><circle cx="1550" cy="-180" r="15" stroke="black" fill="pink"/><text x="1542" y="-175" fill="black">15</text><line x1="1550" y1="-150" x2="1550" y2="0" stroke="pink" stroke-width="30"/></g><g><text x="50" y="-550" style="font-size:1.3em;">Color Key:</text><circle cx="80" cy="-480" r="60" fill="blue"/><text x="50" y="-480" fill="white" style="font-size:1.5em;">Action</text><circle cx="210" cy="-480" r="60" fill="pink"/><text x="170" y="-480" fill="black" style="font-size:1.5em;">Speakers</text><circle cx="1600" cy="-165" r="15" stroke="black" fill="blue"/><text x="1592" y="-160" fill="white">13</text><line x1="1600" y1="-130" x2="1600" y2="0" stroke="blue" stroke-width="30"/><text x="1615" y="20" style="writing-mode: tb; glyph-orientation-vertical:0">The Cult and the Archon</text><circle cx="1630" cy="-140" r="15" stroke="black" fill="pink"/><text x="1622" y="-135" fill="black">11</text><line x1="1630" y1="-110" x2="1630" y2="0" stroke="pink" stroke-width="30"/></g><g><text x="50" y="-550" style="font-size:1.3em;">Color Key:</text><circle cx="80" cy="-480" r="60" fill="blue"/><text x="50" y="-480" fill="white" style="font-size:1.5em;">Action</text><circle cx="210" cy="-480" r="60" fill="pink"/><text x="170" y="-480" fill="black" style="font-size:1.5em;">Speakers</text><circle cx="1680" cy="-125" r="15" stroke="black" fill="blue"/><text x="1672" y="-120" fill="white">9</text><line x1="1680" y1="-90" x2="1680" y2="0" stroke="blue" stroke-width="30"/><text x="1695" y="20" style="writing-mode: tb; glyph-orientation-vertical:0">Paint It Red</text><circle cx="1710" cy="-70" r="15" stroke="black" fill="pink"/><text x="1702" y="-65" fill="black">4</text><line x1="1710" y1="-40" x2="1710" y2="0" stroke="pink" stroke-width="30"/></g><g><text x="50" y="-550" style="font-size:1.3em;">Color Key:</text><circle cx="80" cy="-480" r="60" fill="blue"/><text x="50" y="-480" fill="white" style="font-size:1.5em;">Action</text><circle cx="210" cy="-480" r="60" fill="pink"/><text x="170" y="-480" fill="black" style="font-size:1.5em;">Speakers</text><circle cx="1760" cy="-165" r="15" stroke="black" fill="blue"/><text x="1752" y="-160" fill="white">13</text><line x1="1760" y1="-130" x2="1760" y2="0" stroke="blue" stroke-width="30"/><text x="1775" y="20" style="writing-mode: tb; glyph-orientation-vertical:0">The Cultist King</text><circle cx="1790" cy="-120" r="15" stroke="black" fill="pink"/><text x="1782" y="-115" fill="black">9</text><line x1="1790" y1="-90" x2="1790" y2="0" stroke="pink" stroke-width="30"/></g><g><text x="50" y="-550" style="font-size:1.3em;">Color Key:</text><circle cx="80" cy="-480" r="60" fill="blue"/><text x="50" y="-480" fill="white" style="font-size:1.5em;">Action</text><circle cx="210" cy="-480" r="60" fill="pink"/><text x="170" y="-480" fill="black" style="font-size:1.5em;">Speakers</text><circle cx="1840" cy="-75" r="15" stroke="black" fill="blue"/><text x="1832" y="-70" fill="white">4</text><line x1="1840" y1="-40" x2="1840" y2="0" stroke="blue" stroke-width="30"/><text x="1855" y="20" style="writing-mode: tb; glyph-orientation-vertical:0">Uprising</text><circle cx="1870" cy="-100" r="15" stroke="black" fill="pink"/><text x="1862" y="-95" fill="black">7</text><line x1="1870" y1="-70" x2="1870" y2="0" stroke="pink" stroke-width="30"/></g><g><text x="50" y="-550" style="font-size:1.3em;">Color Key:</text><circle cx="80" cy="-480" r="60" fill="blue"/><text x="50" y="-480" fill="white" style="font-size:1.5em;">Action</text><circle cx="210" cy="-480" r="60" fill="pink"/><text x="170" y="-480" fill="black" style="font-size:1.5em;">Speakers</text><circle cx="1920" cy="-155" r="15" stroke="black" fill="blue"/><text x="1912" y="-150" fill="white">12</text><line x1="1920" y1="-120" x2="1920" y2="0" stroke="blue" stroke-width="30"/><text x="1935" y="20" style="writing-mode: tb; glyph-orientation-vertical:0">Public Opinion</text><circle cx="1950" cy="-130" r="15" stroke="black" fill="pink"/><text x="1942" y="-125" fill="black">10</text><line x1="1950" y1="-100" x2="1950" y2="0" stroke="pink" stroke-width="30"/></g><g><text x="50" y="-550" style="font-size:1.3em;">Color Key:</text><circle cx="80" cy="-480" r="60" fill="blue"/><text x="50" y="-480" fill="white" style="font-size:1.5em;">Action</text><circle cx="210" cy="-480" r="60" fill="pink"/><text x="170" y="-480" fill="black" style="font-size:1.5em;">Speakers</text><circle cx="2000" cy="-115" r="15" stroke="black" fill="blue"/><text x="1992" y="-110" fill="white">8</text><line x1="2000" y1="-80" x2="2000" y2="0" stroke="blue" stroke-width="30"/><text x="2015" y="20" style="writing-mode: tb; glyph-orientation-vertical:0">Battle of Amphipolis</text><circle cx="2030" cy="-70" r="15" stroke="black" fill="pink"/><text x="2022" y="-65" fill="black">4</text><line x1="2030" y1="-40" x2="2030" y2="0" stroke="pink" stroke-width="30"/></g><g><text x="50" y="-550" style="font-size:1.3em;">Color Key:</text><circle cx="80" cy="-480" r="60" fill="blue"/><text x="50" y="-480" fill="white" style="font-size:1.5em;">Action</text><circle cx="210" cy="-480" r="60" fill="pink"/><text x="170" y="-480" fill="black" style="font-size:1.5em;">Speakers</text><circle cx="2080" cy="-115" r="15" stroke="black" fill="blue"/><text x="2072" y="-110" fill="white">8</text><line x1="2080" y1="-80" x2="2080" y2="0" stroke="blue" stroke-width="30"/><text x="2095" y="20" style="writing-mode: tb; glyph-orientation-vertical:0">Homecoming</text><circle cx="2110" cy="-90" r="15" stroke="black" fill="pink"/><text x="2102" y="-85" fill="black">6</text><line x1="2110" y1="-60" x2="2110" y2="0" stroke="pink" stroke-width="30"/></g><g><text x="50" y="-550" style="font-size:1.3em;">Color Key:</text><circle cx="80" cy="-480" r="60" fill="blue"/><text x="50" y="-480" fill="white" style="font-size:1.5em;">Action</text><circle cx="210" cy="-480" r="60" fill="pink"/><text x="170" y="-480" fill="black" style="font-size:1.5em;">Speakers</text><circle cx="2160" cy="-75" r="15" stroke="black" fill="blue"/><text x="2152" y="-70" fill="white">4</text><line x1="2160" y1="-40" x2="2160" y2="0" stroke="blue" stroke-width="30"/><text x="2175" y="20" style="writing-mode: tb; glyph-orientation-vertical:0">From the Shadows</text><circle cx="2190" cy="-70" r="15" stroke="black" fill="pink"/><text x="2182" y="-65" fill="black">4</text><line x1="2190" y1="-40" x2="2190" y2="0" stroke="pink" stroke-width="30"/></g><g><text x="50" y="-550" style="font-size:1.3em;">Color Key:</text><circle cx="80" cy="-480" r="60" fill="blue"/><text x="50" y="-480" fill="white" style="font-size:1.5em;">Action</text><circle cx="210" cy="-480" r="60" fill="pink"/><text x="170" y="-480" fill="black" style="font-size:1.5em;">Speakers</text><circle cx="2240" cy="-225" r="15" stroke="black" fill="blue"/><text x="2232" y="-220" fill="white">19</text><line x1="2240" y1="-190" x2="2240" y2="0" stroke="blue" stroke-width="30"/><text x="2255" y="20" style="writing-mode: tb; glyph-orientation-vertical:0">Shadows of Serpents</text><circle cx="2270" cy="-80" r="15" stroke="black" fill="pink"/><text x="2262" y="-75" fill="black">5</text><line x1="2270" y1="-50" x2="2270" y2="0" stroke="pink" stroke-width="30"/></g><g><text x="50" y="-550" style="font-size:1.3em;">Color Key:</text><circle cx="80" cy="-480" r="60" fill="blue"/><text x="50" y="-480" fill="white" style="font-size:1.5em;">Action</text><circle cx="210" cy="-480" r="60" fill="pink"/><text x="170" y="-480" fill="black" style="font-size:1.5em;">Speakers</text><circle cx="2320" cy="-125" r="15" stroke="black" fill="blue"/><text x="2312" y="-120" fill="white">9</text><line x1="2320" y1="-90" x2="2320" y2="0" stroke="blue" stroke-width="30"/><text x="2335" y="20" style="writing-mode: tb; glyph-orientation-vertical:0">The Gates of Atlantis</text><circle cx="2350" cy="-120" r="15" stroke="black" fill="pink"/><text x="2342" y="-115" fill="black">9</text><line x1="2350" y1="-90" x2="2350" y2="0" stroke="pink" stroke-width="30"/></g></g></svg>