<?xml version="1.0" encoding="UTF-8"?>
<svg width="2000" height="3000"><g transform="translate(30, 30)"><line x1="100" y1="0" x2="100" y2="1800" stroke="black" stroke-width="2"/><!--<text x="90" y="-10">{$minyear}</text>
          <text x="90" y="1820">{$maxyear}</text>--><g class="year"><circle cx="100" cy="0" r="14" fill="green"/><text x="120" y="0">2010 : Cameraman and Flower, Swing Girl, Choose Your Weapon, No Trespassing , Interest in People, No Future</text></g><g class="year"><circle cx="100" cy="100" r="12" fill="green"/><text x="120" y="100">2007 : Cash Machine Girl, Stop and Search, Space Girl with Bird, Fallen Angel, Looting Soldier, Girl with Skipping Rope</text></g><g class="year"><circle cx="100" cy="200" r="14" fill="green"/><text x="120" y="200">2011 : Take this Society, Tap Phoned, Toxic Rat, Baby Carriage, Follow your Dreams - Canceled, Tox, Child Soldier</text></g><g class="year"><circle cx="100" cy="300" r="26" fill="green"/><text x="120" y="300">2003 : Laugh Now, HMV, Bomb Middle England, Turf War, Flying Copper, Love Is In The Air, Monkey Queen, Queen Victoria, Bomb Hugger, Bomb Hugger, Ice Cream Bomb, Golf Sale, Happy Choppers</text></g><g class="year"><circle cx="100" cy="400" r="14" fill="green"/><text x="120" y="400">2005 : Soldiers Painting CND Sign, Jack &amp; Jill, Snorting Copper, Kate Moss, CND Soldiers, Grim Reaper, Think Tank</text></g><g class="year"><circle cx="100" cy="500" r="10" fill="green"/><text x="120" y="500">2009 : No Ball Games, Don't Forget your Scarf, Donuts, Thug for Life Bunny, Kentucky Fox</text></g><g class="year"><circle cx="100" cy="600" r="24" fill="green"/><text x="120" y="600">2004 : Get Out While You Can, I Fought The Law, Pulp Fiction, Christ with Shopping Bags, Gangsta Rat, Because I'm Worthless, Love Rat, Napalm, Naplam Girl, Di Faced Tenners, Barcode</text></g><g class="year"><circle cx="100" cy="700" r="18" fill="green"/><text x="120" y="700">2006 : Grannies, Festival, Old Skool, Sweep it Under the Carpet, Applause, Well, Hung Lover, Gangsta Rat, Flags</text></g><g class="year"><circle cx="100" cy="800" r="2" fill="green"/><text x="120" y="800">2017 : Civilian Drone STrike</text></g><g class="year"><circle cx="100" cy="900" r="16" fill="green"/><text x="120" y="900">2018 : Draw The Raised Bridge, Blinded Napoleon, Box Cutter Rat, Chisel the Flag, Go Flock Yourself, Rat Couple, Season's Greetings, Seal Mural</text></g><g class="year"><circle cx="100" cy="1000" r="12" fill="green"/><text x="120" y="1000">2008 : NOLA, Bubble Slide Girl, Injured Buddha, One Nation Under CCTV, I Love You, Gorilla Artist</text></g><g class="year"><circle cx="100" cy="1100" r="8" fill="green"/><text x="120" y="1100">2012 : Love Hurts, Fridge Kite, Slave Labour, Javelin Thrower</text></g><g class="year"><circle cx="100" cy="1200" r="2" fill="green"/><text x="120" y="1200">1999 : The Mild Mild West</text></g><g class="year"><circle cx="100" cy="1300" r="2" fill="green"/><text x="120" y="1300">2016 : Burning Tyre</text></g><g class="year"><circle cx="100" cy="1400" r="6" fill="green"/><text x="120" y="1400">2002 : Girl with Balloon, Choose Your Weapon</text></g><g class="year"><circle cx="100" cy="1500" r="10" fill="green"/><text x="120" y="1500">2015 : Gaza Kitty, Crying Woman, Watchtower Swing, I want change, The Son Of A Migrant From Syria</text></g><g class="year"><circle cx="100" cy="1600" r="8" fill="green"/><text x="120" y="1600">2013 : Bronx Zoo, Hammer Boy, Graffiti Is A Crime, Graffiti is a Crime</text></g><g class="year"><circle cx="100" cy="1700" r="6" fill="green"/><text x="120" y="1700">2014 : Dumbo, Love is the Answer, Drunk Angel</text></g><g class="year"><circle cx="100" cy="1800" r="2" fill="green"/><text x="120" y="1800">2001 : Love Is In The Air (CCCP)</text></g></g></svg>