<?xml version="1.0" encoding="UTF-8"?>
<svg xmlns="http://www.w3.org/2000/svg" viewBox="0 0 3000 1550"><g transform="translate(100, 1100)"><text x="-120" y="-1020" style="font-size:4em;font-weight:bold;">Comparison of Speakers per Chapter with Amount of Speaking Parts per Chapter in Assassins Creed</text><text x="50" y="-950" style="font-size:2.2em;">Color Key:</text><circle cx="120" cy="-850" r="80" fill="blue"/><text x="60" y="-850" fill="white" style="font-size:2em;">Speeches</text><circle cx="300" cy="-850" r="80" fill="lime"/><text x="240" y="-850" fill="black" style="font-size:2em;">Speakers</text><line x1="0" y1="0" x2="2500" y2="0" stroke="black"/><line x1="0" y1="-900" x2="0" y2="0" stroke="black"/><text x="25" y="420" style="writing-mode: tb; glyph-orientation-vertical:0; font-size:3.2em;" transform="rotate(180)">Value</text><g><line x1="720" y1="-874" x2="720" y2="0" stroke="blue" stroke-width="30"/><text x="735" y="20" style="writing-mode: tb; glyph-orientation-vertical:0; font-size:1.8em;">The Road to the Symposium</text><line x1="750" y1="-230" x2="750" y2="0" stroke="lime" stroke-width="30"/></g><g><line x1="1360" y1="-714" x2="1360" y2="0" stroke="blue" stroke-width="30"/><text x="1375" y="20" style="writing-mode: tb; glyph-orientation-vertical:0; font-size:1.8em;">A Place of Twists and Turns</text><line x1="1390" y1="-120" x2="1390" y2="0" stroke="lime" stroke-width="30"/></g><g><line x1="800" y1="-682" x2="800" y2="0" stroke="blue" stroke-width="30"/><text x="815" y="20" style="writing-mode: tb; glyph-orientation-vertical:0; font-size:1.8em;">Land of the Lawless</text><line x1="830" y1="-110" x2="830" y2="0" stroke="lime" stroke-width="30"/></g><g><line x1="240" y1="-646" x2="240" y2="0" stroke="blue" stroke-width="30"/><text x="255" y="20" style="writing-mode: tb; glyph-orientation-vertical:0; font-size:1.8em;">A Debt to Pay</text><line x1="270" y1="-140" x2="270" y2="0" stroke="lime" stroke-width="30"/></g><g><line x1="320" y1="-630" x2="320" y2="0" stroke="blue" stroke-width="30"/><text x="335" y="20" style="writing-mode: tb; glyph-orientation-vertical:0; font-size:1.8em;">The Wolf Hunt</text><line x1="350" y1="-160" x2="350" y2="0" stroke="lime" stroke-width="30"/></g><g><line x1="880" y1="-608" x2="880" y2="0" stroke="blue" stroke-width="30"/><text x="895" y="20" style="writing-mode: tb; glyph-orientation-vertical:0; font-size:1.8em;">A Prescription for Discovery</text><line x1="910" y1="-160" x2="910" y2="0" stroke="lime" stroke-width="30"/></g><g><line x1="1440" y1="-436" x2="1440" y2="0" stroke="blue" stroke-width="30"/><text x="1455" y="20" style="writing-mode: tb; glyph-orientation-vertical:0; font-size:1.8em;">Home Is Where My Mother Is</text><line x1="1470" y1="-110" x2="1470" y2="0" stroke="lime" stroke-width="30"/></g><g><line x1="1200" y1="-426" x2="1200" y2="0" stroke="blue" stroke-width="30"/><text x="1215" y="20" style="writing-mode: tb; glyph-orientation-vertical:0; font-size:1.8em;">Paradise Lost</text><line x1="1230" y1="-130" x2="1230" y2="0" stroke="lime" stroke-width="30"/></g><g><line x1="1920" y1="-374" x2="1920" y2="0" stroke="blue" stroke-width="30"/><text x="1935" y="20" style="writing-mode: tb; glyph-orientation-vertical:0; font-size:1.8em;">Public Opinion</text><line x1="1950" y1="-100" x2="1950" y2="0" stroke="lime" stroke-width="30"/></g><g><line x1="640" y1="-358" x2="640" y2="0" stroke="blue" stroke-width="30"/><text x="655" y="20" style="writing-mode: tb; glyph-orientation-vertical:0; font-size:1.8em;">An Old Enemy and a New Ally</text><line x1="670" y1="-120" x2="670" y2="0" stroke="lime" stroke-width="30"/></g><g><line x1="1520" y1="-336" x2="1520" y2="0" stroke="blue" stroke-width="30"/><text x="1535" y="20" style="writing-mode: tb; glyph-orientation-vertical:0; font-size:1.8em;">The Olympian</text><line x1="1550" y1="-150" x2="1550" y2="0" stroke="lime" stroke-width="30"/></g><g><line x1="1040" y1="-300" x2="1040" y2="0" stroke="blue" stroke-width="30"/><text x="1055" y="20" style="writing-mode: tb; glyph-orientation-vertical:0; font-size:1.8em;">Rising from the Ashes</text><line x1="1070" y1="-100" x2="1070" y2="0" stroke="lime" stroke-width="30"/></g><g><line x1="160" y1="-290" x2="160" y2="0" stroke="blue" stroke-width="30"/><text x="175" y="20" style="writing-mode: tb; glyph-orientation-vertical:0; font-size:1.8em;">Another Day, Another Drachma</text><line x1="190" y1="-120" x2="190" y2="0" stroke="lime" stroke-width="30"/></g><g><line x1="1760" y1="-276" x2="1760" y2="0" stroke="blue" stroke-width="30"/><text x="1775" y="20" style="writing-mode: tb; glyph-orientation-vertical:0; font-size:1.8em;">The Cultist King</text><line x1="1790" y1="-90" x2="1790" y2="0" stroke="lime" stroke-width="30"/></g><g><line x1="1600" y1="-268" x2="1600" y2="0" stroke="blue" stroke-width="30"/><text x="1615" y="20" style="writing-mode: tb; glyph-orientation-vertical:0; font-size:1.8em;">The Cult and the Archon</text><line x1="1630" y1="-110" x2="1630" y2="0" stroke="lime" stroke-width="30"/></g><g><line x1="560" y1="-252" x2="560" y2="0" stroke="blue" stroke-width="30"/><text x="575" y="20" style="writing-mode: tb; glyph-orientation-vertical:0; font-size:1.8em;">Beware the Snakes</text><line x1="590" y1="-60" x2="590" y2="0" stroke="lime" stroke-width="30"/></g><g><line x1="480" y1="-238" x2="480" y2="0" stroke="blue" stroke-width="30"/><text x="495" y="20" style="writing-mode: tb; glyph-orientation-vertical:0; font-size:1.8em;">Of Visions and Visionaries</text><line x1="510" y1="-60" x2="510" y2="0" stroke="lime" stroke-width="30"/></g><g><line x1="1680" y1="-224" x2="1680" y2="0" stroke="blue" stroke-width="30"/><text x="1695" y="20" style="writing-mode: tb; glyph-orientation-vertical:0; font-size:1.8em;">Paint It Red</text><line x1="1710" y1="-40" x2="1710" y2="0" stroke="lime" stroke-width="30"/></g><g><line x1="1120" y1="-222" x2="1120" y2="0" stroke="blue" stroke-width="30"/><text x="1135" y="20" style="writing-mode: tb; glyph-orientation-vertical:0; font-size:1.8em;">The Reunion</text><line x1="1150" y1="-50" x2="1150" y2="0" stroke="lime" stroke-width="30"/></g><g><line x1="2240" y1="-220" x2="2240" y2="0" stroke="blue" stroke-width="30"/><text x="2255" y="20" style="writing-mode: tb; glyph-orientation-vertical:0; font-size:1.8em;">Shadows of Serpents</text><line x1="2270" y1="-50" x2="2270" y2="0" stroke="lime" stroke-width="30"/></g><g><line x1="2320" y1="-220" x2="2320" y2="0" stroke="blue" stroke-width="30"/><text x="2335" y="20" style="writing-mode: tb; glyph-orientation-vertical:0; font-size:1.8em;">The Gates of Atlantis</text><line x1="2350" y1="-90" x2="2350" y2="0" stroke="lime" stroke-width="30"/></g><g><line x1="80" y1="-164" x2="80" y2="0" stroke="blue" stroke-width="30"/><text x="95" y="20" style="writing-mode: tb; glyph-orientation-vertical:0; font-size:1.8em;">intro</text><line x1="110" y1="-110" x2="110" y2="0" stroke="lime" stroke-width="30"/></g><g><line x1="960" y1="-126" x2="960" y2="0" stroke="blue" stroke-width="30"/><text x="975" y="20" style="writing-mode: tb; glyph-orientation-vertical:0; font-size:1.8em;">Pirate Hospitality</text><line x1="990" y1="-50" x2="990" y2="0" stroke="lime" stroke-width="30"/></g><g><line x1="2080" y1="-112" x2="2080" y2="0" stroke="blue" stroke-width="30"/><text x="2095" y="20" style="writing-mode: tb; glyph-orientation-vertical:0; font-size:1.8em;">Homecoming</text><line x1="2110" y1="-60" x2="2110" y2="0" stroke="lime" stroke-width="30"/></g><g><line x1="2160" y1="-102" x2="2160" y2="0" stroke="blue" stroke-width="30"/><text x="2175" y="20" style="writing-mode: tb; glyph-orientation-vertical:0; font-size:1.8em;">From the Shadows</text><line x1="2190" y1="-40" x2="2190" y2="0" stroke="lime" stroke-width="30"/></g><g><line x1="1280" y1="-94" x2="1280" y2="0" stroke="blue" stroke-width="30"/><text x="1295" y="20" style="writing-mode: tb; glyph-orientation-vertical:0; font-size:1.8em;">The Last Riddle</text><line x1="1310" y1="-50" x2="1310" y2="0" stroke="lime" stroke-width="30"/></g><g><line x1="1840" y1="-84" x2="1840" y2="0" stroke="blue" stroke-width="30"/><text x="1855" y="20" style="writing-mode: tb; glyph-orientation-vertical:0; font-size:1.8em;">Uprising</text><line x1="1870" y1="-70" x2="1870" y2="0" stroke="lime" stroke-width="30"/></g><g><line x1="2000" y1="-82" x2="2000" y2="0" stroke="blue" stroke-width="30"/><text x="2015" y="20" style="writing-mode: tb; glyph-orientation-vertical:0; font-size:1.8em;">Battle of Amphipolis</text><line x1="2030" y1="-40" x2="2030" y2="0" stroke="lime" stroke-width="30"/></g><g><line x1="400" y1="-76" x2="400" y2="0" stroke="blue" stroke-width="30"/><text x="415" y="20" style="writing-mode: tb; glyph-orientation-vertical:0; font-size:1.8em;">The Wolf and Snake</text><line x1="430" y1="-30" x2="430" y2="0" stroke="lime" stroke-width="30"/></g>
    (:return concat ("Chapter ", $pos, " - ", $chapTitles, " | Number of Speeches: ", $speechCount, " | Number of Speakers: ", $spkCount):)
    
</g></svg>