<?xml version="1.0" encoding="UTF-8"?>
<svg xmlns="http://www.w3.org/2000/svg" width="5000" height="1000"><g transform="translate(25, 200)"><g><rect x="140" y="100" width="50" height="27.333333333333333333" transform="scale(1, -1) translate(0, -100)" fill="teal" stroke="black" stroke-width="2"/><text x="190" y="75" style="writing-mode: tb; glyph-orientation-vertical">intro</text><text x="165" y="25" style="writing-mode: tb; glyph-orientation-vertical">82</text><rect x="190" y="100" width="50" height="11" transform="scale(1, -1) translate(0, -100)" fill="orange" stroke="black" stroke-width="2"/><text x="215" y="25" style="writing-mode: tb; glyph-orientation-vertical">11</text></g><g><rect x="280" y="100" width="50" height="48.333333333333333333" transform="scale(1, -1) translate(0, -100)" fill="teal" stroke="black" stroke-width="2"/><text x="330" y="75" style="writing-mode: tb; glyph-orientation-vertical">Another Day, Another Drachma</text><text x="305" y="25" style="writing-mode: tb; glyph-orientation-vertical">145</text><rect x="330" y="100" width="50" height="12" transform="scale(1, -1) translate(0, -100)" fill="orange" stroke="black" stroke-width="2"/><text x="355" y="25" style="writing-mode: tb; glyph-orientation-vertical">12</text></g><g><rect x="420" y="100" width="50" height="107.666666666666666667" transform="scale(1, -1) translate(0, -100)" fill="teal" stroke="black" stroke-width="2"/><text x="470" y="75" style="writing-mode: tb; glyph-orientation-vertical">A Debt to Pay</text><text x="445" y="25" style="writing-mode: tb; glyph-orientation-vertical">323</text><rect x="470" y="100" width="50" height="14" transform="scale(1, -1) translate(0, -100)" fill="orange" stroke="black" stroke-width="2"/><text x="495" y="25" style="writing-mode: tb; glyph-orientation-vertical">14</text></g><g><rect x="560" y="100" width="50" height="105" transform="scale(1, -1) translate(0, -100)" fill="teal" stroke="black" stroke-width="2"/><text x="610" y="75" style="writing-mode: tb; glyph-orientation-vertical">The Wolf Hunt</text><text x="585" y="25" style="writing-mode: tb; glyph-orientation-vertical">315</text><rect x="610" y="100" width="50" height="16" transform="scale(1, -1) translate(0, -100)" fill="orange" stroke="black" stroke-width="2"/><text x="635" y="25" style="writing-mode: tb; glyph-orientation-vertical">16</text></g><g><rect x="700" y="100" width="50" height="12.666666666666666667" transform="scale(1, -1) translate(0, -100)" fill="teal" stroke="black" stroke-width="2"/><text x="750" y="75" style="writing-mode: tb; glyph-orientation-vertical">The Wolf and Snake</text><text x="725" y="25" style="writing-mode: tb; glyph-orientation-vertical">38</text><rect x="750" y="100" width="50" height="3" transform="scale(1, -1) translate(0, -100)" fill="orange" stroke="black" stroke-width="2"/><text x="775" y="25" style="writing-mode: tb; glyph-orientation-vertical">3</text></g><g><rect x="840" y="100" width="50" height="39.666666666666666667" transform="scale(1, -1) translate(0, -100)" fill="teal" stroke="black" stroke-width="2"/><text x="890" y="75" style="writing-mode: tb; glyph-orientation-vertical">Of Visions and Visionaries</text><text x="865" y="25" style="writing-mode: tb; glyph-orientation-vertical">119</text><rect x="890" y="100" width="50" height="6" transform="scale(1, -1) translate(0, -100)" fill="orange" stroke="black" stroke-width="2"/><text x="915" y="25" style="writing-mode: tb; glyph-orientation-vertical">6</text></g><g><rect x="980" y="100" width="50" height="42" transform="scale(1, -1) translate(0, -100)" fill="teal" stroke="black" stroke-width="2"/><text x="1030" y="75" style="writing-mode: tb; glyph-orientation-vertical">Beware the Snakes</text><text x="1005" y="25" style="writing-mode: tb; glyph-orientation-vertical">126</text><rect x="1030" y="100" width="50" height="6" transform="scale(1, -1) translate(0, -100)" fill="orange" stroke="black" stroke-width="2"/><text x="1055" y="25" style="writing-mode: tb; glyph-orientation-vertical">6</text></g><g><rect x="1120" y="100" width="50" height="59.666666666666666667" transform="scale(1, -1) translate(0, -100)" fill="teal" stroke="black" stroke-width="2"/><text x="1170" y="75" style="writing-mode: tb; glyph-orientation-vertical">An Old Enemy and a New Ally</text><text x="1145" y="25" style="writing-mode: tb; glyph-orientation-vertical">179</text><rect x="1170" y="100" width="50" height="12" transform="scale(1, -1) translate(0, -100)" fill="orange" stroke="black" stroke-width="2"/><text x="1195" y="25" style="writing-mode: tb; glyph-orientation-vertical">12</text></g><g><rect x="1260" y="100" width="50" height="145.666666666666666667" transform="scale(1, -1) translate(0, -100)" fill="teal" stroke="black" stroke-width="2"/><text x="1310" y="75" style="writing-mode: tb; glyph-orientation-vertical">The Road to the Symposium</text><text x="1285" y="25" style="writing-mode: tb; glyph-orientation-vertical">437</text><rect x="1310" y="100" width="50" height="23" transform="scale(1, -1) translate(0, -100)" fill="orange" stroke="black" stroke-width="2"/><text x="1335" y="25" style="writing-mode: tb; glyph-orientation-vertical">23</text></g><g><rect x="1400" y="100" width="50" height="113.666666666666666667" transform="scale(1, -1) translate(0, -100)" fill="teal" stroke="black" stroke-width="2"/><text x="1450" y="75" style="writing-mode: tb; glyph-orientation-vertical">Land of the Lawless</text><text x="1425" y="25" style="writing-mode: tb; glyph-orientation-vertical">341</text><rect x="1450" y="100" width="50" height="11" transform="scale(1, -1) translate(0, -100)" fill="orange" stroke="black" stroke-width="2"/><text x="1475" y="25" style="writing-mode: tb; glyph-orientation-vertical">11</text></g><g><rect x="1540" y="100" width="50" height="101.333333333333333333" transform="scale(1, -1) translate(0, -100)" fill="teal" stroke="black" stroke-width="2"/><text x="1590" y="75" style="writing-mode: tb; glyph-orientation-vertical">A Prescription for Discovery</text><text x="1565" y="25" style="writing-mode: tb; glyph-orientation-vertical">304</text><rect x="1590" y="100" width="50" height="16" transform="scale(1, -1) translate(0, -100)" fill="orange" stroke="black" stroke-width="2"/><text x="1615" y="25" style="writing-mode: tb; glyph-orientation-vertical">16</text></g><g><rect x="1680" y="100" width="50" height="21" transform="scale(1, -1) translate(0, -100)" fill="teal" stroke="black" stroke-width="2"/><text x="1730" y="75" style="writing-mode: tb; glyph-orientation-vertical">Pirate Hospitality</text><text x="1705" y="25" style="writing-mode: tb; glyph-orientation-vertical">63</text><rect x="1730" y="100" width="50" height="5" transform="scale(1, -1) translate(0, -100)" fill="orange" stroke="black" stroke-width="2"/><text x="1755" y="25" style="writing-mode: tb; glyph-orientation-vertical">5</text></g><g><rect x="1820" y="100" width="50" height="50" transform="scale(1, -1) translate(0, -100)" fill="teal" stroke="black" stroke-width="2"/><text x="1870" y="75" style="writing-mode: tb; glyph-orientation-vertical">Rising from the Ashes</text><text x="1845" y="25" style="writing-mode: tb; glyph-orientation-vertical">150</text><rect x="1870" y="100" width="50" height="10" transform="scale(1, -1) translate(0, -100)" fill="orange" stroke="black" stroke-width="2"/><text x="1895" y="25" style="writing-mode: tb; glyph-orientation-vertical">10</text></g><g><rect x="1960" y="100" width="50" height="37" transform="scale(1, -1) translate(0, -100)" fill="teal" stroke="black" stroke-width="2"/><text x="2010" y="75" style="writing-mode: tb; glyph-orientation-vertical">The Reunion</text><text x="1985" y="25" style="writing-mode: tb; glyph-orientation-vertical">111</text><rect x="2010" y="100" width="50" height="5" transform="scale(1, -1) translate(0, -100)" fill="orange" stroke="black" stroke-width="2"/><text x="2035" y="25" style="writing-mode: tb; glyph-orientation-vertical">5</text></g><g><rect x="2100" y="100" width="50" height="71" transform="scale(1, -1) translate(0, -100)" fill="teal" stroke="black" stroke-width="2"/><text x="2150" y="75" style="writing-mode: tb; glyph-orientation-vertical">Paradise Lost</text><text x="2125" y="25" style="writing-mode: tb; glyph-orientation-vertical">213</text><rect x="2150" y="100" width="50" height="13" transform="scale(1, -1) translate(0, -100)" fill="orange" stroke="black" stroke-width="2"/><text x="2175" y="25" style="writing-mode: tb; glyph-orientation-vertical">13</text></g><g><rect x="2240" y="100" width="50" height="15.666666666666666667" transform="scale(1, -1) translate(0, -100)" fill="teal" stroke="black" stroke-width="2"/><text x="2290" y="75" style="writing-mode: tb; glyph-orientation-vertical">The Last Riddle</text><text x="2265" y="25" style="writing-mode: tb; glyph-orientation-vertical">47</text><rect x="2290" y="100" width="50" height="5" transform="scale(1, -1) translate(0, -100)" fill="orange" stroke="black" stroke-width="2"/><text x="2315" y="25" style="writing-mode: tb; glyph-orientation-vertical">5</text></g><g><rect x="2380" y="100" width="50" height="119" transform="scale(1, -1) translate(0, -100)" fill="teal" stroke="black" stroke-width="2"/><text x="2430" y="75" style="writing-mode: tb; glyph-orientation-vertical">A Place of Twists and Turns</text><text x="2405" y="25" style="writing-mode: tb; glyph-orientation-vertical">357</text><rect x="2430" y="100" width="50" height="12" transform="scale(1, -1) translate(0, -100)" fill="orange" stroke="black" stroke-width="2"/><text x="2455" y="25" style="writing-mode: tb; glyph-orientation-vertical">12</text></g><g><rect x="2520" y="100" width="50" height="72.666666666666666667" transform="scale(1, -1) translate(0, -100)" fill="teal" stroke="black" stroke-width="2"/><text x="2570" y="75" style="writing-mode: tb; glyph-orientation-vertical">Home Is Where My Mother Is</text><text x="2545" y="25" style="writing-mode: tb; glyph-orientation-vertical">218</text><rect x="2570" y="100" width="50" height="11" transform="scale(1, -1) translate(0, -100)" fill="orange" stroke="black" stroke-width="2"/><text x="2595" y="25" style="writing-mode: tb; glyph-orientation-vertical">11</text></g><g><rect x="2660" y="100" width="50" height="56" transform="scale(1, -1) translate(0, -100)" fill="teal" stroke="black" stroke-width="2"/><text x="2710" y="75" style="writing-mode: tb; glyph-orientation-vertical">The Olympian</text><text x="2685" y="25" style="writing-mode: tb; glyph-orientation-vertical">168</text><rect x="2710" y="100" width="50" height="15" transform="scale(1, -1) translate(0, -100)" fill="orange" stroke="black" stroke-width="2"/><text x="2735" y="25" style="writing-mode: tb; glyph-orientation-vertical">15</text></g><g><rect x="2800" y="100" width="50" height="44.666666666666666667" transform="scale(1, -1) translate(0, -100)" fill="teal" stroke="black" stroke-width="2"/><text x="2850" y="75" style="writing-mode: tb; glyph-orientation-vertical">The Cult and the Archon</text><text x="2825" y="25" style="writing-mode: tb; glyph-orientation-vertical">134</text><rect x="2850" y="100" width="50" height="11" transform="scale(1, -1) translate(0, -100)" fill="orange" stroke="black" stroke-width="2"/><text x="2875" y="25" style="writing-mode: tb; glyph-orientation-vertical">11</text></g><g><rect x="2940" y="100" width="50" height="37.333333333333333333" transform="scale(1, -1) translate(0, -100)" fill="teal" stroke="black" stroke-width="2"/><text x="2990" y="75" style="writing-mode: tb; glyph-orientation-vertical">Paint It Red</text><text x="2965" y="25" style="writing-mode: tb; glyph-orientation-vertical">112</text><rect x="2990" y="100" width="50" height="4" transform="scale(1, -1) translate(0, -100)" fill="orange" stroke="black" stroke-width="2"/><text x="3015" y="25" style="writing-mode: tb; glyph-orientation-vertical">4</text></g><g><rect x="3080" y="100" width="50" height="46" transform="scale(1, -1) translate(0, -100)" fill="teal" stroke="black" stroke-width="2"/><text x="3130" y="75" style="writing-mode: tb; glyph-orientation-vertical">The Cultist King</text><text x="3105" y="25" style="writing-mode: tb; glyph-orientation-vertical">138</text><rect x="3130" y="100" width="50" height="9" transform="scale(1, -1) translate(0, -100)" fill="orange" stroke="black" stroke-width="2"/><text x="3155" y="25" style="writing-mode: tb; glyph-orientation-vertical">9</text></g><g><rect x="3220" y="100" width="50" height="14" transform="scale(1, -1) translate(0, -100)" fill="teal" stroke="black" stroke-width="2"/><text x="3270" y="75" style="writing-mode: tb; glyph-orientation-vertical">Uprising</text><text x="3245" y="25" style="writing-mode: tb; glyph-orientation-vertical">42</text><rect x="3270" y="100" width="50" height="7" transform="scale(1, -1) translate(0, -100)" fill="orange" stroke="black" stroke-width="2"/><text x="3295" y="25" style="writing-mode: tb; glyph-orientation-vertical">7</text></g><g><rect x="3360" y="100" width="50" height="62.333333333333333333" transform="scale(1, -1) translate(0, -100)" fill="teal" stroke="black" stroke-width="2"/><text x="3410" y="75" style="writing-mode: tb; glyph-orientation-vertical">Public Opinion</text><text x="3385" y="25" style="writing-mode: tb; glyph-orientation-vertical">187</text><rect x="3410" y="100" width="50" height="10" transform="scale(1, -1) translate(0, -100)" fill="orange" stroke="black" stroke-width="2"/><text x="3435" y="25" style="writing-mode: tb; glyph-orientation-vertical">10</text></g><g><rect x="3500" y="100" width="50" height="13.666666666666666667" transform="scale(1, -1) translate(0, -100)" fill="teal" stroke="black" stroke-width="2"/><text x="3550" y="75" style="writing-mode: tb; glyph-orientation-vertical">Battle of Amphipolis</text><text x="3525" y="25" style="writing-mode: tb; glyph-orientation-vertical">41</text><rect x="3550" y="100" width="50" height="4" transform="scale(1, -1) translate(0, -100)" fill="orange" stroke="black" stroke-width="2"/><text x="3575" y="25" style="writing-mode: tb; glyph-orientation-vertical">4</text></g><g><rect x="3640" y="100" width="50" height="18.666666666666666667" transform="scale(1, -1) translate(0, -100)" fill="teal" stroke="black" stroke-width="2"/><text x="3690" y="75" style="writing-mode: tb; glyph-orientation-vertical">Homecoming</text><text x="3665" y="25" style="writing-mode: tb; glyph-orientation-vertical">56</text><rect x="3690" y="100" width="50" height="6" transform="scale(1, -1) translate(0, -100)" fill="orange" stroke="black" stroke-width="2"/><text x="3715" y="25" style="writing-mode: tb; glyph-orientation-vertical">6</text></g><g><rect x="3780" y="100" width="50" height="17" transform="scale(1, -1) translate(0, -100)" fill="teal" stroke="black" stroke-width="2"/><text x="3830" y="75" style="writing-mode: tb; glyph-orientation-vertical">From the Shadows</text><text x="3805" y="25" style="writing-mode: tb; glyph-orientation-vertical">51</text><rect x="3830" y="100" width="50" height="4" transform="scale(1, -1) translate(0, -100)" fill="orange" stroke="black" stroke-width="2"/><text x="3855" y="25" style="writing-mode: tb; glyph-orientation-vertical">4</text></g><g><rect x="3920" y="100" width="50" height="36.666666666666666667" transform="scale(1, -1) translate(0, -100)" fill="teal" stroke="black" stroke-width="2"/><text x="3970" y="75" style="writing-mode: tb; glyph-orientation-vertical">Shadows of Serpents</text><text x="3945" y="25" style="writing-mode: tb; glyph-orientation-vertical">110</text><rect x="3970" y="100" width="50" height="5" transform="scale(1, -1) translate(0, -100)" fill="orange" stroke="black" stroke-width="2"/><text x="3995" y="25" style="writing-mode: tb; glyph-orientation-vertical">5</text></g><g><rect x="4060" y="100" width="50" height="36.666666666666666667" transform="scale(1, -1) translate(0, -100)" fill="teal" stroke="black" stroke-width="2"/><text x="4110" y="75" style="writing-mode: tb; glyph-orientation-vertical">The Gates of Atlantis</text><text x="4085" y="25" style="writing-mode: tb; glyph-orientation-vertical">110</text><rect x="4110" y="100" width="50" height="9" transform="scale(1, -1) translate(0, -100)" fill="orange" stroke="black" stroke-width="2"/><text x="4135" y="25" style="writing-mode: tb; glyph-orientation-vertical">9</text></g></g></svg>