<?xml version="1.0" encoding="UTF-8"?>
<svg width="670" height="500"><g transform="translate(30, 200)"><line x1="-5" y1="0" x2="590" y2="0" style="stroke:blue;stroke-width:2;"/><line x1="-5" y1="0" x2="-5" y2="-200" style="stroke:blue;stroke-width:2;"/><g><text x="0" y="20" style="fill:navy; stroke-width: 2; text-anchor:start">1999</text><rect x="0" y="-10" height="9" width="20" style="fill: LightSalmon"/><rect x="0" y="-10" height="0" width="20" style="fill: Fuchsia"/><text x="3" y="--5" style="fill:navy; stroke-width: 2; text-anchor:start">1</text><text x="3" y="-10" style="fill:Indigo; stroke-width: 2; text-anchor:start"/></g><g><text x="30" y="20" style="fill:navy; stroke-width: 2; text-anchor:start">2000</text><rect x="30" y="-0" height="-1" width="20" style="fill: LightSalmon"/><rect x="30" y="-0" height="0" width="20" style="fill: Fuchsia"/><text x="33" y="--15" style="fill:navy; stroke-width: 2; text-anchor:start"/><text x="33" y="-0" style="fill:Indigo; stroke-width: 2; text-anchor:start"/></g><g><text x="60" y="20" style="fill:navy; stroke-width: 2; text-anchor:start">2001</text><rect x="60" y="-0" height="-1" width="20" style="fill: LightSalmon"/><rect x="60" y="-10" height="10" width="20" style="fill: Fuchsia"/><text x="63" y="--15" style="fill:navy; stroke-width: 2; text-anchor:start"/><text x="63" y="-10" style="fill:Indigo; stroke-width: 2; text-anchor:start">1</text></g><g><text x="90" y="20" style="fill:navy; stroke-width: 2; text-anchor:start">2002</text><rect x="90" y="-20" height="19" width="20" style="fill: LightSalmon"/><rect x="90" y="-20" height="0" width="20" style="fill: Fuchsia"/><text x="93" y="-5" style="fill:navy; stroke-width: 2; text-anchor:start">2</text><text x="93" y="-20" style="fill:Indigo; stroke-width: 2; text-anchor:start"/></g><g><text x="120" y="20" style="fill:navy; stroke-width: 2; text-anchor:start">2003</text><rect x="120" y="-20" height="19" width="20" style="fill: LightSalmon"/><rect x="120" y="-130" height="110" width="20" style="fill: Fuchsia"/><text x="123" y="-5" style="fill:navy; stroke-width: 2; text-anchor:start">2</text><text x="123" y="-130" style="fill:Indigo; stroke-width: 2; text-anchor:start">11</text></g><g><text x="150" y="20" style="fill:navy; stroke-width: 2; text-anchor:start">2004</text><rect x="150" y="-10" height="9" width="20" style="fill: LightSalmon"/><rect x="150" y="-110" height="100" width="20" style="fill: Fuchsia"/><text x="153" y="--5" style="fill:navy; stroke-width: 2; text-anchor:start">1</text><text x="153" y="-110" style="fill:Indigo; stroke-width: 2; text-anchor:start">10</text></g><g><text x="180" y="20" style="fill:navy; stroke-width: 2; text-anchor:start">2005</text><rect x="180" y="-30" height="29" width="20" style="fill: LightSalmon"/><rect x="180" y="-70" height="40" width="20" style="fill: Fuchsia"/><text x="183" y="-15" style="fill:navy; stroke-width: 2; text-anchor:start">3</text><text x="183" y="-70" style="fill:Indigo; stroke-width: 2; text-anchor:start">4</text></g><g><text x="210" y="20" style="fill:navy; stroke-width: 2; text-anchor:start">2006</text><rect x="210" y="-40" height="39" width="20" style="fill: LightSalmon"/><rect x="210" y="-80" height="40" width="20" style="fill: Fuchsia"/><text x="213" y="-25" style="fill:navy; stroke-width: 2; text-anchor:start">4</text><text x="213" y="-80" style="fill:Indigo; stroke-width: 2; text-anchor:start">4</text></g><g><text x="240" y="20" style="fill:navy; stroke-width: 2; text-anchor:start">2007</text><rect x="240" y="-60" height="59" width="20" style="fill: LightSalmon"/><rect x="240" y="-60" height="0" width="20" style="fill: Fuchsia"/><text x="243" y="-45" style="fill:navy; stroke-width: 2; text-anchor:start">6</text><text x="243" y="-60" style="fill:Indigo; stroke-width: 2; text-anchor:start"/></g><g><text x="270" y="20" style="fill:navy; stroke-width: 2; text-anchor:start">2008</text><rect x="270" y="-50" height="49" width="20" style="fill: LightSalmon"/><rect x="270" y="-60" height="10" width="20" style="fill: Fuchsia"/><text x="273" y="-35" style="fill:navy; stroke-width: 2; text-anchor:start">5</text><text x="273" y="-60" style="fill:Indigo; stroke-width: 2; text-anchor:start">1</text></g><g><text x="300" y="20" style="fill:navy; stroke-width: 2; text-anchor:start">2009</text><rect x="300" y="-30" height="29" width="20" style="fill: LightSalmon"/><rect x="300" y="-50" height="20" width="20" style="fill: Fuchsia"/><text x="303" y="-15" style="fill:navy; stroke-width: 2; text-anchor:start">3</text><text x="303" y="-50" style="fill:Indigo; stroke-width: 2; text-anchor:start">2</text></g><g><text x="330" y="20" style="fill:navy; stroke-width: 2; text-anchor:start">2010</text><rect x="330" y="-50" height="49" width="20" style="fill: LightSalmon"/><rect x="330" y="-60" height="10" width="20" style="fill: Fuchsia"/><text x="333" y="-35" style="fill:navy; stroke-width: 2; text-anchor:start">5</text><text x="333" y="-60" style="fill:Indigo; stroke-width: 2; text-anchor:start">1</text></g><g><text x="360" y="20" style="fill:navy; stroke-width: 2; text-anchor:start">2011</text><rect x="360" y="-70" height="69" width="20" style="fill: LightSalmon"/><rect x="360" y="-70" height="0" width="20" style="fill: Fuchsia"/><text x="363" y="-55" style="fill:navy; stroke-width: 2; text-anchor:start">7</text><text x="363" y="-70" style="fill:Indigo; stroke-width: 2; text-anchor:start"/></g><g><text x="390" y="20" style="fill:navy; stroke-width: 2; text-anchor:start">2012</text><rect x="390" y="-30" height="29" width="20" style="fill: LightSalmon"/><rect x="390" y="-40" height="10" width="20" style="fill: Fuchsia"/><text x="393" y="-15" style="fill:navy; stroke-width: 2; text-anchor:start">3</text><text x="393" y="-40" style="fill:Indigo; stroke-width: 2; text-anchor:start">1</text></g><g><text x="420" y="20" style="fill:navy; stroke-width: 2; text-anchor:start">2013</text><rect x="420" y="-40" height="39" width="20" style="fill: LightSalmon"/><rect x="420" y="-40" height="0" width="20" style="fill: Fuchsia"/><text x="423" y="-25" style="fill:navy; stroke-width: 2; text-anchor:start">4</text><text x="423" y="-40" style="fill:Indigo; stroke-width: 2; text-anchor:start"/></g><g><text x="450" y="20" style="fill:navy; stroke-width: 2; text-anchor:start">2014</text><rect x="450" y="-20" height="19" width="20" style="fill: LightSalmon"/><rect x="450" y="-30" height="10" width="20" style="fill: Fuchsia"/><text x="453" y="-5" style="fill:navy; stroke-width: 2; text-anchor:start">2</text><text x="453" y="-30" style="fill:Indigo; stroke-width: 2; text-anchor:start">1</text></g><g><text x="480" y="20" style="fill:navy; stroke-width: 2; text-anchor:start">2015</text><rect x="480" y="-50" height="49" width="20" style="fill: LightSalmon"/><rect x="480" y="-50" height="0" width="20" style="fill: Fuchsia"/><text x="483" y="-35" style="fill:navy; stroke-width: 2; text-anchor:start">5</text><text x="483" y="-50" style="fill:Indigo; stroke-width: 2; text-anchor:start"/></g><g><text x="510" y="20" style="fill:navy; stroke-width: 2; text-anchor:start">2016</text><rect x="510" y="-10" height="9" width="20" style="fill: LightSalmon"/><rect x="510" y="-10" height="0" width="20" style="fill: Fuchsia"/><text x="513" y="--5" style="fill:navy; stroke-width: 2; text-anchor:start">1</text><text x="513" y="-10" style="fill:Indigo; stroke-width: 2; text-anchor:start"/></g><g><text x="540" y="20" style="fill:navy; stroke-width: 2; text-anchor:start">2017</text><rect x="540" y="-0" height="-1" width="20" style="fill: LightSalmon"/><rect x="540" y="-10" height="10" width="20" style="fill: Fuchsia"/><text x="543" y="--15" style="fill:navy; stroke-width: 2; text-anchor:start"/><text x="543" y="-10" style="fill:Indigo; stroke-width: 2; text-anchor:start">1</text></g><g><text x="570" y="20" style="fill:navy; stroke-width: 2; text-anchor:start">2018</text><rect x="570" y="-80" height="79" width="20" style="fill: LightSalmon"/><rect x="570" y="-80" height="0" width="20" style="fill: Fuchsia"/><text x="573" y="-65" style="fill:navy; stroke-width: 2; text-anchor:start">8</text><text x="573" y="-80" style="fill:Indigo; stroke-width: 2; text-anchor:start"/></g><line x1="-5" y1="-50" x2="590" y2="-50" style="stroke:grey;stroke-width:1; stroke-dasharray:7,5"/><text x="-25" y="-48" style="fill:grey; stroke-width: 1; text-anchor:start">5</text><line x1="-5" y1="-100" x2="590" y2="-100" style="stroke:grey;stroke-width:1; stroke-dasharray:7,5"/><text x="-25" y="-98" style="fill:grey; stroke-width: 1; text-anchor:start">10</text><line x1="-5" y1="-150" x2="590" y2="-150" style="stroke:grey;stroke-width:1; stroke-dasharray:7,5"/><text x="-25" y="-148" style="fill:grey; stroke-width: 1; text-anchor:start">15</text><rect x="520" y="-170" height="15" width="20" style="fill: LightSalmon"/><text x="550" y="-160" style="fill:black; stroke-width: 2; text-anchor:start">Spray Paint</text><rect x="520" y="-190" height="15" width="20" style="fill: Fuchsia"/><text x="550" y="-180" style="fill:black; stroke-width: 2; text-anchor:start">Canvas</text><text x="100" y="-180" style="fill:black; stroke-width: 2; text-anchor:start; font-size:21">Banksy artworks each year in comparison to canvas media</text></g></svg>