<?xml version="1.0" encoding="UTF-8"?>
<svg xmlns="http://www.w3.org/2000/svg" width="3000" height="1000"><g transform="translate(25, 200)"><g><circle cx="65" cy="100" r="24" stroke="black" stroke-width="2" fill="teal"/><circle cx="65" cy="100" r="11" stroke="black" stroke-width="2" fill="orange"/><text x="65" y="150" style="writing-mode: tb; glyph-orientation-vertical">intro</text><text x="65" y="30" style="writing-mode: tb; glyph-orientation-vertical">11</text>11</g><g><circle cx="130" cy="100" r="15" stroke="black" stroke-width="2" fill="teal"/><circle cx="130" cy="100" r="12" stroke="black" stroke-width="2" fill="orange"/><text x="130" y="150" style="writing-mode: tb; glyph-orientation-vertical">Another Day, Another Drachma</text><text x="130" y="30" style="writing-mode: tb; glyph-orientation-vertical">12</text>12</g><g><circle cx="195" cy="100" r="33" stroke="black" stroke-width="2" fill="teal"/><circle cx="195" cy="100" r="14" stroke="black" stroke-width="2" fill="orange"/><text x="195" y="150" style="writing-mode: tb; glyph-orientation-vertical">A Debt to Pay</text><text x="195" y="30" style="writing-mode: tb; glyph-orientation-vertical">14</text>14</g><g><circle cx="260" cy="100" r="29" stroke="black" stroke-width="2" fill="teal"/><circle cx="260" cy="100" r="16" stroke="black" stroke-width="2" fill="orange"/><text x="260" y="150" style="writing-mode: tb; glyph-orientation-vertical">The Wolf Hunt</text><text x="260" y="30" style="writing-mode: tb; glyph-orientation-vertical">16</text>16</g><g><circle cx="325" cy="100" r="3" stroke="black" stroke-width="2" fill="teal"/><circle cx="325" cy="100" r="3" stroke="black" stroke-width="2" fill="orange"/><text x="325" y="150" style="writing-mode: tb; glyph-orientation-vertical">The Wolf and Snake</text><text x="325" y="30" style="writing-mode: tb; glyph-orientation-vertical">3</text>3</g><g><circle cx="390" cy="100" r="9" stroke="black" stroke-width="2" fill="teal"/><circle cx="390" cy="100" r="6" stroke="black" stroke-width="2" fill="orange"/><text x="390" y="150" style="writing-mode: tb; glyph-orientation-vertical">Of Visions and Visionaries</text><text x="390" y="30" style="writing-mode: tb; glyph-orientation-vertical">6</text>6</g><g><circle cx="455" cy="100" r="18" stroke="black" stroke-width="2" fill="teal"/><circle cx="455" cy="100" r="6" stroke="black" stroke-width="2" fill="orange"/><text x="455" y="150" style="writing-mode: tb; glyph-orientation-vertical">Beware the Snakes</text><text x="455" y="30" style="writing-mode: tb; glyph-orientation-vertical">6</text>6</g><g><circle cx="520" cy="100" r="12" stroke="black" stroke-width="2" fill="teal"/><circle cx="520" cy="100" r="12" stroke="black" stroke-width="2" fill="orange"/><text x="520" y="150" style="writing-mode: tb; glyph-orientation-vertical">An Old Enemy and a New Ally</text><text x="520" y="30" style="writing-mode: tb; glyph-orientation-vertical">12</text>12</g><g><circle cx="585" cy="100" r="34" stroke="black" stroke-width="2" fill="teal"/><circle cx="585" cy="100" r="23" stroke="black" stroke-width="2" fill="orange"/><text x="585" y="150" style="writing-mode: tb; glyph-orientation-vertical">The Road to the Symposium</text><text x="585" y="30" style="writing-mode: tb; glyph-orientation-vertical">23</text>23</g><g><circle cx="650" cy="100" r="28" stroke="black" stroke-width="2" fill="teal"/><circle cx="650" cy="100" r="11" stroke="black" stroke-width="2" fill="orange"/><text x="650" y="150" style="writing-mode: tb; glyph-orientation-vertical">Land of the Lawless</text><text x="650" y="30" style="writing-mode: tb; glyph-orientation-vertical">11</text>11</g><g><circle cx="715" cy="100" r="32" stroke="black" stroke-width="2" fill="teal"/><circle cx="715" cy="100" r="16" stroke="black" stroke-width="2" fill="orange"/><text x="715" y="150" style="writing-mode: tb; glyph-orientation-vertical">A Prescription for Discovery</text><text x="715" y="30" style="writing-mode: tb; glyph-orientation-vertical">16</text>16</g><g><circle cx="780" cy="100" r="5" stroke="black" stroke-width="2" fill="teal"/><circle cx="780" cy="100" r="5" stroke="black" stroke-width="2" fill="orange"/><text x="780" y="150" style="writing-mode: tb; glyph-orientation-vertical">Pirate Hospitality</text><text x="780" y="30" style="writing-mode: tb; glyph-orientation-vertical">5</text>5</g><g><circle cx="845" cy="100" r="18" stroke="black" stroke-width="2" fill="teal"/><circle cx="845" cy="100" r="10" stroke="black" stroke-width="2" fill="orange"/><text x="845" y="150" style="writing-mode: tb; glyph-orientation-vertical">Rising from the Ashes</text><text x="845" y="30" style="writing-mode: tb; glyph-orientation-vertical">10</text>10</g><g><circle cx="910" cy="100" r="4" stroke="black" stroke-width="2" fill="teal"/><circle cx="910" cy="100" r="5" stroke="black" stroke-width="2" fill="orange"/><text x="910" y="150" style="writing-mode: tb; glyph-orientation-vertical">The Reunion</text><text x="910" y="30" style="writing-mode: tb; glyph-orientation-vertical">5</text>5</g><g><circle cx="975" cy="100" r="22" stroke="black" stroke-width="2" fill="teal"/><circle cx="975" cy="100" r="13" stroke="black" stroke-width="2" fill="orange"/><text x="975" y="150" style="writing-mode: tb; glyph-orientation-vertical">Paradise Lost</text><text x="975" y="30" style="writing-mode: tb; glyph-orientation-vertical">13</text>13</g><g><circle cx="1040" cy="100" r="6" stroke="black" stroke-width="2" fill="teal"/><circle cx="1040" cy="100" r="5" stroke="black" stroke-width="2" fill="orange"/><text x="1040" y="150" style="writing-mode: tb; glyph-orientation-vertical">The Last Riddle</text><text x="1040" y="30" style="writing-mode: tb; glyph-orientation-vertical">5</text>5</g><g><circle cx="1105" cy="100" r="40" stroke="black" stroke-width="2" fill="teal"/><circle cx="1105" cy="100" r="12" stroke="black" stroke-width="2" fill="orange"/><text x="1105" y="150" style="writing-mode: tb; glyph-orientation-vertical">A Place of Twists and Turns</text><text x="1105" y="30" style="writing-mode: tb; glyph-orientation-vertical">12</text>12</g><g><circle cx="1170" cy="100" r="16" stroke="black" stroke-width="2" fill="teal"/><circle cx="1170" cy="100" r="11" stroke="black" stroke-width="2" fill="orange"/><text x="1170" y="150" style="writing-mode: tb; glyph-orientation-vertical">Home Is Where My Mother Is</text><text x="1170" y="30" style="writing-mode: tb; glyph-orientation-vertical">11</text>11</g><g><circle cx="1235" cy="100" r="27" stroke="black" stroke-width="2" fill="teal"/><circle cx="1235" cy="100" r="15" stroke="black" stroke-width="2" fill="orange"/><text x="1235" y="150" style="writing-mode: tb; glyph-orientation-vertical">The Olympian</text><text x="1235" y="30" style="writing-mode: tb; glyph-orientation-vertical">15</text>15</g><g><circle cx="1300" cy="100" r="13" stroke="black" stroke-width="2" fill="teal"/><circle cx="1300" cy="100" r="11" stroke="black" stroke-width="2" fill="orange"/><text x="1300" y="150" style="writing-mode: tb; glyph-orientation-vertical">The Cult and the Archon</text><text x="1300" y="30" style="writing-mode: tb; glyph-orientation-vertical">11</text>11</g><g><circle cx="1365" cy="100" r="9" stroke="black" stroke-width="2" fill="teal"/><circle cx="1365" cy="100" r="4" stroke="black" stroke-width="2" fill="orange"/><text x="1365" y="150" style="writing-mode: tb; glyph-orientation-vertical">Paint It Red</text><text x="1365" y="30" style="writing-mode: tb; glyph-orientation-vertical">4</text>4</g><g><circle cx="1430" cy="100" r="13" stroke="black" stroke-width="2" fill="teal"/><circle cx="1430" cy="100" r="9" stroke="black" stroke-width="2" fill="orange"/><text x="1430" y="150" style="writing-mode: tb; glyph-orientation-vertical">The Cultist King</text><text x="1430" y="30" style="writing-mode: tb; glyph-orientation-vertical">9</text>9</g><g><circle cx="1495" cy="100" r="4" stroke="black" stroke-width="2" fill="teal"/><circle cx="1495" cy="100" r="7" stroke="black" stroke-width="2" fill="orange"/><text x="1495" y="150" style="writing-mode: tb; glyph-orientation-vertical">Uprising</text><text x="1495" y="30" style="writing-mode: tb; glyph-orientation-vertical">7</text>7</g><g><circle cx="1560" cy="100" r="12" stroke="black" stroke-width="2" fill="teal"/><circle cx="1560" cy="100" r="10" stroke="black" stroke-width="2" fill="orange"/><text x="1560" y="150" style="writing-mode: tb; glyph-orientation-vertical">Public Opinion</text><text x="1560" y="30" style="writing-mode: tb; glyph-orientation-vertical">10</text>10</g><g><circle cx="1625" cy="100" r="8" stroke="black" stroke-width="2" fill="teal"/><circle cx="1625" cy="100" r="4" stroke="black" stroke-width="2" fill="orange"/><text x="1625" y="150" style="writing-mode: tb; glyph-orientation-vertical">Battle of Amphipolis</text><text x="1625" y="30" style="writing-mode: tb; glyph-orientation-vertical">4</text>4</g><g><circle cx="1690" cy="100" r="8" stroke="black" stroke-width="2" fill="teal"/><circle cx="1690" cy="100" r="6" stroke="black" stroke-width="2" fill="orange"/><text x="1690" y="150" style="writing-mode: tb; glyph-orientation-vertical">Homecoming</text><text x="1690" y="30" style="writing-mode: tb; glyph-orientation-vertical">6</text>6</g><g><circle cx="1755" cy="100" r="4" stroke="black" stroke-width="2" fill="teal"/><circle cx="1755" cy="100" r="4" stroke="black" stroke-width="2" fill="orange"/><text x="1755" y="150" style="writing-mode: tb; glyph-orientation-vertical">From the Shadows</text><text x="1755" y="30" style="writing-mode: tb; glyph-orientation-vertical">4</text>4</g><g><circle cx="1820" cy="100" r="19" stroke="black" stroke-width="2" fill="teal"/><circle cx="1820" cy="100" r="5" stroke="black" stroke-width="2" fill="orange"/><text x="1820" y="150" style="writing-mode: tb; glyph-orientation-vertical">Shadows of Serpents</text><text x="1820" y="30" style="writing-mode: tb; glyph-orientation-vertical">5</text>5</g><g><circle cx="1885" cy="100" r="9" stroke="black" stroke-width="2" fill="teal"/><circle cx="1885" cy="100" r="9" stroke="black" stroke-width="2" fill="orange"/><text x="1885" y="150" style="writing-mode: tb; glyph-orientation-vertical">The Gates of Atlantis</text><text x="1885" y="30" style="writing-mode: tb; glyph-orientation-vertical">9</text>9</g></g></svg>