<?xml version="1.0" encoding="UTF-8"?>
<svg width="500" height="700" viewBox="0 0 800 900"><g transform="translate(50, 450)"><g class="hashElectorals"><line x1="0" y1="0" x2="400" y2="0" stroke="purple" stroke-width="1" stroke-dasharray="2"/><text x="-30" y="5" stroke="black">0</text></g><g class="hashElectorals"><line x1="0" y1="-100" x2="400" y2="-100" stroke="purple" stroke-width="1" stroke-dasharray="2"/><text x="-30" y="-95" stroke="black">100</text></g><g class="hashElectorals"><line x1="0" y1="-200" x2="400" y2="-200" stroke="purple" stroke-width="1" stroke-dasharray="2"/><text x="-30" y="-195" stroke="black">200</text></g><g class="hashElectorals"><line x1="0" y1="-300" x2="400" y2="-300" stroke="purple" stroke-width="1" stroke-dasharray="2"/><text x="-30" y="-295" stroke="black">300</text></g><g class="hashElectorals"><line x1="0" y1="-400" x2="400" y2="-400" stroke="purple" stroke-width="1" stroke-dasharray="2"/><text x="-30" y="-395" stroke="black">400</text></g><g class="hashElectorals"><line x1="0" y1="-500" x2="400" y2="-500" stroke="purple" stroke-width="1" stroke-dasharray="2"/><text x="-30" y="-495" stroke="black">500</text></g><g class="cycleData"><line x1="100" y1="0" x2="100" y2="-500" stroke="purple" stroke-width="1" stroke-dasharray="2"/><text x="100" y="10" stroke="black">1900</text>0<circle cx="1900 1904 1908 1912" cy="292" r="58.337202938838004" fill="red" opacity=".25"/><circle cx="1900 1904 1908 1912" cy="155" r="51.34125210284583" fill="blue" opacity=".25"/></g><g class="cycleData"><line x1="200" y1="0" x2="200" y2="-500" stroke="purple" stroke-width="1" stroke-dasharray="2"/><text x="200" y="10" stroke="black">1904</text>0<circle cx="1900 1904 1908 1912" cy="336" r="63.64058502418691" fill="red" opacity=".25"/><circle cx="1900 1904 1908 1912" cy="140" r="42.427056682791275" fill="blue" opacity=".25"/></g><g class="cycleData"><line x1="300" y1="0" x2="300" y2="-500" stroke="purple" stroke-width="1" stroke-dasharray="2"/><text x="300" y="10" stroke="black">1908</text>0<circle cx="1900 1904 1908 1912" cy="321" r="58.224365022128445" fill="red" opacity=".25"/><circle cx="1900 1904 1908 1912" cy="162" r="48.520304185107044" fill="blue" opacity=".25"/></g><g class="cycleData"><line x1="400" y1="0" x2="400" y2="-500" stroke="purple" stroke-width="1" stroke-dasharray="2"/><text x="400" y="10" stroke="black">1912</text>88<circle cx="1900 1904 1908 1912" cy="8" r="26.178396676615893" fill="red" opacity=".25"/><circle cx="1900 1904 1908 1912" cy="435" r="47.166249184592424" fill="blue" opacity=".25"/></g></g></svg>