<?xml version="1.0" encoding="UTF-8"?>
<svg xmlns="http://www.w3.org/2000/svg" width="1000" height="4000"><g transform="translate(30, 30)"><text x="200" y="0">-2700</text><text x="200" y="3700">1000</text><text x="500" y="3700">MaxYear - MinYear = 3700</text><line x1="100" y1="0" x2="100" y2="3700" stroke="purple" stroke-width="3"/><g class="yeardata"><circle class="start" cx="100" cy="2600" r="10" fill="green"/><line class="yearStartHash" x1="100" x2="120" y1="2600" stroke="purple" stroke-width="2" y2="2600"/><line class="yearEndHash" x1="100" x2="120" y1="2900" stroke="orange" y2="2900" stroke-width="2"/><line class="startEndConnector" x1="120" x2="120" y1="2600" y2="2900" stroke-width="2" stroke="red"/> --&gt;
  <text fill="black" x="50" y="2605">-100</text><text fill="black" x="50" y="2905">200</text><text class="siteName" style="writing-mode: tb;" fill="black" x="130" y="2650">San Bartolo</text><circle cx="100" cy="2900" r="10" fill="blue"/><!--<text x="100" y="{($y - $minYear) * $timelineSpacer}">{$y}</text>--></g><g class="yeardata"><circle class="start" cx="100" cy="0" r="10" fill="green"/><line class="yearStartHash" x1="100" x2="140" y1="0" stroke="purple" stroke-width="2" y2="0"/><line class="yearEndHash" x1="100" x2="140" y1="2500" stroke="orange" y2="2500" stroke-width="2"/><line class="startEndConnector" x1="140" x2="140" y1="0" y2="2500" stroke-width="2" stroke="red"/> --&gt;
  <text fill="black" x="50" y="5">-2700 </text><text fill="black" x="50" y="2505">-200</text><text class="siteName" style="writing-mode: tb;" fill="black" x="150" y="50">El Mirador</text><circle cx="100" cy="2500" r="10" fill="blue"/><!--<text x="100" y="{($y - $minYear) * $timelineSpacer}">{$y}</text>--></g><g class="yeardata"><circle class="start" cx="100" cy="3300" r="10" fill="green"/><line class="yearStartHash" x1="100" x2="160" y1="3300" stroke="purple" stroke-width="2" y2="3300"/><line class="yearEndHash" x1="100" x2="160" y1="3600" stroke="orange" y2="3600" stroke-width="2"/><line class="startEndConnector" x1="160" x2="160" y1="3300" y2="3600" stroke-width="2" stroke="red"/> --&gt;
  <text fill="black" x="50" y="3305">600</text><text fill="black" x="50" y="3605">900</text><text class="siteName" style="writing-mode: tb;" fill="black" x="170" y="3350">Tikal</text><circle cx="100" cy="3600" r="10" fill="blue"/><!--<text x="100" y="{($y - $minYear) * $timelineSpacer}">{$y}</text>--></g><g class="yeardata"><circle class="start" cx="100" cy="2990" r="10" fill="green"/><line class="yearStartHash" x1="100" x2="180" y1="2990" stroke="purple" stroke-width="2" y2="2990"/><line class="yearEndHash" x1="100" x2="180" y1="3600" stroke="orange" y2="3600" stroke-width="2"/><line class="startEndConnector" x1="180" x2="180" y1="2990" y2="3600" stroke-width="2" stroke="red"/> --&gt;
  <text fill="black" x="50" y="2995">290</text><text fill="black" x="50" y="3605">900</text><text class="siteName" style="writing-mode: tb;" fill="black" x="190" y="3040">Copán</text><circle cx="100" cy="3600" r="10" fill="blue"/><!--<text x="100" y="{($y - $minYear) * $timelineSpacer}">{$y}</text>--></g><g class="yeardata"><circle class="start" cx="100" cy="3300" r="10" fill="green"/><line class="yearStartHash" x1="100" x2="200" y1="3300" stroke="purple" stroke-width="2" y2="3300"/><line class="yearEndHash" x1="100" x2="200" y1="3600" stroke="orange" y2="3600" stroke-width="2"/><line class="startEndConnector" x1="200" x2="200" y1="3300" y2="3600" stroke-width="2" stroke="red"/> --&gt;
  <text fill="black" x="50" y="3305">600</text><text fill="black" x="50" y="3605">900</text><text class="siteName" style="writing-mode: tb;" fill="black" x="210" y="3350">Chichen Itza</text><circle cx="100" cy="3600" r="10" fill="blue"/><!--<text x="100" y="{($y - $minYear) * $timelineSpacer}">{$y}</text>--></g><g class="yeardata"><circle class="start" cx="100" cy="2450" r="10" fill="green"/><line class="yearStartHash" x1="100" x2="220" y1="2450" stroke="purple" stroke-width="2" y2="2450"/><line class="yearEndHash" x1="100" x2="220" y1="2815" stroke="orange" y2="2815" stroke-width="2"/><line class="startEndConnector" x1="220" x2="220" y1="2450" y2="2815" stroke-width="2" stroke="red"/> --&gt;
  <text fill="black" x="50" y="2455">-250</text><text fill="black" x="50" y="2820">115</text><text class="siteName" style="writing-mode: tb;" fill="black" x="230" y="2500">Izapa</text><circle cx="100" cy="2815" r="10" fill="blue"/><!--<text x="100" y="{($y - $minYear) * $timelineSpacer}">{$y}</text>--></g><g class="yeardata"><circle class="start" cx="100" cy="2300" r="10" fill="green"/><line class="yearStartHash" x1="100" x2="240" y1="2300" stroke="purple" stroke-width="2" y2="2300"/><line class="yearEndHash" x1="100" x2="240" y1="2800" stroke="orange" y2="2800" stroke-width="2"/><line class="startEndConnector" x1="240" x2="240" y1="2300" y2="2800" stroke-width="2" stroke="red"/> --&gt;
  <text fill="black" x="50" y="2305">-400</text><text fill="black" x="50" y="2805">100</text><text class="siteName" style="writing-mode: tb;" fill="black" x="250" y="2350">Kaminaljuyu</text><circle cx="100" cy="2800" r="10" fill="blue"/><!--<text x="100" y="{($y - $minYear) * $timelineSpacer}">{$y}</text>--></g><g class="yeardata"><circle class="start" cx="100" cy="2474" r="10" fill="green"/><line class="yearStartHash" x1="100" x2="260" y1="2474" stroke="purple" stroke-width="2" y2="2474"/><line class="yearEndHash" x1="100" x2="260" y1="3499" stroke="orange" y2="3499" stroke-width="2"/><line class="startEndConnector" x1="260" x2="260" y1="2474" y2="3499" stroke-width="2" stroke="red"/> --&gt;
  <text fill="black" x="50" y="2479">-226</text><text fill="black" x="50" y="3504">799</text><text class="siteName" style="writing-mode: tb;" fill="black" x="270" y="2524">Palenque</text><circle cx="100" cy="3499" r="10" fill="blue"/><!--<text x="100" y="{($y - $minYear) * $timelineSpacer}">{$y}</text>--></g><g class="yeardata"><circle class="start" cx="100" cy="3200" r="10" fill="green"/><line class="yearStartHash" x1="100" x2="280" y1="3200" stroke="purple" stroke-width="2" y2="3200"/><line class="yearEndHash" x1="100" x2="280" y1="3700" stroke="orange" y2="3700" stroke-width="2"/><line class="startEndConnector" x1="280" x2="280" y1="3200" y2="3700" stroke-width="2" stroke="red"/> --&gt;
  <text fill="black" x="50" y="3205">500</text><text fill="black" x="50" y="3705">1000</text><text class="siteName" style="writing-mode: tb;" fill="black" x="290" y="3250">Uxmal</text><circle cx="100" cy="3700" r="10" fill="blue"/><!--<text x="100" y="{($y - $minYear) * $timelineSpacer}">{$y}</text>--></g><g class="yeardata"><circle class="start" cx="100" cy="2950" r="10" fill="green"/><line class="yearStartHash" x1="100" x2="300" y1="2950" stroke="purple" stroke-width="2" y2="2950"/><line class="yearEndHash" x1="100" x2="300" y1="3600" stroke="orange" y2="3600" stroke-width="2"/><line class="startEndConnector" x1="300" x2="300" y1="2950" y2="3600" stroke-width="2" stroke="red"/> --&gt;
  <text fill="black" x="50" y="2955">250</text><text fill="black" x="50" y="3605">900</text><text class="siteName" style="writing-mode: tb;" fill="black" x="310" y="3000">Yaxchilan</text><circle cx="100" cy="3600" r="10" fill="blue"/><!--<text x="100" y="{($y - $minYear) * $timelineSpacer}">{$y}</text>--></g></g></svg>