<?xml version="1.0" encoding="UTF-8"?>
<svg xmlns="http://www.w3.org/2000/svg" viewBox="0 0 3000 1500"><g transform="translate (100, 1100)"><text x="100" y="-700" style="font-size:4em;font-weight:bold;font-family: Georgia, serif;">Number of Speakers VS The Amount of Speaker Parts</text><circle cx="2230" cy="-700" r="80" fill="#F7AD14"/><text x="2160" y="-700" fill="black" style="font-size:2em;">Speeches</text><circle cx="2400" cy="-700" r="80" fill="#648A47"/><text x="2330" y="-700" fill="black" style="font-size:2em;">Speakers</text><line x1="0" y1="0" x2="2500" y2="0" stroke="black"/><line x1="0" y1="-900" x2="0" y2="0" stroke="black"/><g><text x="707" y="-454" fill="black">437</text><line x1="720" y1="-437" x2="720" y2="0" stroke="#F7AD14" stroke-width="25"/><text x="737" y="20" style="writing-mode: tb; glyph-oriented-vertical:0; font-size:2em;">The Road to the Symposium</text><text x="744" y="-61" fill="black">23</text><line x1="750" y1="-46" x2="750" y2="0" stroke="#648A47" stroke-width="25"/></g><g><text x="1347" y="-374" fill="black">357</text><line x1="1360" y1="-357" x2="1360" y2="0" stroke="#F7AD14" stroke-width="25"/><text x="1377" y="20" style="writing-mode: tb; glyph-oriented-vertical:0; font-size:2em;">A Place of Twists and Turns</text><text x="1384" y="-39" fill="black">12</text><line x1="1390" y1="-24" x2="1390" y2="0" stroke="#648A47" stroke-width="25"/></g><g><text x="787" y="-358" fill="black">341</text><line x1="800" y1="-341" x2="800" y2="0" stroke="#F7AD14" stroke-width="25"/><text x="817" y="20" style="writing-mode: tb; glyph-oriented-vertical:0; font-size:2em;">Land of the Lawless</text><text x="824" y="-37" fill="black">11</text><line x1="830" y1="-22" x2="830" y2="0" stroke="#648A47" stroke-width="25"/></g><g><text x="227" y="-340" fill="black">323</text><line x1="240" y1="-323" x2="240" y2="0" stroke="#F7AD14" stroke-width="25"/><text x="257" y="20" style="writing-mode: tb; glyph-oriented-vertical:0; font-size:2em;">A Debt to Pay</text><text x="264" y="-43" fill="black">14</text><line x1="270" y1="-28" x2="270" y2="0" stroke="#648A47" stroke-width="25"/></g><g><text x="307" y="-332" fill="black">315</text><line x1="320" y1="-315" x2="320" y2="0" stroke="#F7AD14" stroke-width="25"/><text x="337" y="20" style="writing-mode: tb; glyph-oriented-vertical:0; font-size:2em;">The Wolf Hunt</text><text x="344" y="-47" fill="black">16</text><line x1="350" y1="-32" x2="350" y2="0" stroke="#648A47" stroke-width="25"/></g><g><text x="867" y="-321" fill="black">304</text><line x1="880" y1="-304" x2="880" y2="0" stroke="#F7AD14" stroke-width="25"/><text x="897" y="20" style="writing-mode: tb; glyph-oriented-vertical:0; font-size:2em;">A Prescription for Discovery</text><text x="904" y="-47" fill="black">16</text><line x1="910" y1="-32" x2="910" y2="0" stroke="#648A47" stroke-width="25"/></g><g><text x="1427" y="-235" fill="black">218</text><line x1="1440" y1="-218" x2="1440" y2="0" stroke="#F7AD14" stroke-width="25"/><text x="1457" y="20" style="writing-mode: tb; glyph-oriented-vertical:0; font-size:2em;">Home Is Where My Mother Is</text><text x="1464" y="-37" fill="black">11</text><line x1="1470" y1="-22" x2="1470" y2="0" stroke="#648A47" stroke-width="25"/></g><g><text x="1187" y="-230" fill="black">213</text><line x1="1200" y1="-213" x2="1200" y2="0" stroke="#F7AD14" stroke-width="25"/><text x="1217" y="20" style="writing-mode: tb; glyph-oriented-vertical:0; font-size:2em;">Paradise Lost</text><text x="1224" y="-41" fill="black">13</text><line x1="1230" y1="-26" x2="1230" y2="0" stroke="#648A47" stroke-width="25"/></g><g><text x="1907" y="-204" fill="black">187</text><line x1="1920" y1="-187" x2="1920" y2="0" stroke="#F7AD14" stroke-width="25"/><text x="1937" y="20" style="writing-mode: tb; glyph-oriented-vertical:0; font-size:2em;">Public Opinion</text><text x="1944" y="-35" fill="black">10</text><line x1="1950" y1="-20" x2="1950" y2="0" stroke="#648A47" stroke-width="25"/></g><g><text x="627" y="-196" fill="black">179</text><line x1="640" y1="-179" x2="640" y2="0" stroke="#F7AD14" stroke-width="25"/><text x="657" y="20" style="writing-mode: tb; glyph-oriented-vertical:0; font-size:2em;">An Old Enemy and a New Ally</text><text x="664" y="-39" fill="black">12</text><line x1="670" y1="-24" x2="670" y2="0" stroke="#648A47" stroke-width="25"/></g><g><text x="1507" y="-185" fill="black">168</text><line x1="1520" y1="-168" x2="1520" y2="0" stroke="#F7AD14" stroke-width="25"/><text x="1537" y="20" style="writing-mode: tb; glyph-oriented-vertical:0; font-size:2em;">The Olympian</text><text x="1544" y="-45" fill="black">15</text><line x1="1550" y1="-30" x2="1550" y2="0" stroke="#648A47" stroke-width="25"/></g><g><text x="1027" y="-167" fill="black">150</text><line x1="1040" y1="-150" x2="1040" y2="0" stroke="#F7AD14" stroke-width="25"/><text x="1057" y="20" style="writing-mode: tb; glyph-oriented-vertical:0; font-size:2em;">Rising from the Ashes</text><text x="1064" y="-35" fill="black">10</text><line x1="1070" y1="-20" x2="1070" y2="0" stroke="#648A47" stroke-width="25"/></g><g><text x="147" y="-162" fill="black">145</text><line x1="160" y1="-145" x2="160" y2="0" stroke="#F7AD14" stroke-width="25"/><text x="177" y="20" style="writing-mode: tb; glyph-oriented-vertical:0; font-size:2em;">Another Day, Another Drachma</text><text x="184" y="-39" fill="black">12</text><line x1="190" y1="-24" x2="190" y2="0" stroke="#648A47" stroke-width="25"/></g><g><text x="1747" y="-155" fill="black">138</text><line x1="1760" y1="-138" x2="1760" y2="0" stroke="#F7AD14" stroke-width="25"/><text x="1777" y="20" style="writing-mode: tb; glyph-oriented-vertical:0; font-size:2em;">The Cultist King</text><text x="1784" y="-33" fill="black">9</text><line x1="1790" y1="-18" x2="1790" y2="0" stroke="#648A47" stroke-width="25"/></g><g><text x="1587" y="-151" fill="black">134</text><line x1="1600" y1="-134" x2="1600" y2="0" stroke="#F7AD14" stroke-width="25"/><text x="1617" y="20" style="writing-mode: tb; glyph-oriented-vertical:0; font-size:2em;">The Cult and the Archon</text><text x="1624" y="-37" fill="black">11</text><line x1="1630" y1="-22" x2="1630" y2="0" stroke="#648A47" stroke-width="25"/></g><g><text x="547" y="-143" fill="black">126</text><line x1="560" y1="-126" x2="560" y2="0" stroke="#F7AD14" stroke-width="25"/><text x="577" y="20" style="writing-mode: tb; glyph-oriented-vertical:0; font-size:2em;">Beware the Snakes</text><text x="584" y="-27" fill="black">6</text><line x1="590" y1="-12" x2="590" y2="0" stroke="#648A47" stroke-width="25"/></g><g><text x="467" y="-136" fill="black">119</text><line x1="480" y1="-119" x2="480" y2="0" stroke="#F7AD14" stroke-width="25"/><text x="497" y="20" style="writing-mode: tb; glyph-oriented-vertical:0; font-size:2em;">Of Visions and Visionaries</text><text x="504" y="-27" fill="black">6</text><line x1="510" y1="-12" x2="510" y2="0" stroke="#648A47" stroke-width="25"/></g><g><text x="1667" y="-129" fill="black">112</text><line x1="1680" y1="-112" x2="1680" y2="0" stroke="#F7AD14" stroke-width="25"/><text x="1697" y="20" style="writing-mode: tb; glyph-oriented-vertical:0; font-size:2em;">Paint It Red</text><text x="1704" y="-23" fill="black">4</text><line x1="1710" y1="-8" x2="1710" y2="0" stroke="#648A47" stroke-width="25"/></g><g><text x="1107" y="-128" fill="black">111</text><line x1="1120" y1="-111" x2="1120" y2="0" stroke="#F7AD14" stroke-width="25"/><text x="1137" y="20" style="writing-mode: tb; glyph-oriented-vertical:0; font-size:2em;">The Reunion</text><text x="1144" y="-25" fill="black">5</text><line x1="1150" y1="-10" x2="1150" y2="0" stroke="#648A47" stroke-width="25"/></g><g><text x="2227" y="-127" fill="black">110</text><line x1="2240" y1="-110" x2="2240" y2="0" stroke="#F7AD14" stroke-width="25"/><text x="2257" y="20" style="writing-mode: tb; glyph-oriented-vertical:0; font-size:2em;">Shadows of Serpents</text><text x="2264" y="-25" fill="black">5</text><line x1="2270" y1="-10" x2="2270" y2="0" stroke="#648A47" stroke-width="25"/></g><g><text x="2307" y="-127" fill="black">110</text><line x1="2320" y1="-110" x2="2320" y2="0" stroke="#F7AD14" stroke-width="25"/><text x="2337" y="20" style="writing-mode: tb; glyph-oriented-vertical:0; font-size:2em;">The Gates of Atlantis</text><text x="2344" y="-33" fill="black">9</text><line x1="2350" y1="-18" x2="2350" y2="0" stroke="#648A47" stroke-width="25"/></g><g><text x="67" y="-99" fill="black">82</text><line x1="80" y1="-82" x2="80" y2="0" stroke="#F7AD14" stroke-width="25"/><text x="97" y="20" style="writing-mode: tb; glyph-oriented-vertical:0; font-size:2em;">intro</text><text x="104" y="-37" fill="black">11</text><line x1="110" y1="-22" x2="110" y2="0" stroke="#648A47" stroke-width="25"/></g><g><text x="947" y="-80" fill="black">63</text><line x1="960" y1="-63" x2="960" y2="0" stroke="#F7AD14" stroke-width="25"/><text x="977" y="20" style="writing-mode: tb; glyph-oriented-vertical:0; font-size:2em;">Pirate Hospitality</text><text x="984" y="-25" fill="black">5</text><line x1="990" y1="-10" x2="990" y2="0" stroke="#648A47" stroke-width="25"/></g><g><text x="2067" y="-73" fill="black">56</text><line x1="2080" y1="-56" x2="2080" y2="0" stroke="#F7AD14" stroke-width="25"/><text x="2097" y="20" style="writing-mode: tb; glyph-oriented-vertical:0; font-size:2em;">Homecoming</text><text x="2104" y="-27" fill="black">6</text><line x1="2110" y1="-12" x2="2110" y2="0" stroke="#648A47" stroke-width="25"/></g><g><text x="2147" y="-68" fill="black">51</text><line x1="2160" y1="-51" x2="2160" y2="0" stroke="#F7AD14" stroke-width="25"/><text x="2177" y="20" style="writing-mode: tb; glyph-oriented-vertical:0; font-size:2em;">From the Shadows</text><text x="2184" y="-23" fill="black">4</text><line x1="2190" y1="-8" x2="2190" y2="0" stroke="#648A47" stroke-width="25"/></g><g><text x="1267" y="-64" fill="black">47</text><line x1="1280" y1="-47" x2="1280" y2="0" stroke="#F7AD14" stroke-width="25"/><text x="1297" y="20" style="writing-mode: tb; glyph-oriented-vertical:0; font-size:2em;">The Last Riddle</text><text x="1304" y="-25" fill="black">5</text><line x1="1310" y1="-10" x2="1310" y2="0" stroke="#648A47" stroke-width="25"/></g><g><text x="1827" y="-59" fill="black">42</text><line x1="1840" y1="-42" x2="1840" y2="0" stroke="#F7AD14" stroke-width="25"/><text x="1857" y="20" style="writing-mode: tb; glyph-oriented-vertical:0; font-size:2em;">Uprising</text><text x="1864" y="-29" fill="black">7</text><line x1="1870" y1="-14" x2="1870" y2="0" stroke="#648A47" stroke-width="25"/></g><g><text x="1987" y="-58" fill="black">41</text><line x1="2000" y1="-41" x2="2000" y2="0" stroke="#F7AD14" stroke-width="25"/><text x="2017" y="20" style="writing-mode: tb; glyph-oriented-vertical:0; font-size:2em;">Battle of Amphipolis</text><text x="2024" y="-23" fill="black">4</text><line x1="2030" y1="-8" x2="2030" y2="0" stroke="#648A47" stroke-width="25"/></g><g><text x="387" y="-55" fill="black">38</text><line x1="400" y1="-38" x2="400" y2="0" stroke="#F7AD14" stroke-width="25"/><text x="417" y="20" style="writing-mode: tb; glyph-oriented-vertical:0; font-size:2em;">The Wolf and Snake</text><text x="424" y="-21" fill="black">3</text><line x1="430" y1="-6" x2="430" y2="0" stroke="#648A47" stroke-width="25"/></g></g></svg>