<?xml version="1.0" encoding="UTF-8"?>
<svg xmlns="http://www.w3.org/2000/svg" width="800" height="1000" viewBox="(0,0, 24000, 18000)"><g transform="translate(100, 900 )"><!-- ebb: From GitHub:the number of times each god is depicted in site structures (x axis) (ebb: I think this must be depictionsTotal) and relics (y axis)  (ebb: I think this must be gods plotted up and down the y axis) Presumably $PVChars shown as a circle plotted for each character, whose length in radius is calculated by the number of times (frequency) that specific god is referenced in the Popol Vuh. - But I'm having a tricky time trying to figure out how to execute it through XQuery--><!-- vertical grid lines: run from left to right to the total count of depictions (22), as high as the $PVcharRefCount (16) --><g class="gridmarks"><line x1="0" x2="0" y1="0" y2="-800" stroke="green" stroke-width="1" stroke-dasharray="5"/><text x="0" y="30" stroke="black">0</text></g><g class="gridmarks"><line x1="100" x2="100" y1="0" y2="-800" stroke="green" stroke-width="1" stroke-dasharray="5"/><text x="100" y="30" stroke="black">1</text></g><g class="gridmarks"><line x1="200" x2="200" y1="0" y2="-800" stroke="green" stroke-width="1" stroke-dasharray="5"/><text x="200" y="30" stroke="black">2</text></g><g class="gridmarks"><line x1="300" x2="300" y1="0" y2="-800" stroke="green" stroke-width="1" stroke-dasharray="5"/><text x="300" y="30" stroke="black">3</text></g><g class="gridmarks"><line x1="400" x2="400" y1="0" y2="-800" stroke="green" stroke-width="1" stroke-dasharray="5"/><text x="400" y="30" stroke="black">4</text></g><g class="gridmarks"><line x1="500" x2="500" y1="0" y2="-800" stroke="green" stroke-width="1" stroke-dasharray="5"/><text x="500" y="30" stroke="black">5</text></g><g class="gridmarks"><line x1="600" x2="600" y1="0" y2="-800" stroke="green" stroke-width="1" stroke-dasharray="5"/><text x="600" y="30" stroke="black">6</text></g><!-- horizontal grid lines: run across the screen from y=0 up to total $PVcharRefCount (16) * ySpacer. --><g class="gridmarks"><line x1="0" x2="600" y1="0" y2="0" stroke="green" stroke-width="1" stroke-dasharray="5"/></g><g class="gridmarks"><line x1="0" x2="600" y1="-100" y2="-100" stroke="green" stroke-width="1" stroke-dasharray="5"/></g><g class="gridmarks"><line x1="0" x2="600" y1="-200" y2="-200" stroke="green" stroke-width="1" stroke-dasharray="5"/></g><g class="gridmarks"><line x1="0" x2="600" y1="-300" y2="-300" stroke="green" stroke-width="1" stroke-dasharray="5"/></g><g class="gridmarks"><line x1="0" x2="600" y1="-400" y2="-400" stroke="green" stroke-width="1" stroke-dasharray="5"/></g><g class="gridmarks"><line x1="0" x2="600" y1="-500" y2="-500" stroke="green" stroke-width="1" stroke-dasharray="5"/></g><g class="gridmarks"><line x1="0" x2="600" y1="-600" y2="-600" stroke="green" stroke-width="1" stroke-dasharray="5"/></g><g class="gridmarks"><line x1="0" x2="600" y1="-700" y2="-700" stroke="green" stroke-width="1" stroke-dasharray="5"/></g><g class="gridmarks"><line x1="0" x2="600" y1="-800" y2="-800" stroke="green" stroke-width="1" stroke-dasharray="5"/></g><g class="characterPlot"><text x="-30" y="-95" text-anchor="end" stroke="black">Xba: 72, 2</text><circle cx="200" cy="-100" r="21.409489393833255" fill="salmon"/></g><g class="characterPlot"><text x="-30" y="-195" text-anchor="end" stroke="black">SPS: 11, 3</text><circle cx="300" cy="-200" r="8.368283871884005" fill="salmon"/></g><g class="characterPlot"><text x="-30" y="-295" text-anchor="end" stroke="black">PBD: 34, 5</text><circle cx="500" cy="-300" r="14.712264360219255" fill="salmon"/></g><g class="characterPlot"><text x="-30" y="-395" text-anchor="end" stroke="black">OneMonk: 23, 1</text><circle cx="100" cy="-400" r="12.100518486599809" fill="salmon"/></g><g class="characterPlot"><text x="-30" y="-495" text-anchor="end" stroke="black">OneH: 35, 6</text><circle cx="600" cy="-500" r="14.927053303604616" fill="salmon"/></g><g class="characterPlot"><text x="-30" y="-595" text-anchor="end" stroke="black">OneArt: 22, 1</text><circle cx="100" cy="-600" r="11.834540545406394" fill="salmon"/></g><g class="characterPlot"><text x="-30" y="-695" text-anchor="end" stroke="black">LOX: 14, 3</text><circle cx="300" cy="-700" r="9.440697438826296" fill="salmon"/></g><g class="characterPlot"><text x="-30" y="-795" text-anchor="end" stroke="black">Hun: 84, 4</text><circle cx="400" cy="-800" r="23.12489154112443" fill="salmon"/></g></g></svg>