<?xml version="1.0" encoding="UTF-8"?>
<svg xmlns="http://www.w3.org/2000/svg" width="1000" height="1000"><g transform="translate (25,200)"><g><text x="400" y="000"> Distinct Speakers Count vs Actions Count </text><rect y="100" x="70" height="25" width="24" fill="red"/><rect y="200" x="70" height="25" width="0" fill="purple"/><text x="70" y="250" style="writing-mode: tb; glyph-orientation-verical:o">intro</text>24</g><g><text x="400" y="000"> Distinct Speakers Count vs Actions Count </text><rect y="100" x="140" height="25" width="15" fill="red"/><rect y="200" x="140" height="25" width="0" fill="purple"/><text x="140" y="250" style="writing-mode: tb; glyph-orientation-verical:o">Another Day, Another Drachma</text>15</g><g><text x="400" y="000"> Distinct Speakers Count vs Actions Count </text><rect y="100" x="210" height="25" width="33" fill="red"/><rect y="200" x="210" height="25" width="0" fill="purple"/><text x="210" y="250" style="writing-mode: tb; glyph-orientation-verical:o">A Debt to Pay</text>33</g><g><text x="400" y="000"> Distinct Speakers Count vs Actions Count </text><rect y="100" x="280" height="25" width="29" fill="red"/><rect y="200" x="280" height="25" width="0" fill="purple"/><text x="280" y="250" style="writing-mode: tb; glyph-orientation-verical:o">The Wolf Hunt</text>29</g><g><text x="400" y="000"> Distinct Speakers Count vs Actions Count </text><rect y="100" x="350" height="25" width="3" fill="red"/><rect y="200" x="350" height="25" width="0" fill="purple"/><text x="350" y="250" style="writing-mode: tb; glyph-orientation-verical:o">The Wolf and Snake</text>3</g><g><text x="400" y="000"> Distinct Speakers Count vs Actions Count </text><rect y="100" x="420" height="25" width="9" fill="red"/><rect y="200" x="420" height="25" width="0" fill="purple"/><text x="420" y="250" style="writing-mode: tb; glyph-orientation-verical:o">Of Visions and Visionaries</text>9</g><g><text x="400" y="000"> Distinct Speakers Count vs Actions Count </text><rect y="100" x="490" height="25" width="18" fill="red"/><rect y="200" x="490" height="25" width="0" fill="purple"/><text x="490" y="250" style="writing-mode: tb; glyph-orientation-verical:o">Beware the Snakes</text>18</g><g><text x="400" y="000"> Distinct Speakers Count vs Actions Count </text><rect y="100" x="560" height="25" width="12" fill="red"/><rect y="200" x="560" height="25" width="0" fill="purple"/><text x="560" y="250" style="writing-mode: tb; glyph-orientation-verical:o">An Old Enemy and a New Ally</text>12</g><g><text x="400" y="000"> Distinct Speakers Count vs Actions Count </text><rect y="100" x="630" height="25" width="34" fill="red"/><rect y="200" x="630" height="25" width="0" fill="purple"/><text x="630" y="250" style="writing-mode: tb; glyph-orientation-verical:o">The Road to the Symposium</text>34</g><g><text x="400" y="000"> Distinct Speakers Count vs Actions Count </text><rect y="100" x="700" height="25" width="28" fill="red"/><rect y="200" x="700" height="25" width="0" fill="purple"/><text x="700" y="250" style="writing-mode: tb; glyph-orientation-verical:o">Land of the Lawless</text>28</g><g><text x="400" y="000"> Distinct Speakers Count vs Actions Count </text><rect y="100" x="770" height="25" width="32" fill="red"/><rect y="200" x="770" height="25" width="0" fill="purple"/><text x="770" y="250" style="writing-mode: tb; glyph-orientation-verical:o">A Prescription for Discovery</text>32</g><g><text x="400" y="000"> Distinct Speakers Count vs Actions Count </text><rect y="100" x="840" height="25" width="5" fill="red"/><rect y="200" x="840" height="25" width="0" fill="purple"/><text x="840" y="250" style="writing-mode: tb; glyph-orientation-verical:o">Pirate Hospitality</text>5</g><g><text x="400" y="000"> Distinct Speakers Count vs Actions Count </text><rect y="100" x="910" height="25" width="18" fill="red"/><rect y="200" x="910" height="25" width="0" fill="purple"/><text x="910" y="250" style="writing-mode: tb; glyph-orientation-verical:o">Rising from the Ashes</text>18</g><g><text x="400" y="000"> Distinct Speakers Count vs Actions Count </text><rect y="100" x="980" height="25" width="4" fill="red"/><rect y="200" x="980" height="25" width="0" fill="purple"/><text x="980" y="250" style="writing-mode: tb; glyph-orientation-verical:o">The Reunion</text>4</g><g><text x="400" y="000"> Distinct Speakers Count vs Actions Count </text><rect y="100" x="1050" height="25" width="22" fill="red"/><rect y="200" x="1050" height="25" width="0" fill="purple"/><text x="1050" y="250" style="writing-mode: tb; glyph-orientation-verical:o">Paradise Lost</text>22</g><g><text x="400" y="000"> Distinct Speakers Count vs Actions Count </text><rect y="100" x="1120" height="25" width="6" fill="red"/><rect y="200" x="1120" height="25" width="0" fill="purple"/><text x="1120" y="250" style="writing-mode: tb; glyph-orientation-verical:o">The Last Riddle</text>6</g><g><text x="400" y="000"> Distinct Speakers Count vs Actions Count </text><rect y="100" x="1190" height="25" width="40" fill="red"/><rect y="200" x="1190" height="25" width="0" fill="purple"/><text x="1190" y="250" style="writing-mode: tb; glyph-orientation-verical:o">A Place of Twists and Turns</text>40</g><g><text x="400" y="000"> Distinct Speakers Count vs Actions Count </text><rect y="100" x="1260" height="25" width="16" fill="red"/><rect y="200" x="1260" height="25" width="0" fill="purple"/><text x="1260" y="250" style="writing-mode: tb; glyph-orientation-verical:o">Home Is Where My Mother Is</text>16</g><g><text x="400" y="000"> Distinct Speakers Count vs Actions Count </text><rect y="100" x="1330" height="25" width="27" fill="red"/><rect y="200" x="1330" height="25" width="0" fill="purple"/><text x="1330" y="250" style="writing-mode: tb; glyph-orientation-verical:o">The Olympian</text>27</g><g><text x="400" y="000"> Distinct Speakers Count vs Actions Count </text><rect y="100" x="1400" height="25" width="13" fill="red"/><rect y="200" x="1400" height="25" width="0" fill="purple"/><text x="1400" y="250" style="writing-mode: tb; glyph-orientation-verical:o">The Cult and the Archon</text>13</g><g><text x="400" y="000"> Distinct Speakers Count vs Actions Count </text><rect y="100" x="1470" height="25" width="9" fill="red"/><rect y="200" x="1470" height="25" width="0" fill="purple"/><text x="1470" y="250" style="writing-mode: tb; glyph-orientation-verical:o">Paint It Red</text>9</g><g><text x="400" y="000"> Distinct Speakers Count vs Actions Count </text><rect y="100" x="1540" height="25" width="13" fill="red"/><rect y="200" x="1540" height="25" width="0" fill="purple"/><text x="1540" y="250" style="writing-mode: tb; glyph-orientation-verical:o">The Cultist King</text>13</g><g><text x="400" y="000"> Distinct Speakers Count vs Actions Count </text><rect y="100" x="1610" height="25" width="4" fill="red"/><rect y="200" x="1610" height="25" width="0" fill="purple"/><text x="1610" y="250" style="writing-mode: tb; glyph-orientation-verical:o">Uprising</text>4</g><g><text x="400" y="000"> Distinct Speakers Count vs Actions Count </text><rect y="100" x="1680" height="25" width="12" fill="red"/><rect y="200" x="1680" height="25" width="0" fill="purple"/><text x="1680" y="250" style="writing-mode: tb; glyph-orientation-verical:o">Public Opinion</text>12</g><g><text x="400" y="000"> Distinct Speakers Count vs Actions Count </text><rect y="100" x="1750" height="25" width="8" fill="red"/><rect y="200" x="1750" height="25" width="0" fill="purple"/><text x="1750" y="250" style="writing-mode: tb; glyph-orientation-verical:o">Battle of Amphipolis</text>8</g><g><text x="400" y="000"> Distinct Speakers Count vs Actions Count </text><rect y="100" x="1820" height="25" width="8" fill="red"/><rect y="200" x="1820" height="25" width="0" fill="purple"/><text x="1820" y="250" style="writing-mode: tb; glyph-orientation-verical:o">Homecoming</text>8</g><g><text x="400" y="000"> Distinct Speakers Count vs Actions Count </text><rect y="100" x="1890" height="25" width="4" fill="red"/><rect y="200" x="1890" height="25" width="0" fill="purple"/><text x="1890" y="250" style="writing-mode: tb; glyph-orientation-verical:o">From the Shadows</text>4</g><g><text x="400" y="000"> Distinct Speakers Count vs Actions Count </text><rect y="100" x="1960" height="25" width="19" fill="red"/><rect y="200" x="1960" height="25" width="0" fill="purple"/><text x="1960" y="250" style="writing-mode: tb; glyph-orientation-verical:o">Shadows of Serpents</text>19</g><g><text x="400" y="000"> Distinct Speakers Count vs Actions Count </text><rect y="100" x="2030" height="25" width="9" fill="red"/><rect y="200" x="2030" height="25" width="0" fill="purple"/><text x="2030" y="250" style="writing-mode: tb; glyph-orientation-verical:o">The Gates of Atlantis</text>9</g></g></svg>