<?xml version="1.0" encoding="UTF-8"?>
<svg width="2000" height="3000"><g transform="translate(30, 30)"><line x1="100" y1="0" x2="100" y2="1900" stroke="orange" stroke-width="3"/><g class="yeardata"><circle cx="100" cy="1100" r="33.851375012865375" fill="pink"/><text x="120" y="1100">2010</text></g><g class="yeardata"><circle cx="100" cy="800" r="33.851375012865375" fill="pink"/><text x="120" y="800">2007</text></g><g class="yeardata"><circle cx="100" cy="1100" r="33.851375012865375" fill="pink"/><text x="120" y="1100">2010</text></g><g class="yeardata"><circle cx="100" cy="1200" r="39.49327084834294" fill="pink"/><text x="120" y="1200">2011</text></g><g class="yeardata"><circle cx="100" cy="400" r="73.34464586120832" fill="pink"/><text x="120" y="400">2003</text></g><g class="yeardata"><circle cx="100" cy="600" r="39.49327084834294" fill="pink"/><text x="120" y="600">2005</text></g><g class="yeardata"><circle cx="100" cy="1200" r="39.49327084834294" fill="pink"/><text x="120" y="1200">2011</text></g><g class="yeardata"><circle cx="100" cy="1100" r="33.851375012865375" fill="pink"/><text x="120" y="1100">2010</text></g><g class="yeardata"><circle cx="100" cy="400" r="73.34464586120832" fill="pink"/><text x="120" y="400">2003</text></g><g class="yeardata"><circle cx="100" cy="1000" r="28.209479177387813" fill="pink"/><text x="120" y="1000">2009</text></g><g class="yeardata"><circle cx="100" cy="1200" r="39.49327084834294" fill="pink"/><text x="120" y="1200">2011</text></g><g class="yeardata"><circle cx="100" cy="400" r="73.34464586120832" fill="pink"/><text x="120" y="400">2003</text></g><g class="yeardata"><circle cx="100" cy="500" r="62.060854190253195" fill="pink"/><text x="120" y="500">2004</text></g><g class="yeardata"><circle cx="100" cy="800" r="33.851375012865375" fill="pink"/><text x="120" y="800">2007</text></g><g class="yeardata"><circle cx="100" cy="700" r="45.1351666838205" fill="pink"/><text x="120" y="700">2006</text></g><g class="yeardata"><circle cx="100" cy="1800" r="5.641895835477563" fill="pink"/><text x="120" y="1800">2017</text></g><g class="yeardata"><circle cx="100" cy="1200" r="39.49327084834294" fill="pink"/><text x="120" y="1200">2011</text></g><g class="yeardata"><circle cx="100" cy="1200" r="39.49327084834294" fill="pink"/><text x="120" y="1200">2011</text></g><g class="yeardata"><circle cx="100" cy="1900" r="45.1351666838205" fill="pink"/><text x="120" y="1900">2018</text></g><g class="yeardata"><circle cx="100" cy="600" r="39.49327084834294" fill="pink"/><text x="120" y="600">2005</text></g><g class="yeardata"><circle cx="100" cy="1100" r="33.851375012865375" fill="pink"/><text x="120" y="1100">2010</text></g><g class="yeardata"><circle cx="100" cy="1000" r="28.209479177387813" fill="pink"/><text x="120" y="1000">2009</text></g><g class="yeardata"><circle cx="100" cy="1900" r="45.1351666838205" fill="pink"/><text x="120" y="1900">2018</text></g><g class="yeardata"><circle cx="100" cy="900" r="33.851375012865375" fill="pink"/><text x="120" y="900">2008</text></g><g class="yeardata"><circle cx="100" cy="1300" r="22.56758334191025" fill="pink"/><text x="120" y="1300">2012</text></g><g class="yeardata"><circle cx="100" cy="0" r="5.641895835477563" fill="pink"/><text x="120" y="0">1999</text></g><g class="yeardata"><circle cx="100" cy="500" r="62.060854190253195" fill="pink"/><text x="120" y="500">2004</text></g><g class="yeardata"><circle cx="100" cy="1200" r="39.49327084834294" fill="pink"/><text x="120" y="1200">2011</text></g><g class="yeardata"><circle cx="100" cy="1300" r="22.56758334191025" fill="pink"/><text x="120" y="1300">2012</text></g><g class="yeardata"><circle cx="100" cy="400" r="73.34464586120832" fill="pink"/><text x="120" y="400">2003</text></g><g class="yeardata"><circle cx="100" cy="1000" r="28.209479177387813" fill="pink"/><text x="120" y="1000">2009</text></g><g class="yeardata"><circle cx="100" cy="900" r="33.851375012865375" fill="pink"/><text x="120" y="900">2008</text></g><g class="yeardata"><circle cx="100" cy="1700" r="5.641895835477563" fill="pink"/><text x="120" y="1700">2016</text></g><g class="yeardata"><circle cx="100" cy="600" r="39.49327084834294" fill="pink"/><text x="120" y="600">2005</text></g><g class="yeardata"><circle cx="100" cy="300" r="11.283791670955125" fill="pink"/><text x="120" y="300">2002</text></g><g class="yeardata"><circle cx="100" cy="1900" r="45.1351666838205" fill="pink"/><text x="120" y="1900">2018</text></g><g class="yeardata"><circle cx="100" cy="400" r="73.34464586120832" fill="pink"/><text x="120" y="400">2003</text></g><g class="yeardata"><circle cx="100" cy="700" r="45.1351666838205" fill="pink"/><text x="120" y="700">2006</text></g><g class="yeardata"><circle cx="100" cy="1600" r="28.209479177387813" fill="pink"/><text x="120" y="1600">2015</text></g><g class="yeardata"><circle cx="100" cy="1600" r="28.209479177387813" fill="pink"/><text x="120" y="1600">2015</text></g><g class="yeardata"><circle cx="100" cy="1900" r="45.1351666838205" fill="pink"/><text x="120" y="1900">2018</text></g><g class="yeardata"><circle cx="100" cy="1900" r="45.1351666838205" fill="pink"/><text x="120" y="1900">2018</text></g><g class="yeardata"><circle cx="100" cy="600" r="39.49327084834294" fill="pink"/><text x="120" y="600">2005</text></g><g class="yeardata"><circle cx="100" cy="1400" r="22.56758334191025" fill="pink"/><text x="120" y="1400">2013</text></g><g class="yeardata"><circle cx="100" cy="1300" r="22.56758334191025" fill="pink"/><text x="120" y="1300">2012</text></g><g class="yeardata"><circle cx="100" cy="900" r="33.851375012865375" fill="pink"/><text x="120" y="900">2008</text></g><g class="yeardata"><circle cx="100" cy="1400" r="22.56758334191025" fill="pink"/><text x="120" y="1400">2013</text></g><g class="yeardata"><circle cx="100" cy="400" r="73.34464586120832" fill="pink"/><text x="120" y="400">2003</text></g><g class="yeardata"><circle cx="100" cy="900" r="33.851375012865375" fill="pink"/><text x="120" y="900">2008</text></g><g class="yeardata"><circle cx="100" cy="800" r="33.851375012865375" fill="pink"/><text x="120" y="800">2007</text></g><g class="yeardata"><circle cx="100" cy="500" r="62.060854190253195" fill="pink"/><text x="120" y="500">2004</text></g><g class="yeardata"><circle cx="100" cy="800" r="33.851375012865375" fill="pink"/><text x="120" y="800">2007</text></g><g class="yeardata"><circle cx="100" cy="700" r="45.1351666838205" fill="pink"/><text x="120" y="700">2006</text></g><g class="yeardata"><circle cx="100" cy="700" r="45.1351666838205" fill="pink"/><text x="120" y="700">2006</text></g><g class="yeardata"><circle cx="100" cy="400" r="73.34464586120832" fill="pink"/><text x="120" y="400">2003</text></g><g class="yeardata"><circle cx="100" cy="400" r="73.34464586120832" fill="pink"/><text x="120" y="400">2003</text></g><g class="yeardata"><circle cx="100" cy="500" r="62.060854190253195" fill="pink"/><text x="120" y="500">2004</text></g><g class="yeardata"><circle cx="100" cy="1100" r="33.851375012865375" fill="pink"/><text x="120" y="1100">2010</text></g><g class="yeardata"><circle cx="100" cy="800" r="33.851375012865375" fill="pink"/><text x="120" y="800">2007</text></g><g class="yeardata"><circle cx="100" cy="1900" r="45.1351666838205" fill="pink"/><text x="120" y="1900">2018</text></g><g class="yeardata"><circle cx="100" cy="500" r="62.060854190253195" fill="pink"/><text x="120" y="500">2004</text></g><g class="yeardata"><circle cx="100" cy="300" r="11.283791670955125" fill="pink"/><text x="120" y="300">2002</text></g><g class="yeardata"><circle cx="100" cy="900" r="33.851375012865375" fill="pink"/><text x="120" y="900">2008</text></g><g class="yeardata"><circle cx="100" cy="400" r="73.34464586120832" fill="pink"/><text x="120" y="400">2003</text></g><g class="yeardata"><circle cx="100" cy="1300" r="22.56758334191025" fill="pink"/><text x="120" y="1300">2012</text></g><g class="yeardata"><circle cx="100" cy="400" r="73.34464586120832" fill="pink"/><text x="120" y="400">2003</text></g><g class="yeardata"><circle cx="100" cy="1900" r="45.1351666838205" fill="pink"/><text x="120" y="1900">2018</text></g><g class="yeardata"><circle cx="100" cy="1500" r="16.925687506432688" fill="pink"/><text x="120" y="1500">2014</text></g><g class="yeardata"><circle cx="100" cy="200" r="5.641895835477563" fill="pink"/><text x="120" y="200">2001</text></g><g class="yeardata"><circle cx="100" cy="1000" r="28.209479177387813" fill="pink"/><text x="120" y="1000">2009</text></g><g class="yeardata"><circle cx="100" cy="1500" r="16.925687506432688" fill="pink"/><text x="120" y="1500">2014</text></g><g class="yeardata"><circle cx="100" cy="400" r="73.34464586120832" fill="pink"/><text x="120" y="400">2003</text></g><g class="yeardata"><circle cx="100" cy="1600" r="28.209479177387813" fill="pink"/><text x="120" y="1600">2015</text></g><g class="yeardata"><circle cx="100" cy="1200" r="39.49327084834294" fill="pink"/><text x="120" y="1200">2011</text></g><g class="yeardata"><circle cx="100" cy="500" r="62.060854190253195" fill="pink"/><text x="120" y="500">2004</text></g><g class="yeardata"><circle cx="100" cy="1500" r="16.925687506432688" fill="pink"/><text x="120" y="1500">2014</text></g><g class="yeardata"><circle cx="100" cy="1100" r="33.851375012865375" fill="pink"/><text x="120" y="1100">2010</text></g><g class="yeardata"><circle cx="100" cy="700" r="45.1351666838205" fill="pink"/><text x="120" y="700">2006</text></g><g class="yeardata"><circle cx="100" cy="900" r="33.851375012865375" fill="pink"/><text x="120" y="900">2008</text></g><g class="yeardata"><circle cx="100" cy="1600" r="28.209479177387813" fill="pink"/><text x="120" y="1600">2015</text></g><g class="yeardata"><circle cx="100" cy="500" r="62.060854190253195" fill="pink"/><text x="120" y="500">2004</text></g><g class="yeardata"><circle cx="100" cy="1900" r="45.1351666838205" fill="pink"/><text x="120" y="1900">2018</text></g><g class="yeardata"><circle cx="100" cy="600" r="39.49327084834294" fill="pink"/><text x="120" y="600">2005</text></g><g class="yeardata"><circle cx="100" cy="800" r="33.851375012865375" fill="pink"/><text x="120" y="800">2007</text></g><g class="yeardata"><circle cx="100" cy="700" r="45.1351666838205" fill="pink"/><text x="120" y="700">2006</text></g><g class="yeardata"><circle cx="100" cy="1400" r="22.56758334191025" fill="pink"/><text x="120" y="1400">2013</text></g><g class="yeardata"><circle cx="100" cy="500" r="62.060854190253195" fill="pink"/><text x="120" y="500">2004</text></g><g class="yeardata"><circle cx="100" cy="700" r="45.1351666838205" fill="pink"/><text x="120" y="700">2006</text></g><g class="yeardata"><circle cx="100" cy="1600" r="28.209479177387813" fill="pink"/><text x="120" y="1600">2015</text></g><g class="yeardata"><circle cx="100" cy="1400" r="22.56758334191025" fill="pink"/><text x="120" y="1400">2013</text></g><g class="yeardata"><circle cx="100" cy="700" r="45.1351666838205" fill="pink"/><text x="120" y="700">2006</text></g><g class="yeardata"><circle cx="100" cy="500" r="62.060854190253195" fill="pink"/><text x="120" y="500">2004</text></g><g class="yeardata"><circle cx="100" cy="1000" r="28.209479177387813" fill="pink"/><text x="120" y="1000">2009</text></g><g class="yeardata"><circle cx="100" cy="500" r="62.060854190253195" fill="pink"/><text x="120" y="500">2004</text></g><g class="yeardata"><circle cx="100" cy="600" r="39.49327084834294" fill="pink"/><text x="120" y="600">2005</text></g><g class="yeardata"><circle cx="100" cy="600" r="39.49327084834294" fill="pink"/><text x="120" y="600">2005</text></g><g class="yeardata"><circle cx="100" cy="500" r="62.060854190253195" fill="pink"/><text x="120" y="500">2004</text></g><g class="yeardata"><circle cx="100" cy="400" r="73.34464586120832" fill="pink"/><text x="120" y="400">2003</text></g><g class="yeardata"><circle cx="100" cy="400" r="73.34464586120832" fill="pink"/><text x="120" y="400">2003</text></g></g></svg>