<?xml version="1.0" encoding="UTF-8"?>
<svg xmlns="http://www.w3.org/2000/svg" width="3000" height="1000"><g transform="translate(25, 200)"><g><circle cx="100" cy="160" r="24" stroke="black" fill="blue"/><line x1="100" y1="10" x2="100" y2="55" stroke="grey" stroke-width="4.58333333333333333"/><text x="0" y="100" fill="orange">Ratio of speakers to actions = width of line </text><text x="100" y="-200" style="writing-mode: tb; glyph-orientation-vertical:0" fill="grey"> Count of Distinct Speakers: 11</text><text x="100" y="250" style="writing-mode: tb; glyph-orientation-vertical:0" fill="blue"> Count of Actions: 24</text></g><g><circle cx="200" cy="160" r="15" stroke="black" fill="blue"/><line x1="200" y1="10" x2="200" y2="60" stroke="grey" stroke-width="8"/><text x="0" y="100" fill="orange">Ratio of speakers to actions = width of line </text><text x="200" y="-200" style="writing-mode: tb; glyph-orientation-vertical:0" fill="grey"> Count of Distinct Speakers: 12</text><text x="200" y="250" style="writing-mode: tb; glyph-orientation-vertical:0" fill="blue"> Count of Actions: 15</text></g><g><circle cx="300" cy="160" r="33" stroke="black" fill="blue"/><line x1="300" y1="10" x2="300" y2="70" stroke="grey" stroke-width="4.24242424242424242"/><text x="0" y="100" fill="orange">Ratio of speakers to actions = width of line </text><text x="300" y="-200" style="writing-mode: tb; glyph-orientation-vertical:0" fill="grey"> Count of Distinct Speakers: 14</text><text x="300" y="250" style="writing-mode: tb; glyph-orientation-vertical:0" fill="blue"> Count of Actions: 33</text></g><g><circle cx="400" cy="160" r="29" stroke="black" fill="blue"/><line x1="400" y1="10" x2="400" y2="80" stroke="grey" stroke-width="5.51724137931034483"/><text x="0" y="100" fill="orange">Ratio of speakers to actions = width of line </text><text x="400" y="-200" style="writing-mode: tb; glyph-orientation-vertical:0" fill="grey"> Count of Distinct Speakers: 16</text><text x="400" y="250" style="writing-mode: tb; glyph-orientation-vertical:0" fill="blue"> Count of Actions: 29</text></g><g><circle cx="500" cy="160" r="3" stroke="black" fill="blue"/><line x1="500" y1="10" x2="500" y2="15" stroke="grey" stroke-width="10"/><text x="0" y="100" fill="orange">Ratio of speakers to actions = width of line </text><text x="500" y="-200" style="writing-mode: tb; glyph-orientation-vertical:0" fill="grey"> Count of Distinct Speakers: 3</text><text x="500" y="250" style="writing-mode: tb; glyph-orientation-vertical:0" fill="blue"> Count of Actions: 3</text></g><g><circle cx="600" cy="160" r="9" stroke="black" fill="blue"/><line x1="600" y1="10" x2="600" y2="30" stroke="grey" stroke-width="6.66666666666666667"/><text x="0" y="100" fill="orange">Ratio of speakers to actions = width of line </text><text x="600" y="-200" style="writing-mode: tb; glyph-orientation-vertical:0" fill="grey"> Count of Distinct Speakers: 6</text><text x="600" y="250" style="writing-mode: tb; glyph-orientation-vertical:0" fill="blue"> Count of Actions: 9</text></g><g><circle cx="700" cy="160" r="18" stroke="black" fill="blue"/><line x1="700" y1="10" x2="700" y2="30" stroke="grey" stroke-width="3.33333333333333333"/><text x="0" y="100" fill="orange">Ratio of speakers to actions = width of line </text><text x="700" y="-200" style="writing-mode: tb; glyph-orientation-vertical:0" fill="grey"> Count of Distinct Speakers: 6</text><text x="700" y="250" style="writing-mode: tb; glyph-orientation-vertical:0" fill="blue"> Count of Actions: 18</text></g><g><circle cx="800" cy="160" r="12" stroke="black" fill="blue"/><line x1="800" y1="10" x2="800" y2="60" stroke="grey" stroke-width="10"/><text x="0" y="100" fill="orange">Ratio of speakers to actions = width of line </text><text x="800" y="-200" style="writing-mode: tb; glyph-orientation-vertical:0" fill="grey"> Count of Distinct Speakers: 12</text><text x="800" y="250" style="writing-mode: tb; glyph-orientation-vertical:0" fill="blue"> Count of Actions: 12</text></g><g><circle cx="900" cy="160" r="34" stroke="black" fill="blue"/><line x1="900" y1="10" x2="900" y2="115" stroke="grey" stroke-width="6.76470588235294118"/><text x="0" y="100" fill="orange">Ratio of speakers to actions = width of line </text><text x="900" y="-200" style="writing-mode: tb; glyph-orientation-vertical:0" fill="grey"> Count of Distinct Speakers: 23</text><text x="900" y="250" style="writing-mode: tb; glyph-orientation-vertical:0" fill="blue"> Count of Actions: 34</text></g><g><circle cx="1000" cy="160" r="28" stroke="black" fill="blue"/><line x1="1000" y1="10" x2="1000" y2="55" stroke="grey" stroke-width="3.92857142857142857"/><text x="0" y="100" fill="orange">Ratio of speakers to actions = width of line </text><text x="1000" y="-200" style="writing-mode: tb; glyph-orientation-vertical:0" fill="grey"> Count of Distinct Speakers: 11</text><text x="1000" y="250" style="writing-mode: tb; glyph-orientation-vertical:0" fill="blue"> Count of Actions: 28</text></g><g><circle cx="1100" cy="160" r="32" stroke="black" fill="blue"/><line x1="1100" y1="10" x2="1100" y2="80" stroke="grey" stroke-width="5"/><text x="0" y="100" fill="orange">Ratio of speakers to actions = width of line </text><text x="1100" y="-200" style="writing-mode: tb; glyph-orientation-vertical:0" fill="grey"> Count of Distinct Speakers: 16</text><text x="1100" y="250" style="writing-mode: tb; glyph-orientation-vertical:0" fill="blue"> Count of Actions: 32</text></g><g><circle cx="1200" cy="160" r="5" stroke="black" fill="blue"/><line x1="1200" y1="10" x2="1200" y2="25" stroke="grey" stroke-width="10"/><text x="0" y="100" fill="orange">Ratio of speakers to actions = width of line </text><text x="1200" y="-200" style="writing-mode: tb; glyph-orientation-vertical:0" fill="grey"> Count of Distinct Speakers: 5</text><text x="1200" y="250" style="writing-mode: tb; glyph-orientation-vertical:0" fill="blue"> Count of Actions: 5</text></g><g><circle cx="1300" cy="160" r="18" stroke="black" fill="blue"/><line x1="1300" y1="10" x2="1300" y2="50" stroke="grey" stroke-width="5.55555555555555556"/><text x="0" y="100" fill="orange">Ratio of speakers to actions = width of line </text><text x="1300" y="-200" style="writing-mode: tb; glyph-orientation-vertical:0" fill="grey"> Count of Distinct Speakers: 10</text><text x="1300" y="250" style="writing-mode: tb; glyph-orientation-vertical:0" fill="blue"> Count of Actions: 18</text></g><g><circle cx="1400" cy="160" r="4" stroke="black" fill="blue"/><line x1="1400" y1="10" x2="1400" y2="25" stroke="grey" stroke-width="12.5"/><text x="0" y="100" fill="orange">Ratio of speakers to actions = width of line </text><text x="1400" y="-200" style="writing-mode: tb; glyph-orientation-vertical:0" fill="grey"> Count of Distinct Speakers: 5</text><text x="1400" y="250" style="writing-mode: tb; glyph-orientation-vertical:0" fill="blue"> Count of Actions: 4</text></g><g><circle cx="1500" cy="160" r="22" stroke="black" fill="blue"/><line x1="1500" y1="10" x2="1500" y2="65" stroke="grey" stroke-width="5.90909090909090909"/><text x="0" y="100" fill="orange">Ratio of speakers to actions = width of line </text><text x="1500" y="-200" style="writing-mode: tb; glyph-orientation-vertical:0" fill="grey"> Count of Distinct Speakers: 13</text><text x="1500" y="250" style="writing-mode: tb; glyph-orientation-vertical:0" fill="blue"> Count of Actions: 22</text></g><g><circle cx="1600" cy="160" r="6" stroke="black" fill="blue"/><line x1="1600" y1="10" x2="1600" y2="25" stroke="grey" stroke-width="8.33333333333333333"/><text x="0" y="100" fill="orange">Ratio of speakers to actions = width of line </text><text x="1600" y="-200" style="writing-mode: tb; glyph-orientation-vertical:0" fill="grey"> Count of Distinct Speakers: 5</text><text x="1600" y="250" style="writing-mode: tb; glyph-orientation-vertical:0" fill="blue"> Count of Actions: 6</text></g><g><circle cx="1700" cy="160" r="40" stroke="black" fill="blue"/><line x1="1700" y1="10" x2="1700" y2="60" stroke="grey" stroke-width="3"/><text x="0" y="100" fill="orange">Ratio of speakers to actions = width of line </text><text x="1700" y="-200" style="writing-mode: tb; glyph-orientation-vertical:0" fill="grey"> Count of Distinct Speakers: 12</text><text x="1700" y="250" style="writing-mode: tb; glyph-orientation-vertical:0" fill="blue"> Count of Actions: 40</text></g><g><circle cx="1800" cy="160" r="16" stroke="black" fill="blue"/><line x1="1800" y1="10" x2="1800" y2="55" stroke="grey" stroke-width="6.875"/><text x="0" y="100" fill="orange">Ratio of speakers to actions = width of line </text><text x="1800" y="-200" style="writing-mode: tb; glyph-orientation-vertical:0" fill="grey"> Count of Distinct Speakers: 11</text><text x="1800" y="250" style="writing-mode: tb; glyph-orientation-vertical:0" fill="blue"> Count of Actions: 16</text></g><g><circle cx="1900" cy="160" r="27" stroke="black" fill="blue"/><line x1="1900" y1="10" x2="1900" y2="75" stroke="grey" stroke-width="5.55555555555555556"/><text x="0" y="100" fill="orange">Ratio of speakers to actions = width of line </text><text x="1900" y="-200" style="writing-mode: tb; glyph-orientation-vertical:0" fill="grey"> Count of Distinct Speakers: 15</text><text x="1900" y="250" style="writing-mode: tb; glyph-orientation-vertical:0" fill="blue"> Count of Actions: 27</text></g><g><circle cx="2000" cy="160" r="13" stroke="black" fill="blue"/><line x1="2000" y1="10" x2="2000" y2="55" stroke="grey" stroke-width="8.46153846153846154"/><text x="0" y="100" fill="orange">Ratio of speakers to actions = width of line </text><text x="2000" y="-200" style="writing-mode: tb; glyph-orientation-vertical:0" fill="grey"> Count of Distinct Speakers: 11</text><text x="2000" y="250" style="writing-mode: tb; glyph-orientation-vertical:0" fill="blue"> Count of Actions: 13</text></g><g><circle cx="2100" cy="160" r="9" stroke="black" fill="blue"/><line x1="2100" y1="10" x2="2100" y2="20" stroke="grey" stroke-width="4.44444444444444444"/><text x="0" y="100" fill="orange">Ratio of speakers to actions = width of line </text><text x="2100" y="-200" style="writing-mode: tb; glyph-orientation-vertical:0" fill="grey"> Count of Distinct Speakers: 4</text><text x="2100" y="250" style="writing-mode: tb; glyph-orientation-vertical:0" fill="blue"> Count of Actions: 9</text></g><g><circle cx="2200" cy="160" r="13" stroke="black" fill="blue"/><line x1="2200" y1="10" x2="2200" y2="45" stroke="grey" stroke-width="6.92307692307692308"/><text x="0" y="100" fill="orange">Ratio of speakers to actions = width of line </text><text x="2200" y="-200" style="writing-mode: tb; glyph-orientation-vertical:0" fill="grey"> Count of Distinct Speakers: 9</text><text x="2200" y="250" style="writing-mode: tb; glyph-orientation-vertical:0" fill="blue"> Count of Actions: 13</text></g><g><circle cx="2300" cy="160" r="4" stroke="black" fill="blue"/><line x1="2300" y1="10" x2="2300" y2="35" stroke="grey" stroke-width="17.5"/><text x="0" y="100" fill="orange">Ratio of speakers to actions = width of line </text><text x="2300" y="-200" style="writing-mode: tb; glyph-orientation-vertical:0" fill="grey"> Count of Distinct Speakers: 7</text><text x="2300" y="250" style="writing-mode: tb; glyph-orientation-vertical:0" fill="blue"> Count of Actions: 4</text></g><g><circle cx="2400" cy="160" r="12" stroke="black" fill="blue"/><line x1="2400" y1="10" x2="2400" y2="50" stroke="grey" stroke-width="8.33333333333333333"/><text x="0" y="100" fill="orange">Ratio of speakers to actions = width of line </text><text x="2400" y="-200" style="writing-mode: tb; glyph-orientation-vertical:0" fill="grey"> Count of Distinct Speakers: 10</text><text x="2400" y="250" style="writing-mode: tb; glyph-orientation-vertical:0" fill="blue"> Count of Actions: 12</text></g><g><circle cx="2500" cy="160" r="8" stroke="black" fill="blue"/><line x1="2500" y1="10" x2="2500" y2="20" stroke="grey" stroke-width="5"/><text x="0" y="100" fill="orange">Ratio of speakers to actions = width of line </text><text x="2500" y="-200" style="writing-mode: tb; glyph-orientation-vertical:0" fill="grey"> Count of Distinct Speakers: 4</text><text x="2500" y="250" style="writing-mode: tb; glyph-orientation-vertical:0" fill="blue"> Count of Actions: 8</text></g><g><circle cx="2600" cy="160" r="8" stroke="black" fill="blue"/><line x1="2600" y1="10" x2="2600" y2="30" stroke="grey" stroke-width="7.5"/><text x="0" y="100" fill="orange">Ratio of speakers to actions = width of line </text><text x="2600" y="-200" style="writing-mode: tb; glyph-orientation-vertical:0" fill="grey"> Count of Distinct Speakers: 6</text><text x="2600" y="250" style="writing-mode: tb; glyph-orientation-vertical:0" fill="blue"> Count of Actions: 8</text></g><g><circle cx="2700" cy="160" r="4" stroke="black" fill="blue"/><line x1="2700" y1="10" x2="2700" y2="20" stroke="grey" stroke-width="10"/><text x="0" y="100" fill="orange">Ratio of speakers to actions = width of line </text><text x="2700" y="-200" style="writing-mode: tb; glyph-orientation-vertical:0" fill="grey"> Count of Distinct Speakers: 4</text><text x="2700" y="250" style="writing-mode: tb; glyph-orientation-vertical:0" fill="blue"> Count of Actions: 4</text></g><g><circle cx="2800" cy="160" r="19" stroke="black" fill="blue"/><line x1="2800" y1="10" x2="2800" y2="25" stroke="grey" stroke-width="2.63157894736842105"/><text x="0" y="100" fill="orange">Ratio of speakers to actions = width of line </text><text x="2800" y="-200" style="writing-mode: tb; glyph-orientation-vertical:0" fill="grey"> Count of Distinct Speakers: 5</text><text x="2800" y="250" style="writing-mode: tb; glyph-orientation-vertical:0" fill="blue"> Count of Actions: 19</text></g><g><circle cx="2900" cy="160" r="9" stroke="black" fill="blue"/><line x1="2900" y1="10" x2="2900" y2="45" stroke="grey" stroke-width="10"/><text x="0" y="100" fill="orange">Ratio of speakers to actions = width of line </text><text x="2900" y="-200" style="writing-mode: tb; glyph-orientation-vertical:0" fill="grey"> Count of Distinct Speakers: 9</text><text x="2900" y="250" style="writing-mode: tb; glyph-orientation-vertical:0" fill="blue"> Count of Actions: 9</text></g></g></svg>