<?xml version="1.0" encoding="UTF-8"?>
<svg width="2000" height="3000"><g transform="translate(30, 30)"><line x1="100" y1="100" x2="1500" y2="100" stroke="black" stroke-width="2"/><g class="circles"><circle cx="100" cy="100" r="5.808687281605183" fill="#3EB489" stroke="#013220" stroke-width="89"/><text x="100" y="200" style="writing-mode: tb; glyph-orientation-vertical:0" fill="black">Beauty and the Beast (Broadway)</text><text x="96" y="105">18</text></g><g class="circles"><circle cx="300" cy="100" r="2.985410660720923" fill="#3EB489" stroke="#013220" stroke-width="24"/><text x="300" y="200" style="writing-mode: tb; glyph-orientation-vertical:0" fill="black">Beauty and the Beast: The Enchanted Christmas</text><text x="296" y="105">5</text></g><g class="circles"><circle cx="500" cy="100" r="4.1841419359420025" fill="#3EB489" stroke="#013220" stroke-width="46"/><text x="500" y="200" style="writing-mode: tb; glyph-orientation-vertical:0" fill="black">Beauty and the Beast (Live-Action)</text><text x="496" y="105">10</text></g><g class="circles"><circle cx="700" cy="100" r="3.431831258788849" fill="#3EB489" stroke="#013220" stroke-width="30"/><text x="700" y="200" style="writing-mode: tb; glyph-orientation-vertical:0" fill="black">Aladdin (Live-Action)</text><text x="696" y="105">8</text></g><g class="circles"><circle cx="900" cy="100" r="2.763953195770684" fill="#3EB489" stroke="#013220" stroke-width="20"/><text x="900" y="200" style="writing-mode: tb; glyph-orientation-vertical:0" fill="black">Aladdin: The Return of Jafar</text><text x="896" y="105">5</text></g><g class="circles"><circle cx="1100" cy="100" r="2.5854414729132054" fill="#3EB489" stroke="#013220" stroke-width="17"/><text x="1100" y="200" style="writing-mode: tb; glyph-orientation-vertical:0" fill="black">Aladdin and the King of Thieves</text><text x="1096" y="105">5</text></g><g class="circles"><circle cx="1300" cy="100" r="5.201570947860099" fill="#3EB489" stroke="#013220" stroke-width="70"/><text x="1300" y="200" style="writing-mode: tb; glyph-orientation-vertical:0" fill="black">Aladdin (Broadway)</text><text x="1296" y="105">16</text></g><g class="circles"><circle cx="1500" cy="100" r="3.0382538898732494" fill="#3EB489" stroke="#013220" stroke-width="23"/><text x="1500" y="200" style="writing-mode: tb; glyph-orientation-vertical:0" fill="black">Aladdin</text><text x="1496" y="105">7</text></g><g class="circles"><circle cx="1700" cy="100" r="1.692568750643269" fill="#3EB489" stroke="#013220" stroke-width="8"/><text x="1700" y="200" style="writing-mode: tb; glyph-orientation-vertical:0" fill="black">Disney Princess Enchanted Tales: Follow Your Dreams</text><text x="1696" y="105">2</text></g><g class="circles"><circle cx="1900" cy="100" r="4.583497844237541" fill="#3EB489" stroke="#013220" stroke-width="54"/><text x="1900" y="200" style="writing-mode: tb; glyph-orientation-vertical:0" fill="black">Beauty and the Beast</text><text x="1896" y="105">13</text></g><g class="circles"><circle cx="2100" cy="100" r="1.2615662610100802" fill="#3EB489" stroke="#013220" stroke-width="5"/><text x="2100" y="200" style="writing-mode: tb; glyph-orientation-vertical:0" fill="black"> Beauty and the Beast (Broadway)</text><text x="2096" y="105">1</text></g><g class="circles"><circle cx="2300" cy="100" r="1.2615662610100802" fill="#3EB489" stroke="#013220" stroke-width="5"/><text x="2300" y="200" style="writing-mode: tb; glyph-orientation-vertical:0" fill="black"> Beauty and the Beast (Broadway) </text><text x="2296" y="105">1</text></g><g class="circles"><circle cx="2500" cy="100" r="1.381976597885342" fill="#3EB489" stroke="#013220" stroke-width="5"/><text x="2500" y="200" style="writing-mode: tb; glyph-orientation-vertical:0" fill="black">Beauty and the Beast: Belle's Magical World</text><text x="2496" y="105">2</text></g></g></svg>